<svg xmlns="http://www.w3.org/2000/svg" xmlns:xlink="http://www.w3.org/1999/xlink" width="250" zoomAndPan="magnify" viewBox="0 0 187.5 74.999997" height="100" preserveAspectRatio="xMidYMid meet" version="1.0"><defs><g/></defs><g fill="#2b2d42" fill-opacity="1"><g transform="translate(32.234353, 44.980049)"><g><path d="M 4.96875 0.671875 C 4.175781 0.671875 3.4375 0.507812 2.75 0.1875 C 2.0625 -0.125 1.503906 -0.628906 1.078125 -1.328125 C 0.671875 -1.941406 0.382812 -2.601562 0.21875 -3.3125 C 0.0507812 -4.03125 -0.0195312 -4.832031 0 -5.71875 C 0 -6.476562 0.0976562 -7.328125 0.296875 -8.265625 C 0.503906 -9.210938 0.773438 -10.175781 1.109375 -11.15625 C 1.441406 -12.144531 1.8125 -13.078125 2.21875 -13.953125 C 2.625 -14.835938 3.023438 -15.59375 3.421875 -16.21875 C 3.972656 -17.125 4.691406 -18.015625 5.578125 -18.890625 C 6.472656 -19.773438 7.453125 -20.523438 8.515625 -21.140625 C 9.578125 -21.765625 10.632812 -22.132812 11.6875 -22.25 C 12.394531 -22.25 12.945312 -22.097656 13.34375 -21.796875 C 13.738281 -21.503906 14.003906 -21 14.140625 -20.28125 C 14.285156 -19.6875 14.273438 -19.070312 14.109375 -18.4375 C 13.847656 -17.289062 13.390625 -16.222656 12.734375 -15.234375 C 12.078125 -14.242188 11.394531 -13.296875 10.6875 -12.390625 C 10.519531 -12.109375 10.316406 -11.96875 10.078125 -11.96875 C 9.953125 -11.96875 9.867188 -12.003906 9.828125 -12.078125 C 9.753906 -12.242188 9.800781 -12.410156 9.96875 -12.578125 C 10.582031 -13.378906 11.203125 -14.269531 11.828125 -15.25 C 12.460938 -16.226562 12.914062 -17.21875 13.1875 -18.21875 C 13.351562 -18.71875 13.398438 -19.21875 13.328125 -19.71875 C 13.253906 -20.789062 12.773438 -21.328125 11.890625 -21.328125 C 11.796875 -21.328125 11.703125 -21.316406 11.609375 -21.296875 C 11.515625 -21.285156 11.40625 -21.269531 11.28125 -21.25 C 10.664062 -21.082031 10.015625 -20.832031 9.328125 -20.5 C 7.609375 -19.570312 6.164062 -18.34375 5 -16.8125 C 3.832031 -15.289062 2.921875 -13.609375 2.265625 -11.765625 C 1.609375 -9.921875 1.160156 -8.035156 0.921875 -6.109375 C 0.859375 -5.441406 0.875 -4.785156 0.96875 -4.140625 C 1.0625 -3.492188 1.273438 -2.863281 1.609375 -2.25 C 1.960938 -1.5625 2.429688 -1.0625 3.015625 -0.75 C 3.597656 -0.4375 4.269531 -0.269531 5.03125 -0.25 C 5.601562 -0.25 6.210938 -0.367188 6.859375 -0.609375 C 8.691406 -1.222656 10.300781 -2.09375 11.6875 -3.21875 C 13.082031 -4.351562 14.398438 -5.660156 15.640625 -7.140625 C 15.691406 -7.191406 15.753906 -7.25 15.828125 -7.3125 C 15.898438 -7.382812 15.957031 -7.457031 16 -7.53125 C 16.050781 -7.582031 16.109375 -7.644531 16.171875 -7.71875 C 16.242188 -7.789062 16.304688 -7.847656 16.359375 -7.890625 C 16.503906 -7.941406 16.585938 -7.96875 16.609375 -7.96875 C 16.722656 -7.96875 16.816406 -7.929688 16.890625 -7.859375 C 17.054688 -7.734375 17.082031 -7.554688 16.96875 -7.328125 C 16.945312 -7.273438 16.898438 -7.210938 16.828125 -7.140625 C 16.796875 -7.117188 16.769531 -7.085938 16.75 -7.046875 C 16.726562 -7.015625 16.707031 -6.972656 16.6875 -6.921875 C 16.082031 -6.234375 15.472656 -5.554688 14.859375 -4.890625 C 14.242188 -4.222656 13.585938 -3.59375 12.890625 -3 C 12.316406 -2.476562 11.5625 -1.929688 10.625 -1.359375 C 9.6875 -0.785156 8.71875 -0.304688 7.71875 0.078125 C 6.71875 0.472656 5.800781 0.671875 4.96875 0.671875 Z M 4.96875 0.671875 "/></g></g></g><g fill="#2b2d42" fill-opacity="1"><g transform="translate(47.485621, 44.980049)"><g><path d="M 1.5 -1.78125 C 1.070312 -1.78125 0.691406 -1.910156 0.359375 -2.171875 C 0.0234375 -2.441406 -0.1875 -2.8125 -0.28125 -3.28125 C -0.351562 -3.644531 -0.378906 -3.957031 -0.359375 -4.21875 C -0.304688 -4.71875 -0.164062 -5.289062 0.0625 -5.9375 C 0.300781 -6.59375 0.625 -7.207031 1.03125 -7.78125 C 1.4375 -8.351562 1.867188 -8.722656 2.328125 -8.890625 C 2.460938 -8.960938 2.613281 -9 2.78125 -9 C 3 -8.976562 3.128906 -8.859375 3.171875 -8.640625 C 3.222656 -8.359375 3.15625 -8.203125 2.96875 -8.171875 C 2.5625 -8.109375 2.25 -7.941406 2.03125 -7.671875 C 1.820312 -7.410156 1.617188 -7.128906 1.421875 -6.828125 C 1.085938 -6.179688 0.851562 -5.570312 0.71875 -5 C 0.625 -4.738281 0.578125 -4.394531 0.578125 -3.96875 C 0.578125 -3.269531 0.8125 -2.863281 1.28125 -2.75 C 1.570312 -2.75 1.8125 -2.785156 2 -2.859375 C 2.1875 -2.929688 2.363281 -3.109375 2.53125 -3.390625 C 2.769531 -3.773438 2.910156 -4.15625 2.953125 -4.53125 C 3.003906 -4.914062 2.898438 -5.3125 2.640625 -5.71875 C 2.492188 -5.957031 2.375 -6.191406 2.28125 -6.421875 C 2.238281 -6.546875 2.257812 -6.660156 2.34375 -6.765625 C 2.425781 -6.867188 2.523438 -6.9375 2.640625 -6.96875 L 3.75 -6.96875 C 4.414062 -6.96875 5.082031 -7.070312 5.75 -7.28125 C 5.914062 -7.332031 6.082031 -7.394531 6.25 -7.46875 C 6.414062 -7.539062 6.582031 -7.597656 6.75 -7.640625 C 6.914062 -7.691406 7.078125 -7.75 7.234375 -7.8125 C 7.390625 -7.882812 7.550781 -7.945312 7.71875 -8 L 8.28125 -8.140625 C 8.476562 -8.140625 8.632812 -8.046875 8.75 -7.859375 C 8.863281 -7.566406 8.769531 -7.375 8.46875 -7.28125 C 8.132812 -7.164062 7.800781 -7.046875 7.46875 -6.921875 C 7.132812 -6.804688 6.800781 -6.691406 6.46875 -6.578125 C 6.132812 -6.453125 5.789062 -6.347656 5.4375 -6.265625 C 5.09375 -6.179688 4.734375 -6.117188 4.359375 -6.078125 C 4.023438 -6.023438 3.835938 -5.96875 3.796875 -5.90625 C 3.765625 -5.851562 3.773438 -5.671875 3.828125 -5.359375 C 3.960938 -4.671875 3.878906 -3.992188 3.578125 -3.328125 C 3.335938 -2.828125 2.976562 -2.410156 2.5 -2.078125 C 2.164062 -1.878906 1.832031 -1.78125 1.5 -1.78125 Z M 1.5 -1.78125 "/></g></g></g><g fill="#2b2d42" fill-opacity="1"><g transform="translate(54.486198, 44.980049)"><g><path d="M -0.171875 -0.359375 C -0.460938 -0.359375 -0.628906 -0.523438 -0.671875 -0.859375 C -0.703125 -0.929688 -0.71875 -1.085938 -0.71875 -1.328125 C -0.644531 -1.941406 -0.523438 -2.546875 -0.359375 -3.140625 C -0.191406 -3.734375 -0.015625 -4.328125 0.171875 -4.921875 C 0.335938 -5.378906 0.503906 -5.828125 0.671875 -6.265625 C 0.835938 -6.703125 1.003906 -7.148438 1.171875 -7.609375 C 1.335938 -8.054688 1.503906 -8.5 1.671875 -8.9375 C 1.835938 -9.382812 2.003906 -9.832031 2.171875 -10.28125 C 2.296875 -10.445312 2.4375 -10.703125 2.59375 -11.046875 C 2.75 -11.398438 2.921875 -11.578125 3.109375 -11.578125 C 3.109375 -11.578125 3.179688 -11.550781 3.328125 -11.5 C 3.554688 -11.351562 3.613281 -11.148438 3.5 -10.890625 L 3.28125 -10.46875 C 3.113281 -10.007812 2.941406 -9.550781 2.765625 -9.09375 C 2.585938 -8.644531 2.414062 -8.195312 2.25 -7.75 C 2.082031 -7.300781 1.910156 -6.84375 1.734375 -6.375 C 1.554688 -5.90625 1.367188 -5.445312 1.171875 -5 C 1.148438 -4.90625 1.117188 -4.800781 1.078125 -4.6875 C 1.046875 -4.582031 1.007812 -4.472656 0.96875 -4.359375 C 0.875 -4.171875 0.882812 -3.941406 1 -3.671875 C 1.144531 -3.984375 1.40625 -4.425781 1.78125 -5 C 2.164062 -5.570312 2.59375 -6.164062 3.0625 -6.78125 C 3.539062 -7.40625 4.019531 -7.929688 4.5 -8.359375 C 4.976562 -8.785156 5.394531 -9 5.75 -9 C 6.15625 -9 6.414062 -8.832031 6.53125 -8.5 C 6.65625 -8.164062 6.738281 -7.84375 6.78125 -7.53125 C 6.8125 -7.363281 6.832031 -7.207031 6.84375 -7.0625 C 6.851562 -6.925781 6.867188 -6.785156 6.890625 -6.640625 C 6.890625 -6.492188 6.894531 -6.347656 6.90625 -6.203125 C 6.914062 -6.066406 6.9375 -5.925781 6.96875 -5.78125 C 6.988281 -5.375 7.09375 -5.003906 7.28125 -4.671875 C 7.351562 -4.484375 7.5 -4.390625 7.71875 -4.390625 C 7.757812 -4.390625 7.796875 -4.398438 7.828125 -4.421875 C 7.828125 -4.421875 7.832031 -4.421875 7.84375 -4.421875 C 7.851562 -4.421875 7.867188 -4.421875 7.890625 -4.421875 C 8.109375 -4.492188 8.3125 -4.59375 8.5 -4.71875 C 8.6875 -4.851562 8.878906 -5.003906 9.078125 -5.171875 C 9.242188 -5.316406 9.394531 -5.460938 9.53125 -5.609375 C 9.675781 -5.753906 9.832031 -5.910156 10 -6.078125 C 10.144531 -6.210938 10.296875 -6.351562 10.453125 -6.5 C 10.609375 -6.644531 10.769531 -6.785156 10.9375 -6.921875 C 11.125 -7.085938 11.28125 -7.226562 11.40625 -7.34375 C 11.539062 -7.46875 11.632812 -7.554688 11.6875 -7.609375 C 11.726562 -7.648438 11.769531 -7.695312 11.8125 -7.75 C 11.863281 -7.800781 11.90625 -7.835938 11.9375 -7.859375 C 12 -7.929688 12.082031 -7.96875 12.1875 -7.96875 C 12.28125 -7.96875 12.363281 -7.929688 12.4375 -7.859375 C 12.601562 -7.710938 12.648438 -7.546875 12.578125 -7.359375 C 12.503906 -7.171875 12.394531 -7.003906 12.25 -6.859375 C 12.15625 -6.765625 11.96875 -6.59375 11.6875 -6.34375 C 11.414062 -6.09375 11.117188 -5.816406 10.796875 -5.515625 C 10.484375 -5.222656 10.1875 -4.957031 9.90625 -4.71875 C 9.632812 -4.476562 9.453125 -4.3125 9.359375 -4.21875 C 8.929688 -3.8125 8.453125 -3.5625 7.921875 -3.46875 C 7.898438 -3.46875 7.878906 -3.46875 7.859375 -3.46875 C 7.835938 -3.46875 7.8125 -3.46875 7.78125 -3.46875 C 7.738281 -3.4375 7.679688 -3.421875 7.609375 -3.421875 C 7.128906 -3.421875 6.75 -3.671875 6.46875 -4.171875 C 6.25 -4.578125 6.117188 -5.019531 6.078125 -5.5 C 6.046875 -5.6875 6.023438 -5.867188 6.015625 -6.046875 C 6.003906 -6.234375 5.988281 -6.410156 5.96875 -6.578125 C 5.9375 -6.742188 5.910156 -6.914062 5.890625 -7.09375 C 5.867188 -7.269531 5.847656 -7.441406 5.828125 -7.609375 C 5.773438 -7.796875 5.691406 -7.890625 5.578125 -7.890625 C 5.472656 -7.890625 5.390625 -7.851562 5.328125 -7.78125 C 4.390625 -6.945312 3.570312 -6.003906 2.875 -4.953125 C 2.175781 -3.910156 1.550781 -2.832031 1 -1.71875 C 0.945312 -1.625 0.890625 -1.519531 0.828125 -1.40625 C 0.773438 -1.300781 0.722656 -1.191406 0.671875 -1.078125 C 0.628906 -0.953125 0.566406 -0.84375 0.484375 -0.75 C 0.398438 -0.65625 0.296875 -0.5625 0.171875 -0.46875 C 0.078125 -0.394531 -0.0351562 -0.359375 -0.171875 -0.359375 Z M -0.171875 -0.359375 "/></g></g></g><g fill="#2b2d42" fill-opacity="1"><g transform="translate(65.308523, 44.980049)"><g><path d="M 0.640625 2.53125 C 0.191406 2.53125 -0.109375 2.28125 -0.265625 1.78125 C -0.421875 1.28125 -0.5 0.828125 -0.5 0.421875 C -0.5 -0.710938 -0.351562 -1.976562 -0.0625 -3.375 C 0.21875 -4.769531 0.566406 -6.144531 0.984375 -7.5 C 1.398438 -8.851562 1.796875 -10.066406 2.171875 -11.140625 C 2.296875 -11.472656 2.410156 -11.785156 2.515625 -12.078125 C 2.617188 -12.378906 2.734375 -12.6875 2.859375 -13 C 2.953125 -13.257812 2.976562 -13.441406 2.9375 -13.546875 C 2.90625 -13.660156 2.785156 -13.71875 2.578125 -13.71875 L 2.28125 -13.71875 C 2.039062 -13.695312 1.800781 -13.671875 1.5625 -13.640625 C 1.332031 -13.617188 1.097656 -13.582031 0.859375 -13.53125 C 0.617188 -13.507812 0.375 -13.476562 0.125 -13.4375 C -0.125 -13.40625 -0.367188 -13.378906 -0.609375 -13.359375 C -0.753906 -13.335938 -0.898438 -13.3125 -1.046875 -13.28125 C -1.203125 -13.257812 -1.351562 -13.25 -1.5 -13.25 C -1.6875 -13.25 -1.816406 -13.257812 -1.890625 -13.28125 C -2.015625 -13.3125 -2.097656 -13.382812 -2.140625 -13.5 C -2.191406 -13.738281 -2.132812 -13.867188 -1.96875 -13.890625 C -1.875 -13.921875 -1.789062 -13.945312 -1.71875 -13.96875 C -1.644531 -13.988281 -1.570312 -14.007812 -1.5 -14.03125 C -1.40625 -14.0625 -1.316406 -14.082031 -1.234375 -14.09375 C -1.148438 -14.101562 -1.0625 -14.117188 -0.96875 -14.140625 C -0.632812 -14.191406 -0.304688 -14.238281 0.015625 -14.28125 C 0.335938 -14.332031 0.65625 -14.367188 0.96875 -14.390625 C 1.300781 -14.441406 1.617188 -14.484375 1.921875 -14.515625 C 2.234375 -14.554688 2.546875 -14.585938 2.859375 -14.609375 C 3.285156 -14.628906 3.582031 -14.832031 3.75 -15.21875 L 4.71875 -17.359375 C 4.8125 -17.503906 4.894531 -17.644531 4.96875 -17.78125 C 5.039062 -17.925781 5.125 -18.070312 5.21875 -18.21875 C 5.289062 -18.363281 5.367188 -18.503906 5.453125 -18.640625 C 5.535156 -18.785156 5.625 -18.929688 5.71875 -19.078125 C 5.976562 -19.503906 6.226562 -19.71875 6.46875 -19.71875 C 6.601562 -19.71875 6.707031 -19.632812 6.78125 -19.46875 C 6.832031 -19.226562 6.773438 -18.96875 6.609375 -18.6875 C 6.421875 -18.207031 6.210938 -17.726562 5.984375 -17.25 C 5.753906 -16.769531 5.519531 -16.296875 5.28125 -15.828125 C 5.257812 -15.773438 5.234375 -15.710938 5.203125 -15.640625 C 5.179688 -15.566406 5.160156 -15.507812 5.140625 -15.46875 C 5.066406 -15.320312 5.03125 -15.15625 5.03125 -14.96875 C 5.125 -14.945312 5.207031 -14.925781 5.28125 -14.90625 C 5.351562 -14.894531 5.425781 -14.890625 5.5 -14.890625 C 5.59375 -14.890625 5.664062 -14.90625 5.71875 -14.9375 C 5.757812 -14.9375 5.789062 -14.9375 5.8125 -14.9375 C 5.84375 -14.9375 5.867188 -14.9375 5.890625 -14.9375 C 6.390625 -14.976562 6.90625 -15.03125 7.4375 -15.09375 C 7.976562 -15.15625 8.546875 -15.207031 9.140625 -15.25 C 9.734375 -15.300781 10.296875 -15.347656 10.828125 -15.390625 C 11.367188 -15.441406 11.890625 -15.488281 12.390625 -15.53125 L 13.6875 -15.53125 C 13.851562 -15.53125 13.945312 -15.414062 13.96875 -15.1875 C 13.96875 -14.988281 13.894531 -14.867188 13.75 -14.828125 C 13.65625 -14.796875 13.570312 -14.773438 13.5 -14.765625 C 13.425781 -14.753906 13.351562 -14.75 13.28125 -14.75 C 13.21875 -14.726562 13.148438 -14.71875 13.078125 -14.71875 C 13.003906 -14.71875 12.921875 -14.707031 12.828125 -14.6875 L 5.140625 -14 C 4.617188 -13.957031 4.273438 -13.71875 4.109375 -13.28125 C 3.890625 -12.832031 3.628906 -12.1875 3.328125 -11.34375 C 3.035156 -10.5 2.726562 -9.585938 2.40625 -8.609375 C 2.082031 -7.628906 1.789062 -6.695312 1.53125 -5.8125 C 1.269531 -4.9375 1.082031 -4.238281 0.96875 -3.71875 C 0.820312 -3.125 0.707031 -2.535156 0.625 -1.953125 C 0.539062 -1.367188 0.472656 -0.765625 0.421875 -0.140625 C 0.398438 0.117188 0.382812 0.394531 0.375 0.6875 C 0.363281 0.988281 0.488281 1.25 0.75 1.46875 C 1.007812 1.4375 1.25 1.316406 1.46875 1.109375 C 1.5625 0.984375 1.648438 0.867188 1.734375 0.765625 C 1.816406 0.660156 1.90625 0.5625 2 0.46875 C 2.382812 -0.0078125 2.84375 -0.625 3.375 -1.375 C 3.90625 -2.125 4.453125 -2.890625 5.015625 -3.671875 C 5.578125 -4.460938 6.09375 -5.175781 6.5625 -5.8125 C 7.039062 -6.457031 7.410156 -6.910156 7.671875 -7.171875 C 7.722656 -7.242188 7.785156 -7.316406 7.859375 -7.390625 C 7.929688 -7.460938 7.988281 -7.535156 8.03125 -7.609375 C 8.15625 -7.722656 8.300781 -7.816406 8.46875 -7.890625 C 8.488281 -7.890625 8.507812 -7.898438 8.53125 -7.921875 C 8.5625 -7.921875 8.578125 -7.921875 8.578125 -7.921875 C 8.578125 -7.921875 8.585938 -7.921875 8.609375 -7.921875 C 8.628906 -7.921875 8.710938 -7.898438 8.859375 -7.859375 C 9.046875 -7.710938 9.082031 -7.535156 8.96875 -7.328125 C 8.96875 -7.253906 8.929688 -7.179688 8.859375 -7.109375 C 8.503906 -6.679688 8.035156 -6.070312 7.453125 -5.28125 C 6.867188 -4.5 6.328125 -3.765625 5.828125 -3.078125 C 5.222656 -2.265625 4.613281 -1.445312 4 -0.625 C 3.382812 0.195312 2.789062 0.941406 2.21875 1.609375 C 2.050781 1.816406 1.816406 2.019531 1.515625 2.21875 C 1.222656 2.425781 0.929688 2.53125 0.640625 2.53125 Z M 0.640625 2.53125 "/></g></g></g><g fill="#2b2d42" fill-opacity="1"><g transform="translate(72.487689, 44.980049)"><g><path d="M 0.171875 -3.078125 C -0.296875 -3.078125 -0.554688 -3.359375 -0.609375 -3.921875 C -0.609375 -4.453125 -0.492188 -5.015625 -0.265625 -5.609375 C -0.0351562 -6.203125 0.25 -6.769531 0.59375 -7.3125 C 0.9375 -7.863281 1.285156 -8.316406 1.640625 -8.671875 C 1.734375 -8.796875 1.910156 -8.953125 2.171875 -9.140625 C 2.554688 -9.453125 2.953125 -9.609375 3.359375 -9.609375 C 3.710938 -9.609375 4.066406 -9.46875 4.421875 -9.1875 C 4.617188 -9.0625 4.726562 -9 4.75 -9 C 4.820312 -9 4.929688 -9.09375 5.078125 -9.28125 C 5.191406 -9.40625 5.300781 -9.535156 5.40625 -9.671875 C 5.519531 -9.816406 5.625 -9.960938 5.71875 -10.109375 C 5.8125 -10.253906 5.910156 -10.394531 6.015625 -10.53125 C 6.117188 -10.675781 6.222656 -10.820312 6.328125 -10.96875 C 6.367188 -11.007812 6.410156 -11.066406 6.453125 -11.140625 C 6.503906 -11.210938 6.554688 -11.285156 6.609375 -11.359375 C 6.648438 -11.410156 6.6875 -11.46875 6.71875 -11.53125 C 6.757812 -11.601562 6.804688 -11.664062 6.859375 -11.71875 C 7.023438 -11.882812 7.164062 -11.96875 7.28125 -11.96875 C 7.28125 -11.96875 7.351562 -11.941406 7.5 -11.890625 C 7.738281 -11.753906 7.796875 -11.519531 7.671875 -11.1875 C 7.648438 -11.082031 7.617188 -10.992188 7.578125 -10.921875 C 7.546875 -10.859375 7.507812 -10.789062 7.46875 -10.71875 C 7.375 -10.550781 7.289062 -10.382812 7.21875 -10.21875 C 7 -9.757812 6.742188 -9.195312 6.453125 -8.53125 C 6.171875 -7.863281 5.925781 -7.191406 5.71875 -6.515625 C 5.519531 -5.835938 5.421875 -5.238281 5.421875 -4.71875 C 5.421875 -4.5 5.492188 -4.390625 5.640625 -4.390625 C 5.710938 -4.390625 5.757812 -4.398438 5.78125 -4.421875 C 5.945312 -4.492188 6.109375 -4.566406 6.265625 -4.640625 C 6.421875 -4.710938 6.582031 -4.796875 6.75 -4.890625 C 6.96875 -5.035156 7.1875 -5.1875 7.40625 -5.34375 C 7.632812 -5.5 7.859375 -5.671875 8.078125 -5.859375 C 8.242188 -5.972656 8.394531 -6.101562 8.53125 -6.25 C 8.675781 -6.394531 8.820312 -6.523438 8.96875 -6.640625 C 9.226562 -6.898438 9.515625 -7.148438 9.828125 -7.390625 C 9.867188 -7.441406 9.921875 -7.488281 9.984375 -7.53125 C 10.046875 -7.582031 10.097656 -7.628906 10.140625 -7.671875 C 10.191406 -7.722656 10.289062 -7.796875 10.4375 -7.890625 C 10.476562 -7.910156 10.507812 -7.925781 10.53125 -7.9375 C 10.5625 -7.957031 10.585938 -7.96875 10.609375 -7.96875 C 10.703125 -7.96875 10.785156 -7.929688 10.859375 -7.859375 C 11.023438 -7.765625 11.070312 -7.585938 11 -7.328125 C 10.976562 -7.296875 10.96875 -7.273438 10.96875 -7.265625 C 10.96875 -7.253906 10.957031 -7.238281 10.9375 -7.21875 C 10.90625 -7.1875 10.878906 -7.160156 10.859375 -7.140625 C 10.835938 -7.117188 10.8125 -7.097656 10.78125 -7.078125 C 10.445312 -6.742188 9.96875 -6.296875 9.34375 -5.734375 C 8.726562 -5.171875 8.09375 -4.660156 7.4375 -4.203125 C 6.789062 -3.753906 6.21875 -3.484375 5.71875 -3.390625 C 5.664062 -3.367188 5.554688 -3.359375 5.390625 -3.359375 C 4.796875 -3.359375 4.5 -3.703125 4.5 -4.390625 C 4.5 -4.867188 4.546875 -5.34375 4.640625 -5.8125 C 4.734375 -6.289062 4.84375 -6.769531 4.96875 -7.25 C 4.707031 -7.132812 4.523438 -7.015625 4.421875 -6.890625 C 4.378906 -6.816406 4.320312 -6.742188 4.25 -6.671875 C 4.175781 -6.609375 4.117188 -6.550781 4.078125 -6.5 C 3.671875 -6.019531 3.265625 -5.5625 2.859375 -5.125 C 2.453125 -4.6875 2.023438 -4.265625 1.578125 -3.859375 C 1.410156 -3.710938 1.191406 -3.546875 0.921875 -3.359375 C 0.660156 -3.171875 0.410156 -3.078125 0.171875 -3.078125 Z M 0.5 -4.359375 C 0.644531 -4.359375 0.753906 -4.394531 0.828125 -4.46875 C 1.390625 -4.9375 1.921875 -5.457031 2.421875 -6.03125 C 2.921875 -6.601562 3.410156 -7.1875 3.890625 -7.78125 C 3.910156 -7.8125 3.929688 -7.835938 3.953125 -7.859375 C 3.984375 -7.878906 4.007812 -7.914062 4.03125 -7.96875 C 4.101562 -8.207031 4.054688 -8.375 3.890625 -8.46875 C 3.703125 -8.582031 3.535156 -8.640625 3.390625 -8.640625 C 3.273438 -8.640625 3.125 -8.59375 2.9375 -8.5 C 2.757812 -8.40625 2.625 -8.3125 2.53125 -8.21875 C 1.414062 -7.238281 0.710938 -5.972656 0.421875 -4.421875 L 0.46875 -4.390625 C 0.488281 -4.390625 0.5 -4.378906 0.5 -4.359375 Z M 0.5 -4.359375 "/></g></g></g><g fill="#2b2d42" fill-opacity="1"><g transform="translate(81.738456, 44.980049)"><g><path d="M 2.25 -1.46875 C 1.25 -1.46875 0.550781 -1.734375 0.15625 -2.265625 C -0.226562 -2.804688 -0.398438 -3.457031 -0.359375 -4.21875 C -0.359375 -4.332031 -0.351562 -4.429688 -0.34375 -4.515625 C -0.332031 -4.597656 -0.3125 -4.6875 -0.28125 -4.78125 C -0.0195312 -5.78125 0.351562 -6.695312 0.84375 -7.53125 C 1.332031 -8.363281 1.96875 -9.128906 2.75 -9.828125 C 3.175781 -10.179688 3.617188 -10.359375 4.078125 -10.359375 C 4.410156 -10.359375 4.75 -10.257812 5.09375 -10.0625 C 5.4375 -9.875 5.628906 -9.59375 5.671875 -9.21875 C 5.816406 -8.3125 5.582031 -7.476562 4.96875 -6.71875 C 4.914062 -6.644531 4.816406 -6.582031 4.671875 -6.53125 C 4.648438 -6.53125 4.640625 -6.53125 4.640625 -6.53125 C 4.640625 -6.507812 4.628906 -6.5 4.609375 -6.5 C 4.441406 -6.5 4.359375 -6.570312 4.359375 -6.71875 C 4.335938 -6.832031 4.359375 -6.953125 4.421875 -7.078125 C 4.453125 -7.117188 4.476562 -7.171875 4.5 -7.234375 C 4.519531 -7.296875 4.546875 -7.347656 4.578125 -7.390625 C 4.691406 -7.578125 4.773438 -7.785156 4.828125 -8.015625 C 4.890625 -8.242188 4.898438 -8.476562 4.859375 -8.71875 C 4.804688 -9.195312 4.578125 -9.4375 4.171875 -9.4375 C 3.984375 -9.4375 3.800781 -9.378906 3.625 -9.265625 C 3.445312 -9.160156 3.296875 -9.046875 3.171875 -8.921875 C 1.910156 -7.804688 1.066406 -6.390625 0.640625 -4.671875 C 0.234375 -3.128906 0.769531 -2.359375 2.25 -2.359375 C 2.34375 -2.359375 2.414062 -2.367188 2.46875 -2.390625 C 2.507812 -2.390625 2.546875 -2.390625 2.578125 -2.390625 C 2.617188 -2.390625 2.648438 -2.390625 2.671875 -2.390625 C 3.503906 -2.515625 4.335938 -2.796875 5.171875 -3.234375 C 6.003906 -3.671875 6.753906 -4.117188 7.421875 -4.578125 C 7.734375 -4.804688 8.035156 -5.046875 8.328125 -5.296875 C 8.628906 -5.546875 8.9375 -5.789062 9.25 -6.03125 C 9.5625 -6.269531 9.863281 -6.507812 10.15625 -6.75 C 10.457031 -6.988281 10.765625 -7.226562 11.078125 -7.46875 C 11.117188 -7.507812 11.171875 -7.550781 11.234375 -7.59375 C 11.296875 -7.644531 11.347656 -7.695312 11.390625 -7.75 C 11.441406 -7.800781 11.492188 -7.84375 11.546875 -7.875 C 11.609375 -7.90625 11.664062 -7.9375 11.71875 -7.96875 C 11.863281 -8.007812 11.9375 -8.03125 11.9375 -8.03125 C 12.070312 -8.03125 12.175781 -7.972656 12.25 -7.859375 C 12.375 -7.710938 12.375 -7.535156 12.25 -7.328125 C 12.226562 -7.273438 12.179688 -7.210938 12.109375 -7.140625 C 12.085938 -7.117188 12.054688 -7.085938 12.015625 -7.046875 C 11.984375 -7.015625 11.957031 -6.988281 11.9375 -6.96875 C 11.144531 -6.300781 10.347656 -5.644531 9.546875 -5 C 8.753906 -4.351562 7.914062 -3.742188 7.03125 -3.171875 C 6.289062 -2.703125 5.550781 -2.320312 4.8125 -2.03125 C 4.082031 -1.75 3.285156 -1.5625 2.421875 -1.46875 Z M 2.25 -1.46875 "/></g></g></g><g fill="#2b2d42" fill-opacity="1"><g transform="translate(92.310765, 44.980049)"><g><path d="M 0.640625 2.53125 C 0.191406 2.53125 -0.109375 2.28125 -0.265625 1.78125 C -0.421875 1.28125 -0.5 0.828125 -0.5 0.421875 C -0.5 -0.710938 -0.351562 -1.976562 -0.0625 -3.375 C 0.21875 -4.769531 0.566406 -6.144531 0.984375 -7.5 C 1.398438 -8.851562 1.796875 -10.066406 2.171875 -11.140625 C 2.296875 -11.472656 2.410156 -11.785156 2.515625 -12.078125 C 2.617188 -12.378906 2.734375 -12.6875 2.859375 -13 C 2.953125 -13.257812 2.976562 -13.441406 2.9375 -13.546875 C 2.90625 -13.660156 2.785156 -13.71875 2.578125 -13.71875 L 2.28125 -13.71875 C 2.039062 -13.695312 1.800781 -13.671875 1.5625 -13.640625 C 1.332031 -13.617188 1.097656 -13.582031 0.859375 -13.53125 C 0.617188 -13.507812 0.375 -13.476562 0.125 -13.4375 C -0.125 -13.40625 -0.367188 -13.378906 -0.609375 -13.359375 C -0.753906 -13.335938 -0.898438 -13.3125 -1.046875 -13.28125 C -1.203125 -13.257812 -1.351562 -13.25 -1.5 -13.25 C -1.6875 -13.25 -1.816406 -13.257812 -1.890625 -13.28125 C -2.015625 -13.3125 -2.097656 -13.382812 -2.140625 -13.5 C -2.191406 -13.738281 -2.132812 -13.867188 -1.96875 -13.890625 C -1.875 -13.921875 -1.789062 -13.945312 -1.71875 -13.96875 C -1.644531 -13.988281 -1.570312 -14.007812 -1.5 -14.03125 C -1.40625 -14.0625 -1.316406 -14.082031 -1.234375 -14.09375 C -1.148438 -14.101562 -1.0625 -14.117188 -0.96875 -14.140625 C -0.632812 -14.191406 -0.304688 -14.238281 0.015625 -14.28125 C 0.335938 -14.332031 0.65625 -14.367188 0.96875 -14.390625 C 1.300781 -14.441406 1.617188 -14.484375 1.921875 -14.515625 C 2.234375 -14.554688 2.546875 -14.585938 2.859375 -14.609375 C 3.285156 -14.628906 3.582031 -14.832031 3.75 -15.21875 L 4.71875 -17.359375 C 4.8125 -17.503906 4.894531 -17.644531 4.96875 -17.78125 C 5.039062 -17.925781 5.125 -18.070312 5.21875 -18.21875 C 5.289062 -18.363281 5.367188 -18.503906 5.453125 -18.640625 C 5.535156 -18.785156 5.625 -18.929688 5.71875 -19.078125 C 5.976562 -19.503906 6.226562 -19.71875 6.46875 -19.71875 C 6.601562 -19.71875 6.707031 -19.632812 6.78125 -19.46875 C 6.832031 -19.226562 6.773438 -18.96875 6.609375 -18.6875 C 6.421875 -18.207031 6.210938 -17.726562 5.984375 -17.25 C 5.753906 -16.769531 5.519531 -16.296875 5.28125 -15.828125 C 5.257812 -15.773438 5.234375 -15.710938 5.203125 -15.640625 C 5.179688 -15.566406 5.160156 -15.507812 5.140625 -15.46875 C 5.066406 -15.320312 5.03125 -15.15625 5.03125 -14.96875 C 5.125 -14.945312 5.207031 -14.925781 5.28125 -14.90625 C 5.351562 -14.894531 5.425781 -14.890625 5.5 -14.890625 C 5.59375 -14.890625 5.664062 -14.90625 5.71875 -14.9375 C 5.757812 -14.9375 5.789062 -14.9375 5.8125 -14.9375 C 5.84375 -14.9375 5.867188 -14.9375 5.890625 -14.9375 C 6.390625 -14.976562 6.90625 -15.03125 7.4375 -15.09375 C 7.976562 -15.15625 8.546875 -15.207031 9.140625 -15.25 C 9.734375 -15.300781 10.296875 -15.347656 10.828125 -15.390625 C 11.367188 -15.441406 11.890625 -15.488281 12.390625 -15.53125 L 13.6875 -15.53125 C 13.851562 -15.53125 13.945312 -15.414062 13.96875 -15.1875 C 13.96875 -14.988281 13.894531 -14.867188 13.75 -14.828125 C 13.65625 -14.796875 13.570312 -14.773438 13.5 -14.765625 C 13.425781 -14.753906 13.351562 -14.75 13.28125 -14.75 C 13.21875 -14.726562 13.148438 -14.71875 13.078125 -14.71875 C 13.003906 -14.71875 12.921875 -14.707031 12.828125 -14.6875 L 5.140625 -14 C 4.617188 -13.957031 4.273438 -13.71875 4.109375 -13.28125 C 3.890625 -12.832031 3.628906 -12.1875 3.328125 -11.34375 C 3.035156 -10.5 2.726562 -9.585938 2.40625 -8.609375 C 2.082031 -7.628906 1.789062 -6.695312 1.53125 -5.8125 C 1.269531 -4.9375 1.082031 -4.238281 0.96875 -3.71875 C 0.820312 -3.125 0.707031 -2.535156 0.625 -1.953125 C 0.539062 -1.367188 0.472656 -0.765625 0.421875 -0.140625 C 0.398438 0.117188 0.382812 0.394531 0.375 0.6875 C 0.363281 0.988281 0.488281 1.25 0.75 1.46875 C 1.007812 1.4375 1.25 1.316406 1.46875 1.109375 C 1.5625 0.984375 1.648438 0.867188 1.734375 0.765625 C 1.816406 0.660156 1.90625 0.5625 2 0.46875 C 2.382812 -0.0078125 2.84375 -0.625 3.375 -1.375 C 3.90625 -2.125 4.453125 -2.890625 5.015625 -3.671875 C 5.578125 -4.460938 6.09375 -5.175781 6.5625 -5.8125 C 7.039062 -6.457031 7.410156 -6.910156 7.671875 -7.171875 C 7.722656 -7.242188 7.785156 -7.316406 7.859375 -7.390625 C 7.929688 -7.460938 7.988281 -7.535156 8.03125 -7.609375 C 8.15625 -7.722656 8.300781 -7.816406 8.46875 -7.890625 C 8.488281 -7.890625 8.507812 -7.898438 8.53125 -7.921875 C 8.5625 -7.921875 8.578125 -7.921875 8.578125 -7.921875 C 8.578125 -7.921875 8.585938 -7.921875 8.609375 -7.921875 C 8.628906 -7.921875 8.710938 -7.898438 8.859375 -7.859375 C 9.046875 -7.710938 9.082031 -7.535156 8.96875 -7.328125 C 8.96875 -7.253906 8.929688 -7.179688 8.859375 -7.109375 C 8.503906 -6.679688 8.035156 -6.070312 7.453125 -5.28125 C 6.867188 -4.5 6.328125 -3.765625 5.828125 -3.078125 C 5.222656 -2.265625 4.613281 -1.445312 4 -0.625 C 3.382812 0.195312 2.789062 0.941406 2.21875 1.609375 C 2.050781 1.816406 1.816406 2.019531 1.515625 2.21875 C 1.222656 2.425781 0.929688 2.53125 0.640625 2.53125 Z M 0.640625 2.53125 "/></g></g></g><g fill="#2b2d42" fill-opacity="1"><g transform="translate(99.489931, 44.980049)"><g/></g></g><g fill="#2b2d42" fill-opacity="1"><g transform="translate(113.06249, 44.980049)"><g><path d="M 0.609375 3.96875 C 0.316406 3.96875 0.140625 3.8125 0.078125 3.5 C 0.046875 3.40625 0.0234375 3.316406 0.015625 3.234375 C 0.00390625 3.148438 0 3.0625 0 2.96875 C 0 2.875 0 2.789062 0 2.71875 C 0 2.644531 0 2.5625 0 2.46875 C -0.0195312 1.632812 0.03125 0.828125 0.15625 0.046875 C 0.289062 -0.722656 0.441406 -1.5 0.609375 -2.28125 C 0.941406 -3.90625 1.351562 -5.488281 1.84375 -7.03125 C 2.332031 -8.582031 2.828125 -10.144531 3.328125 -11.71875 L 5.578125 -18.859375 C 5.617188 -18.953125 5.65625 -19.050781 5.6875 -19.15625 C 5.726562 -19.269531 5.757812 -19.375 5.78125 -19.46875 C 5.851562 -19.65625 5.953125 -19.84375 6.078125 -20.03125 C 6.210938 -20.195312 6.351562 -20.28125 6.5 -20.28125 C 6.59375 -20.28125 6.648438 -20.269531 6.671875 -20.25 C 6.910156 -20.101562 6.972656 -19.898438 6.859375 -19.640625 C 6.710938 -19.285156 6.578125 -18.925781 6.453125 -18.5625 C 6.335938 -18.207031 6.234375 -17.851562 6.140625 -17.5 C 6.046875 -17.125 5.9375 -16.753906 5.8125 -16.390625 C 5.695312 -16.035156 5.582031 -15.664062 5.46875 -15.28125 C 5.226562 -14.5 4.984375 -13.710938 4.734375 -12.921875 C 4.484375 -12.140625 4.226562 -11.367188 3.96875 -10.609375 C 3.707031 -9.847656 3.453125 -9.070312 3.203125 -8.28125 C 2.953125 -7.5 2.707031 -6.710938 2.46875 -5.921875 C 1.800781 -3.828125 1.320312 -1.628906 1.03125 0.671875 C 1.007812 0.796875 0.992188 0.90625 0.984375 1 C 0.972656 1.09375 0.96875 1.175781 0.96875 1.25 C 0.96875 1.269531 0.96875 1.300781 0.96875 1.34375 C 0.96875 1.394531 0.96875 1.445312 0.96875 1.5 C 0.9375 1.570312 0.984375 1.609375 1.109375 1.609375 C 1.222656 1.609375 1.296875 1.570312 1.328125 1.5 C 1.367188 1.40625 1.398438 1.347656 1.421875 1.328125 C 1.472656 1.222656 1.515625 1.128906 1.546875 1.046875 C 1.585938 0.960938 1.628906 0.875 1.671875 0.78125 C 1.722656 0.6875 1.765625 0.597656 1.796875 0.515625 C 1.835938 0.429688 1.867188 0.34375 1.890625 0.25 C 2.078125 -0.195312 2.28125 -0.640625 2.5 -1.078125 C 2.71875 -1.523438 2.921875 -1.972656 3.109375 -2.421875 C 3.296875 -2.878906 3.492188 -3.320312 3.703125 -3.75 C 3.921875 -4.175781 4.128906 -4.617188 4.328125 -5.078125 C 4.992188 -6.472656 5.769531 -7.953125 6.65625 -9.515625 C 7.550781 -11.078125 8.550781 -12.550781 9.65625 -13.9375 C 10.769531 -15.332031 11.96875 -16.460938 13.25 -17.328125 C 13.300781 -17.347656 13.351562 -17.367188 13.40625 -17.390625 C 13.46875 -17.421875 13.523438 -17.445312 13.578125 -17.46875 C 13.617188 -17.488281 13.671875 -17.503906 13.734375 -17.515625 C 13.796875 -17.523438 13.847656 -17.546875 13.890625 -17.578125 C 14.148438 -17.578125 14.367188 -17.523438 14.546875 -17.421875 C 14.734375 -17.328125 14.863281 -17.140625 14.9375 -16.859375 C 14.976562 -16.597656 14.992188 -16.320312 14.984375 -16.03125 C 14.972656 -15.75 14.941406 -15.476562 14.890625 -15.21875 C 14.773438 -14.59375 14.628906 -13.972656 14.453125 -13.359375 C 14.273438 -12.742188 14.085938 -12.125 13.890625 -11.5 C 13.628906 -10.71875 13.382812 -9.9375 13.15625 -9.15625 C 12.9375 -8.382812 12.726562 -7.59375 12.53125 -6.78125 C 12.4375 -6.40625 12.351562 -6.023438 12.28125 -5.640625 C 12.21875 -5.265625 12.1875 -4.875 12.1875 -4.46875 C 12.1875 -4.269531 12.234375 -4.140625 12.328125 -4.078125 C 12.347656 -4.046875 12.394531 -4.03125 12.46875 -4.03125 C 12.582031 -4.03125 12.675781 -4.09375 12.75 -4.21875 C 12.9375 -4.425781 13.125 -4.632812 13.3125 -4.84375 C 13.507812 -5.0625 13.691406 -5.289062 13.859375 -5.53125 C 14.304688 -6.125 14.742188 -6.703125 15.171875 -7.265625 C 15.609375 -7.828125 16.078125 -8.378906 16.578125 -8.921875 C 16.953125 -9.398438 17.414062 -9.878906 17.96875 -10.359375 C 18.28125 -10.640625 18.625 -10.796875 19 -10.828125 C 19.570312 -10.828125 19.957031 -10.644531 20.15625 -10.28125 C 20.363281 -9.925781 20.515625 -9.507812 20.609375 -9.03125 L 21.03125 -5.890625 C 21.101562 -5.554688 21.191406 -5.15625 21.296875 -4.6875 C 21.410156 -4.226562 21.570312 -3.828125 21.78125 -3.484375 C 22 -3.140625 22.300781 -2.96875 22.6875 -2.96875 C 23.019531 -2.96875 23.375 -3.117188 23.75 -3.421875 C 23.84375 -3.492188 23.984375 -3.632812 24.171875 -3.84375 C 24.367188 -4.0625 24.597656 -4.363281 24.859375 -4.75 C 25.117188 -5.132812 25.425781 -5.566406 25.78125 -6.046875 C 26.144531 -6.535156 26.550781 -7.078125 27 -7.671875 C 27.125 -7.796875 27.222656 -7.867188 27.296875 -7.890625 C 27.316406 -7.910156 27.375 -7.921875 27.46875 -7.921875 C 27.582031 -7.921875 27.664062 -7.898438 27.71875 -7.859375 C 27.863281 -7.785156 27.921875 -7.664062 27.890625 -7.5 C 27.828125 -7.28125 27.609375 -6.910156 27.234375 -6.390625 C 26.867188 -5.867188 26.445312 -5.3125 25.96875 -4.71875 C 25.488281 -4.125 25.035156 -3.597656 24.609375 -3.140625 C 24.179688 -2.691406 23.875 -2.40625 23.6875 -2.28125 C 23.226562 -2.09375 22.867188 -2 22.609375 -2 C 22.085938 -2 21.625 -2.265625 21.21875 -2.796875 C 20.8125 -3.335938 20.550781 -3.859375 20.4375 -4.359375 C 20.382812 -4.597656 20.335938 -4.820312 20.296875 -5.03125 C 20.265625 -5.25 20.226562 -5.476562 20.1875 -5.71875 C 20.15625 -5.925781 20.117188 -6.132812 20.078125 -6.34375 C 20.046875 -6.5625 20.007812 -6.78125 19.96875 -7 C 19.945312 -7.164062 19.921875 -7.328125 19.890625 -7.484375 C 19.867188 -7.640625 19.847656 -7.800781 19.828125 -7.96875 C 19.796875 -8.101562 19.769531 -8.242188 19.75 -8.390625 C 19.726562 -8.535156 19.707031 -8.691406 19.6875 -8.859375 C 19.632812 -9.023438 19.570312 -9.234375 19.5 -9.484375 C 19.425781 -9.734375 19.285156 -9.859375 19.078125 -9.859375 C 18.984375 -9.859375 18.835938 -9.800781 18.640625 -9.6875 C 18.472656 -9.582031 18.304688 -9.445312 18.140625 -9.28125 C 18.003906 -9.113281 17.851562 -8.960938 17.6875 -8.828125 C 16.6875 -7.722656 15.753906 -6.566406 14.890625 -5.359375 C 14.722656 -5.117188 14.535156 -4.878906 14.328125 -4.640625 C 14.128906 -4.398438 13.9375 -4.148438 13.75 -3.890625 C 13.4375 -3.515625 13.113281 -3.226562 12.78125 -3.03125 C 12.570312 -2.894531 12.359375 -2.828125 12.140625 -2.828125 C 11.691406 -2.828125 11.421875 -3.125 11.328125 -3.71875 C 11.273438 -3.90625 11.257812 -4.046875 11.28125 -4.140625 C 11.28125 -4.328125 11.269531 -4.457031 11.25 -4.53125 C 11.300781 -5.15625 11.378906 -5.742188 11.484375 -6.296875 C 11.585938 -6.859375 11.710938 -7.414062 11.859375 -7.96875 C 12.078125 -8.726562 12.300781 -9.492188 12.53125 -10.265625 C 12.769531 -11.046875 13.007812 -11.816406 13.25 -12.578125 C 13.394531 -13.046875 13.53125 -13.523438 13.65625 -14.015625 C 13.789062 -14.503906 13.894531 -15 13.96875 -15.5 C 14.007812 -15.644531 14.03125 -15.773438 14.03125 -15.890625 C 14.03125 -15.960938 14.03125 -16.035156 14.03125 -16.109375 C 14.03125 -16.179688 14.03125 -16.253906 14.03125 -16.328125 C 14.03125 -16.421875 13.972656 -16.46875 13.859375 -16.46875 L 13.78125 -16.46875 C 13.738281 -16.445312 13.6875 -16.421875 13.625 -16.390625 C 13.5625 -16.367188 13.507812 -16.347656 13.46875 -16.328125 C 13.414062 -16.296875 13.363281 -16.265625 13.3125 -16.234375 C 13.269531 -16.203125 13.226562 -16.171875 13.1875 -16.140625 C 12.1875 -15.378906 11.222656 -14.421875 10.296875 -13.265625 C 9.378906 -12.109375 8.539062 -10.894531 7.78125 -9.625 C 7.019531 -8.351562 6.367188 -7.144531 5.828125 -6 C 5.585938 -5.5 5.351562 -5 5.125 -4.5 C 4.894531 -4 4.660156 -3.5 4.421875 -3 C 4.191406 -2.476562 3.957031 -1.96875 3.71875 -1.46875 C 3.476562 -0.96875 3.238281 -0.453125 3 0.078125 C 2.90625 0.304688 2.800781 0.53125 2.6875 0.75 C 2.582031 0.96875 2.484375 1.191406 2.390625 1.421875 C 2.179688 1.878906 1.957031 2.332031 1.71875 2.78125 C 1.550781 3.144531 1.335938 3.46875 1.078125 3.75 C 0.929688 3.894531 0.773438 3.96875 0.609375 3.96875 Z M 0.609375 3.96875 "/></g></g></g><g fill="#2b2d42" fill-opacity="1"><g transform="translate(139.171796, 44.980049)"><g><path d="M 1.671875 -1.5 C 0.703125 -1.5 0.0976562 -1.941406 -0.140625 -2.828125 C -0.210938 -3.015625 -0.269531 -3.210938 -0.3125 -3.421875 C -0.363281 -3.640625 -0.378906 -3.84375 -0.359375 -4.03125 C -0.378906 -4.34375 -0.359375 -4.628906 -0.296875 -4.890625 C -0.242188 -5.148438 -0.179688 -5.410156 -0.109375 -5.671875 C 0.109375 -6.242188 0.398438 -6.859375 0.765625 -7.515625 C 1.140625 -8.171875 1.582031 -8.75 2.09375 -9.25 C 2.601562 -9.75 3.164062 -10.046875 3.78125 -10.140625 C 3.851562 -10.140625 3.898438 -10.15625 3.921875 -10.1875 C 3.953125 -10.1875 3.976562 -10.1875 4 -10.1875 C 4.019531 -10.1875 4.046875 -10.1875 4.078125 -10.1875 C 4.429688 -10.1875 4.707031 -10.066406 4.90625 -9.828125 C 5.113281 -9.585938 5.191406 -9.265625 5.140625 -8.859375 C 5.046875 -8.285156 4.765625 -7.691406 4.296875 -7.078125 C 3.835938 -6.472656 3.296875 -5.960938 2.671875 -5.546875 C 2.054688 -5.128906 1.460938 -4.890625 0.890625 -4.828125 C 0.722656 -4.773438 0.628906 -4.664062 0.609375 -4.5 C 0.515625 -4.113281 0.550781 -3.695312 0.71875 -3.25 C 0.789062 -2.84375 0.925781 -2.601562 1.125 -2.53125 C 1.320312 -2.457031 1.585938 -2.421875 1.921875 -2.421875 C 2.640625 -2.566406 3.375 -2.882812 4.125 -3.375 C 4.875 -3.863281 5.507812 -4.347656 6.03125 -4.828125 C 6.25 -5.015625 6.460938 -5.210938 6.671875 -5.421875 C 6.890625 -5.640625 7.109375 -5.84375 7.328125 -6.03125 C 7.515625 -6.226562 7.710938 -6.425781 7.921875 -6.625 C 8.140625 -6.820312 8.359375 -7.019531 8.578125 -7.21875 C 8.617188 -7.257812 8.675781 -7.3125 8.75 -7.375 C 8.820312 -7.4375 8.878906 -7.488281 8.921875 -7.53125 C 8.972656 -7.582031 9.03125 -7.632812 9.09375 -7.6875 C 9.15625 -7.75 9.207031 -7.804688 9.25 -7.859375 C 9.375 -7.929688 9.46875 -7.96875 9.53125 -7.96875 C 9.632812 -7.96875 9.71875 -7.929688 9.78125 -7.859375 C 9.976562 -7.691406 10.015625 -7.515625 9.890625 -7.328125 C 9.867188 -7.253906 9.773438 -7.132812 9.609375 -6.96875 C 9.179688 -6.507812 8.644531 -5.96875 8 -5.34375 C 7.351562 -4.726562 6.660156 -4.128906 5.921875 -3.546875 C 5.191406 -2.960938 4.457031 -2.472656 3.71875 -2.078125 C 2.976562 -1.691406 2.296875 -1.5 1.671875 -1.5 Z M 1.359375 -5.890625 C 1.671875 -6.054688 2.046875 -6.304688 2.484375 -6.640625 C 2.921875 -6.972656 3.3125 -7.335938 3.65625 -7.734375 C 4 -8.128906 4.171875 -8.515625 4.171875 -8.890625 C 4.148438 -9.128906 4.046875 -9.226562 3.859375 -9.1875 C 3.472656 -9.132812 3.085938 -8.925781 2.703125 -8.5625 C 2.328125 -8.207031 1.992188 -7.800781 1.703125 -7.34375 C 1.421875 -6.894531 1.210938 -6.484375 1.078125 -6.109375 C 1.078125 -5.984375 1.097656 -5.921875 1.140625 -5.921875 C 1.265625 -5.878906 1.335938 -5.867188 1.359375 -5.890625 Z M 1.359375 -5.890625 "/></g></g></g><g fill="#2b2d42" fill-opacity="1"><g transform="translate(147.315325, 44.980049)"><g><path d="M 2.109375 -4.75 C 1.941406 -4.75 1.867188 -4.859375 1.890625 -5.078125 L 2 -5.46875 C 2.519531 -6.46875 2.941406 -7.546875 3.265625 -8.703125 C 3.585938 -9.859375 3.867188 -10.992188 4.109375 -12.109375 C 4.222656 -12.609375 4.351562 -13.085938 4.5 -13.546875 C 4.644531 -14.015625 4.800781 -14.488281 4.96875 -14.96875 L 5.171875 -15.46875 C 5.273438 -15.78125 5.492188 -15.9375 5.828125 -15.9375 C 5.960938 -15.832031 6.023438 -15.722656 6.015625 -15.609375 C 6.003906 -15.492188 5.988281 -15.410156 5.96875 -15.359375 C 5.914062 -15.171875 5.859375 -14.976562 5.796875 -14.78125 C 5.742188 -14.59375 5.691406 -14.40625 5.640625 -14.21875 C 5.597656 -14.03125 5.539062 -13.828125 5.46875 -13.609375 C 5.394531 -13.390625 5.320312 -13.1875 5.25 -13 C 5.0625 -12.457031 4.875 -11.90625 4.6875 -11.34375 C 4.507812 -10.78125 4.363281 -10.226562 4.25 -9.6875 C 4.132812 -9.132812 4.003906 -8.578125 3.859375 -8.015625 C 3.710938 -7.453125 3.566406 -6.890625 3.421875 -6.328125 C 3.378906 -6.128906 3.347656 -5.992188 3.328125 -5.921875 C 3.296875 -5.878906 3.273438 -5.820312 3.265625 -5.75 C 3.253906 -5.675781 3.222656 -5.59375 3.171875 -5.5 C 3.148438 -5.257812 2.984375 -5.140625 2.671875 -5.140625 L 2.640625 -5.171875 C 2.617188 -5.203125 2.601562 -5.21875 2.59375 -5.21875 C 2.582031 -5.21875 2.578125 -5.21875 2.578125 -5.21875 C 2.597656 -5.21875 2.546875 -5.109375 2.421875 -4.890625 C 2.328125 -4.796875 2.222656 -4.75 2.109375 -4.75 Z M 1.78125 -1.859375 C 1.539062 -1.929688 1.421875 -2.035156 1.421875 -2.171875 C 1.453125 -2.242188 1.46875 -2.316406 1.46875 -2.390625 C 1.46875 -2.441406 1.488281 -2.488281 1.53125 -2.53125 C 1.5625 -2.582031 1.601562 -2.648438 1.65625 -2.734375 C 1.71875 -2.816406 1.804688 -2.867188 1.921875 -2.890625 L 2.03125 -2.890625 C 2.195312 -2.890625 2.296875 -2.851562 2.328125 -2.78125 C 2.421875 -2.613281 2.421875 -2.410156 2.328125 -2.171875 C 2.222656 -2.003906 2.039062 -1.898438 1.78125 -1.859375 Z M 1.78125 -1.859375 "/></g></g></g></svg>