<svg xmlns="http://www.w3.org/2000/svg" xmlns:xlink="http://www.w3.org/1999/xlink" width="100" zoomAndPan="magnify" viewBox="0 0 75 74.999997" height="100" preserveAspectRatio="xMidYMid meet" version="1.0"><path fill="#eba7ae" d="M 37.492188 0 C 16.734375 0 -0.00390625 16.90625 -0.00390625 37.496094 C -0.00390625 58.253906 16.902344 74.992188 37.492188 74.992188 C 58.25 74.992188 74.992188 58.085938 74.992188 37.496094 C 74.992188 16.90625 58.25 0 37.492188 0 Z M 60.761719 55.574219 C 59.757812 58.921875 55.238281 63.777344 51.054688 63.777344 L 50.71875 63.609375 C 44.523438 63.277344 35.988281 57.417969 28.117188 47.875 L 25.273438 44.359375 C 17.40625 34.816406 13.21875 25.445312 14.226562 19.417969 C 14.894531 15.066406 21.253906 11.550781 24.9375 11.550781 C 26.78125 11.550781 27.449219 12.386719 27.617188 13.054688 C 29.625 16.738281 32.304688 23.101562 32.304688 25.445312 L 32.304688 25.777344 C 31.800781 26.949219 30.796875 27.621094 29.960938 28.121094 C 28.789062 28.792969 28.117188 29.292969 27.953125 30.464844 C 27.953125 30.800781 28.285156 32.640625 33.476562 39.003906 L 35.652344 41.679688 C 40.839844 47.875 42.515625 48.542969 42.851562 48.542969 C 44.191406 48.710938 44.691406 48.210938 45.695312 47.207031 C 46.367188 46.367188 47.203125 45.53125 48.375 45.363281 L 48.710938 45.363281 C 51.054688 45.867188 56.746094 49.550781 60.09375 52.394531 C 60.59375 52.5625 61.433594 53.398438 60.761719 55.574219 Z M 60.761719 55.574219 " fill-opacity="1" fill-rule="nonzero"/></svg>