<svg xmlns="http://www.w3.org/2000/svg" xmlns:xlink="http://www.w3.org/1999/xlink" width="250" zoomAndPan="magnify" viewBox="0 0 187.5 74.999997" height="100" preserveAspectRatio="xMidYMid meet" version="1.0"><defs><g/></defs><g fill="#2b2d42" fill-opacity="1"><g transform="translate(44.786817, 41.988028)"><g><path d="M 3.15625 0.4375 C 2.65625 0.4375 2.1875 0.332031 1.75 0.125 C 1.3125 -0.0820312 0.957031 -0.40625 0.6875 -0.84375 C 0.425781 -1.238281 0.242188 -1.660156 0.140625 -2.109375 C 0.0351562 -2.566406 -0.0078125 -3.078125 0 -3.640625 C 0 -4.128906 0.0625 -4.671875 0.1875 -5.265625 C 0.320312 -5.867188 0.492188 -6.484375 0.703125 -7.109375 C 0.921875 -7.734375 1.15625 -8.328125 1.40625 -8.890625 C 1.664062 -9.453125 1.925781 -9.929688 2.1875 -10.328125 C 2.53125 -10.898438 2.984375 -11.46875 3.546875 -12.03125 C 4.117188 -12.59375 4.742188 -13.070312 5.421875 -13.46875 C 6.097656 -13.863281 6.769531 -14.097656 7.4375 -14.171875 C 7.894531 -14.171875 8.25 -14.078125 8.5 -13.890625 C 8.75 -13.703125 8.921875 -13.378906 9.015625 -12.921875 C 9.097656 -12.546875 9.085938 -12.148438 8.984375 -11.734375 C 8.816406 -11.003906 8.523438 -10.328125 8.109375 -9.703125 C 7.691406 -9.078125 7.253906 -8.472656 6.796875 -7.890625 C 6.691406 -7.710938 6.566406 -7.625 6.421875 -7.625 C 6.335938 -7.625 6.28125 -7.644531 6.25 -7.6875 C 6.207031 -7.789062 6.238281 -7.898438 6.34375 -8.015625 C 6.738281 -8.523438 7.132812 -9.085938 7.53125 -9.703125 C 7.9375 -10.328125 8.222656 -10.960938 8.390625 -11.609375 C 8.492188 -11.921875 8.523438 -12.238281 8.484375 -12.5625 C 8.441406 -13.238281 8.140625 -13.578125 7.578125 -13.578125 C 7.515625 -13.578125 7.453125 -13.570312 7.390625 -13.5625 C 7.328125 -13.5625 7.257812 -13.550781 7.1875 -13.53125 C 6.789062 -13.425781 6.375 -13.269531 5.9375 -13.0625 C 4.84375 -12.46875 3.921875 -11.6875 3.171875 -10.71875 C 2.429688 -9.75 1.851562 -8.675781 1.4375 -7.5 C 1.019531 -6.320312 0.738281 -5.117188 0.59375 -3.890625 C 0.539062 -3.460938 0.546875 -3.046875 0.609375 -2.640625 C 0.671875 -2.234375 0.8125 -1.832031 1.03125 -1.4375 C 1.25 -1 1.546875 -0.679688 1.921875 -0.484375 C 2.296875 -0.285156 2.722656 -0.175781 3.203125 -0.15625 C 3.566406 -0.15625 3.957031 -0.234375 4.375 -0.390625 C 5.539062 -0.785156 6.566406 -1.34375 7.453125 -2.0625 C 8.335938 -2.78125 9.175781 -3.609375 9.96875 -4.546875 C 10 -4.578125 10.035156 -4.613281 10.078125 -4.65625 C 10.117188 -4.707031 10.15625 -4.753906 10.1875 -4.796875 C 10.21875 -4.828125 10.253906 -4.863281 10.296875 -4.90625 C 10.347656 -4.957031 10.390625 -5 10.421875 -5.03125 C 10.515625 -5.0625 10.566406 -5.078125 10.578125 -5.078125 C 10.648438 -5.078125 10.710938 -5.050781 10.765625 -5 C 10.867188 -4.925781 10.882812 -4.8125 10.8125 -4.65625 C 10.789062 -4.632812 10.757812 -4.597656 10.71875 -4.546875 C 10.695312 -4.535156 10.675781 -4.515625 10.65625 -4.484375 C 10.644531 -4.460938 10.632812 -4.4375 10.625 -4.40625 C 10.25 -3.96875 9.863281 -3.535156 9.46875 -3.109375 C 9.070312 -2.691406 8.65625 -2.289062 8.21875 -1.90625 C 7.851562 -1.570312 7.367188 -1.222656 6.765625 -0.859375 C 6.171875 -0.492188 5.550781 -0.1875 4.90625 0.0625 C 4.269531 0.3125 3.6875 0.4375 3.15625 0.4375 Z M 3.15625 0.4375 "/></g></g></g><g fill="#2b2d42" fill-opacity="1"><g transform="translate(54.498513, 41.988028)"><g><path d="M 0.953125 -1.140625 C 0.679688 -1.140625 0.4375 -1.222656 0.21875 -1.390625 C 0.0078125 -1.554688 -0.125 -1.789062 -0.1875 -2.09375 C -0.226562 -2.320312 -0.242188 -2.519531 -0.234375 -2.6875 C -0.203125 -3 -0.113281 -3.363281 0.03125 -3.78125 C 0.1875 -4.195312 0.394531 -4.585938 0.65625 -4.953125 C 0.914062 -5.316406 1.191406 -5.554688 1.484375 -5.671875 C 1.566406 -5.710938 1.664062 -5.734375 1.78125 -5.734375 C 1.914062 -5.710938 2 -5.632812 2.03125 -5.5 C 2.050781 -5.320312 2.003906 -5.222656 1.890625 -5.203125 C 1.628906 -5.160156 1.429688 -5.054688 1.296875 -4.890625 C 1.160156 -4.722656 1.03125 -4.539062 0.90625 -4.34375 C 0.695312 -3.9375 0.546875 -3.550781 0.453125 -3.1875 C 0.390625 -3.019531 0.359375 -2.800781 0.359375 -2.53125 C 0.359375 -2.082031 0.507812 -1.820312 0.8125 -1.75 C 1 -1.75 1.148438 -1.769531 1.265625 -1.8125 C 1.390625 -1.863281 1.503906 -1.976562 1.609375 -2.15625 C 1.765625 -2.40625 1.859375 -2.648438 1.890625 -2.890625 C 1.921875 -3.128906 1.851562 -3.378906 1.6875 -3.640625 C 1.59375 -3.796875 1.515625 -3.945312 1.453125 -4.09375 C 1.421875 -4.164062 1.429688 -4.234375 1.484375 -4.296875 C 1.535156 -4.367188 1.601562 -4.414062 1.6875 -4.4375 L 2.390625 -4.4375 C 2.816406 -4.4375 3.238281 -4.503906 3.65625 -4.640625 C 3.769531 -4.671875 3.878906 -4.707031 3.984375 -4.75 C 4.085938 -4.800781 4.191406 -4.84375 4.296875 -4.875 C 4.398438 -4.894531 4.5 -4.925781 4.59375 -4.96875 C 4.695312 -5.019531 4.800781 -5.0625 4.90625 -5.09375 L 5.28125 -5.1875 C 5.394531 -5.1875 5.492188 -5.125 5.578125 -5 C 5.648438 -4.820312 5.585938 -4.703125 5.390625 -4.640625 C 5.179688 -4.566406 4.96875 -4.488281 4.75 -4.40625 C 4.539062 -4.332031 4.332031 -4.257812 4.125 -4.1875 C 3.90625 -4.113281 3.6875 -4.046875 3.46875 -3.984375 C 3.25 -3.929688 3.019531 -3.894531 2.78125 -3.875 C 2.5625 -3.84375 2.441406 -3.804688 2.421875 -3.765625 C 2.398438 -3.722656 2.40625 -3.601562 2.4375 -3.40625 C 2.53125 -2.96875 2.476562 -2.535156 2.28125 -2.109375 C 2.125 -1.796875 1.894531 -1.53125 1.59375 -1.3125 C 1.382812 -1.195312 1.171875 -1.140625 0.953125 -1.140625 Z M 0.953125 -1.140625 "/></g></g></g><g fill="#2b2d42" fill-opacity="1"><g transform="translate(58.956344, 41.988028)"><g><path d="M -0.109375 -0.234375 C -0.296875 -0.234375 -0.40625 -0.335938 -0.4375 -0.546875 C -0.445312 -0.585938 -0.453125 -0.6875 -0.453125 -0.84375 C -0.410156 -1.238281 -0.332031 -1.625 -0.21875 -2 C -0.113281 -2.382812 -0.00390625 -2.765625 0.109375 -3.140625 C 0.210938 -3.429688 0.316406 -3.710938 0.421875 -3.984375 C 0.535156 -4.265625 0.644531 -4.550781 0.75 -4.84375 C 0.851562 -5.132812 0.957031 -5.421875 1.0625 -5.703125 C 1.175781 -5.984375 1.285156 -6.265625 1.390625 -6.546875 C 1.460938 -6.660156 1.546875 -6.828125 1.640625 -7.046875 C 1.742188 -7.265625 1.859375 -7.375 1.984375 -7.375 C 1.984375 -7.375 2.023438 -7.359375 2.109375 -7.328125 C 2.265625 -7.234375 2.304688 -7.101562 2.234375 -6.9375 L 2.09375 -6.671875 C 1.988281 -6.378906 1.878906 -6.085938 1.765625 -5.796875 C 1.648438 -5.515625 1.539062 -5.226562 1.4375 -4.9375 C 1.332031 -4.644531 1.222656 -4.351562 1.109375 -4.0625 C 0.992188 -3.769531 0.875 -3.476562 0.75 -3.1875 C 0.738281 -3.125 0.71875 -3.054688 0.6875 -2.984375 C 0.664062 -2.921875 0.640625 -2.851562 0.609375 -2.78125 C 0.546875 -2.65625 0.554688 -2.507812 0.640625 -2.34375 C 0.734375 -2.539062 0.898438 -2.820312 1.140625 -3.1875 C 1.378906 -3.550781 1.648438 -3.925781 1.953125 -4.3125 C 2.253906 -4.707031 2.554688 -5.039062 2.859375 -5.3125 C 3.171875 -5.59375 3.4375 -5.734375 3.65625 -5.734375 C 3.914062 -5.734375 4.082031 -5.625 4.15625 -5.40625 C 4.238281 -5.195312 4.296875 -4.992188 4.328125 -4.796875 C 4.335938 -4.691406 4.347656 -4.59375 4.359375 -4.5 C 4.367188 -4.414062 4.378906 -4.328125 4.390625 -4.234375 C 4.390625 -4.140625 4.390625 -4.046875 4.390625 -3.953125 C 4.398438 -3.867188 4.414062 -3.78125 4.4375 -3.6875 C 4.445312 -3.425781 4.515625 -3.191406 4.640625 -2.984375 C 4.679688 -2.859375 4.769531 -2.796875 4.90625 -2.796875 C 4.9375 -2.796875 4.960938 -2.804688 4.984375 -2.828125 C 4.992188 -2.828125 5.007812 -2.828125 5.03125 -2.828125 C 5.164062 -2.867188 5.289062 -2.929688 5.40625 -3.015625 C 5.53125 -3.097656 5.65625 -3.191406 5.78125 -3.296875 C 5.882812 -3.390625 5.976562 -3.476562 6.0625 -3.5625 C 6.15625 -3.65625 6.257812 -3.757812 6.375 -3.875 C 6.457031 -3.957031 6.546875 -4.046875 6.640625 -4.140625 C 6.742188 -4.234375 6.851562 -4.320312 6.96875 -4.40625 C 7.082031 -4.519531 7.179688 -4.613281 7.265625 -4.6875 C 7.347656 -4.757812 7.40625 -4.8125 7.4375 -4.84375 C 7.46875 -4.875 7.5 -4.90625 7.53125 -4.9375 C 7.5625 -4.96875 7.582031 -4.988281 7.59375 -5 C 7.644531 -5.050781 7.695312 -5.078125 7.75 -5.078125 C 7.8125 -5.078125 7.867188 -5.050781 7.921875 -5 C 8.023438 -4.914062 8.054688 -4.8125 8.015625 -4.6875 C 7.960938 -4.5625 7.890625 -4.457031 7.796875 -4.375 C 7.742188 -4.3125 7.628906 -4.195312 7.453125 -4.03125 C 7.273438 -3.875 7.082031 -3.703125 6.875 -3.515625 C 6.675781 -3.328125 6.488281 -3.15625 6.3125 -3 C 6.132812 -2.851562 6.015625 -2.75 5.953125 -2.6875 C 5.679688 -2.425781 5.378906 -2.265625 5.046875 -2.203125 C 5.035156 -2.203125 5.019531 -2.203125 5 -2.203125 C 4.988281 -2.203125 4.972656 -2.203125 4.953125 -2.203125 C 4.921875 -2.191406 4.882812 -2.1875 4.84375 -2.1875 C 4.539062 -2.1875 4.300781 -2.34375 4.125 -2.65625 C 3.976562 -2.914062 3.894531 -3.195312 3.875 -3.5 C 3.851562 -3.625 3.835938 -3.742188 3.828125 -3.859375 C 3.828125 -3.972656 3.816406 -4.082031 3.796875 -4.1875 C 3.785156 -4.289062 3.769531 -4.398438 3.75 -4.515625 C 3.738281 -4.628906 3.722656 -4.738281 3.703125 -4.84375 C 3.671875 -4.96875 3.617188 -5.03125 3.546875 -5.03125 C 3.484375 -5.03125 3.429688 -5.003906 3.390625 -4.953125 C 2.796875 -4.421875 2.273438 -3.820312 1.828125 -3.15625 C 1.378906 -2.488281 0.984375 -1.800781 0.640625 -1.09375 C 0.609375 -1.03125 0.570312 -0.960938 0.53125 -0.890625 C 0.5 -0.828125 0.46875 -0.757812 0.4375 -0.6875 C 0.40625 -0.601562 0.363281 -0.53125 0.3125 -0.46875 C 0.257812 -0.414062 0.191406 -0.359375 0.109375 -0.296875 C 0.046875 -0.253906 -0.0234375 -0.234375 -0.109375 -0.234375 Z M -0.109375 -0.234375 "/></g></g></g><g fill="#2b2d42" fill-opacity="1"><g transform="translate(65.847783, 41.988028)"><g><path d="M 0.40625 1.609375 C 0.125 1.609375 -0.0625 1.445312 -0.15625 1.125 C -0.257812 0.8125 -0.3125 0.523438 -0.3125 0.265625 C -0.3125 -0.453125 -0.21875 -1.253906 -0.03125 -2.140625 C 0.144531 -3.035156 0.363281 -3.914062 0.625 -4.78125 C 0.894531 -5.644531 1.148438 -6.414062 1.390625 -7.09375 C 1.460938 -7.3125 1.53125 -7.515625 1.59375 -7.703125 C 1.664062 -7.890625 1.738281 -8.082031 1.8125 -8.28125 C 1.875 -8.445312 1.894531 -8.5625 1.875 -8.625 C 1.851562 -8.695312 1.773438 -8.734375 1.640625 -8.734375 L 1.453125 -8.734375 C 1.304688 -8.722656 1.15625 -8.707031 1 -8.6875 C 0.851562 -8.675781 0.703125 -8.65625 0.546875 -8.625 C 0.390625 -8.601562 0.234375 -8.582031 0.078125 -8.5625 C -0.078125 -8.539062 -0.234375 -8.523438 -0.390625 -8.515625 C -0.472656 -8.492188 -0.5625 -8.472656 -0.65625 -8.453125 C -0.757812 -8.441406 -0.859375 -8.4375 -0.953125 -8.4375 C -1.078125 -8.4375 -1.160156 -8.445312 -1.203125 -8.46875 C -1.273438 -8.476562 -1.328125 -8.519531 -1.359375 -8.59375 C -1.390625 -8.75 -1.351562 -8.832031 -1.25 -8.84375 C -1.1875 -8.863281 -1.132812 -8.878906 -1.09375 -8.890625 C -1.050781 -8.910156 -1.003906 -8.925781 -0.953125 -8.9375 C -0.890625 -8.957031 -0.832031 -8.96875 -0.78125 -8.96875 C -0.726562 -8.976562 -0.671875 -8.992188 -0.609375 -9.015625 C -0.398438 -9.035156 -0.195312 -9.0625 0 -9.09375 C 0.207031 -9.125 0.410156 -9.148438 0.609375 -9.171875 C 0.828125 -9.203125 1.035156 -9.226562 1.234375 -9.25 C 1.429688 -9.269531 1.625 -9.289062 1.8125 -9.3125 C 2.09375 -9.320312 2.285156 -9.445312 2.390625 -9.6875 L 3 -11.0625 C 3.0625 -11.144531 3.113281 -11.234375 3.15625 -11.328125 C 3.207031 -11.421875 3.265625 -11.515625 3.328125 -11.609375 C 3.367188 -11.691406 3.414062 -11.78125 3.46875 -11.875 C 3.519531 -11.96875 3.578125 -12.0625 3.640625 -12.15625 C 3.804688 -12.425781 3.96875 -12.5625 4.125 -12.5625 C 4.207031 -12.5625 4.273438 -12.507812 4.328125 -12.40625 C 4.359375 -12.25 4.316406 -12.078125 4.203125 -11.890625 C 4.085938 -11.585938 3.957031 -11.285156 3.8125 -10.984375 C 3.664062 -10.679688 3.515625 -10.378906 3.359375 -10.078125 C 3.347656 -10.046875 3.332031 -10.003906 3.3125 -9.953125 C 3.300781 -9.910156 3.289062 -9.875 3.28125 -9.84375 C 3.226562 -9.757812 3.203125 -9.65625 3.203125 -9.53125 C 3.265625 -9.519531 3.316406 -9.507812 3.359375 -9.5 C 3.410156 -9.488281 3.457031 -9.484375 3.5 -9.484375 C 3.5625 -9.484375 3.609375 -9.492188 3.640625 -9.515625 C 3.671875 -9.515625 3.691406 -9.515625 3.703125 -9.515625 C 3.722656 -9.515625 3.738281 -9.515625 3.75 -9.515625 C 4.070312 -9.546875 4.398438 -9.578125 4.734375 -9.609375 C 5.078125 -9.648438 5.441406 -9.6875 5.828125 -9.71875 C 6.203125 -9.75 6.5625 -9.773438 6.90625 -9.796875 C 7.25 -9.828125 7.578125 -9.859375 7.890625 -9.890625 L 8.71875 -9.890625 C 8.820312 -9.890625 8.878906 -9.816406 8.890625 -9.671875 C 8.890625 -9.546875 8.847656 -9.46875 8.765625 -9.4375 C 8.703125 -9.425781 8.644531 -9.414062 8.59375 -9.40625 C 8.550781 -9.394531 8.507812 -9.390625 8.46875 -9.390625 C 8.414062 -9.378906 8.367188 -9.375 8.328125 -9.375 C 8.285156 -9.375 8.234375 -9.363281 8.171875 -9.34375 L 3.28125 -8.921875 C 2.945312 -8.890625 2.722656 -8.738281 2.609375 -8.46875 C 2.472656 -8.175781 2.3125 -7.757812 2.125 -7.21875 C 1.9375 -6.6875 1.738281 -6.109375 1.53125 -5.484375 C 1.332031 -4.859375 1.148438 -4.265625 0.984375 -3.703125 C 0.816406 -3.140625 0.691406 -2.691406 0.609375 -2.359375 C 0.523438 -1.984375 0.453125 -1.609375 0.390625 -1.234375 C 0.335938 -0.867188 0.296875 -0.488281 0.265625 -0.09375 C 0.253906 0.0703125 0.242188 0.25 0.234375 0.4375 C 0.234375 0.632812 0.316406 0.800781 0.484375 0.9375 C 0.648438 0.914062 0.800781 0.835938 0.9375 0.703125 C 1 0.628906 1.054688 0.554688 1.109375 0.484375 C 1.160156 0.421875 1.21875 0.359375 1.28125 0.296875 C 1.519531 -0.00390625 1.804688 -0.394531 2.140625 -0.875 C 2.484375 -1.351562 2.832031 -1.84375 3.1875 -2.34375 C 3.550781 -2.84375 3.882812 -3.296875 4.1875 -3.703125 C 4.488281 -4.117188 4.722656 -4.410156 4.890625 -4.578125 C 4.921875 -4.617188 4.957031 -4.660156 5 -4.703125 C 5.050781 -4.753906 5.09375 -4.800781 5.125 -4.84375 C 5.195312 -4.914062 5.285156 -4.976562 5.390625 -5.03125 C 5.410156 -5.03125 5.425781 -5.035156 5.4375 -5.046875 C 5.445312 -5.046875 5.453125 -5.046875 5.453125 -5.046875 C 5.453125 -5.046875 5.460938 -5.046875 5.484375 -5.046875 C 5.492188 -5.046875 5.546875 -5.03125 5.640625 -5 C 5.765625 -4.914062 5.785156 -4.800781 5.703125 -4.65625 C 5.703125 -4.613281 5.679688 -4.570312 5.640625 -4.53125 C 5.410156 -4.257812 5.109375 -3.867188 4.734375 -3.359375 C 4.367188 -2.859375 4.023438 -2.390625 3.703125 -1.953125 C 3.328125 -1.441406 2.941406 -0.921875 2.546875 -0.390625 C 2.148438 0.128906 1.769531 0.601562 1.40625 1.03125 C 1.300781 1.164062 1.15625 1.296875 0.96875 1.421875 C 0.78125 1.546875 0.59375 1.609375 0.40625 1.609375 Z M 0.40625 1.609375 "/></g></g></g><g fill="#2b2d42" fill-opacity="1"><g transform="translate(70.419329, 41.988028)"><g><path d="M 1.0625 -0.953125 C 0.445312 -0.953125 0.0625 -1.234375 -0.09375 -1.796875 C -0.132812 -1.921875 -0.171875 -2.050781 -0.203125 -2.1875 C -0.234375 -2.320312 -0.242188 -2.453125 -0.234375 -2.578125 C -0.242188 -2.765625 -0.226562 -2.941406 -0.1875 -3.109375 C -0.15625 -3.273438 -0.113281 -3.445312 -0.0625 -3.625 C 0.0703125 -3.976562 0.253906 -4.363281 0.484375 -4.78125 C 0.722656 -5.207031 1.003906 -5.578125 1.328125 -5.890625 C 1.648438 -6.210938 2.007812 -6.40625 2.40625 -6.46875 C 2.457031 -6.46875 2.488281 -6.472656 2.5 -6.484375 C 2.519531 -6.484375 2.535156 -6.484375 2.546875 -6.484375 C 2.566406 -6.484375 2.582031 -6.484375 2.59375 -6.484375 C 2.820312 -6.484375 3 -6.40625 3.125 -6.25 C 3.257812 -6.101562 3.3125 -5.898438 3.28125 -5.640625 C 3.21875 -5.273438 3.035156 -4.898438 2.734375 -4.515625 C 2.441406 -4.128906 2.097656 -3.800781 1.703125 -3.53125 C 1.304688 -3.269531 0.925781 -3.117188 0.5625 -3.078125 C 0.457031 -3.046875 0.398438 -2.972656 0.390625 -2.859375 C 0.328125 -2.617188 0.347656 -2.351562 0.453125 -2.0625 C 0.492188 -1.8125 0.578125 -1.660156 0.703125 -1.609375 C 0.835938 -1.566406 1.015625 -1.546875 1.234375 -1.546875 C 1.679688 -1.640625 2.144531 -1.835938 2.625 -2.140625 C 3.101562 -2.453125 3.507812 -2.765625 3.84375 -3.078125 C 3.976562 -3.191406 4.113281 -3.316406 4.25 -3.453125 C 4.382812 -3.585938 4.519531 -3.71875 4.65625 -3.84375 C 4.78125 -3.96875 4.910156 -4.09375 5.046875 -4.21875 C 5.179688 -4.34375 5.316406 -4.46875 5.453125 -4.59375 C 5.484375 -4.625 5.519531 -4.65625 5.5625 -4.6875 C 5.613281 -4.726562 5.65625 -4.765625 5.6875 -4.796875 C 5.71875 -4.828125 5.75 -4.859375 5.78125 -4.890625 C 5.820312 -4.929688 5.859375 -4.96875 5.890625 -5 C 5.960938 -5.050781 6.023438 -5.078125 6.078125 -5.078125 C 6.140625 -5.078125 6.191406 -5.050781 6.234375 -5 C 6.359375 -4.894531 6.378906 -4.78125 6.296875 -4.65625 C 6.285156 -4.613281 6.226562 -4.539062 6.125 -4.4375 C 5.84375 -4.144531 5.5 -3.800781 5.09375 -3.40625 C 4.6875 -3.019531 4.25 -2.640625 3.78125 -2.265625 C 3.3125 -1.890625 2.835938 -1.578125 2.359375 -1.328125 C 1.890625 -1.078125 1.457031 -0.953125 1.0625 -0.953125 Z M 0.859375 -3.75 C 1.054688 -3.851562 1.296875 -4.007812 1.578125 -4.21875 C 1.859375 -4.4375 2.109375 -4.671875 2.328125 -4.921875 C 2.546875 -5.171875 2.65625 -5.421875 2.65625 -5.671875 C 2.644531 -5.816406 2.578125 -5.875 2.453125 -5.84375 C 2.210938 -5.8125 1.96875 -5.679688 1.71875 -5.453125 C 1.476562 -5.234375 1.265625 -4.976562 1.078125 -4.6875 C 0.898438 -4.394531 0.769531 -4.128906 0.6875 -3.890625 C 0.6875 -3.816406 0.703125 -3.78125 0.734375 -3.78125 C 0.804688 -3.75 0.847656 -3.738281 0.859375 -3.75 Z M 0.859375 -3.75 "/></g></g></g><g fill="#2b2d42" fill-opacity="1"><g transform="translate(75.604963, 41.988028)"><g><path d="M -0.109375 -0.234375 C -0.296875 -0.234375 -0.40625 -0.335938 -0.4375 -0.546875 C -0.445312 -0.585938 -0.453125 -0.6875 -0.453125 -0.84375 C -0.410156 -1.238281 -0.332031 -1.625 -0.21875 -2 C -0.113281 -2.382812 -0.00390625 -2.765625 0.109375 -3.140625 C 0.210938 -3.429688 0.316406 -3.710938 0.421875 -3.984375 C 0.535156 -4.265625 0.644531 -4.550781 0.75 -4.84375 C 0.851562 -5.132812 0.957031 -5.421875 1.0625 -5.703125 C 1.175781 -5.984375 1.285156 -6.265625 1.390625 -6.546875 C 1.460938 -6.660156 1.546875 -6.828125 1.640625 -7.046875 C 1.742188 -7.265625 1.859375 -7.375 1.984375 -7.375 C 1.984375 -7.375 2.023438 -7.359375 2.109375 -7.328125 C 2.265625 -7.234375 2.304688 -7.101562 2.234375 -6.9375 L 2.09375 -6.671875 C 1.988281 -6.378906 1.878906 -6.085938 1.765625 -5.796875 C 1.648438 -5.515625 1.539062 -5.226562 1.4375 -4.9375 C 1.332031 -4.644531 1.222656 -4.351562 1.109375 -4.0625 C 0.992188 -3.769531 0.875 -3.476562 0.75 -3.1875 C 0.738281 -3.125 0.71875 -3.054688 0.6875 -2.984375 C 0.664062 -2.921875 0.640625 -2.851562 0.609375 -2.78125 C 0.546875 -2.65625 0.554688 -2.507812 0.640625 -2.34375 C 0.734375 -2.539062 0.898438 -2.820312 1.140625 -3.1875 C 1.378906 -3.550781 1.648438 -3.925781 1.953125 -4.3125 C 2.253906 -4.707031 2.554688 -5.039062 2.859375 -5.3125 C 3.171875 -5.59375 3.4375 -5.734375 3.65625 -5.734375 C 3.914062 -5.734375 4.082031 -5.625 4.15625 -5.40625 C 4.238281 -5.195312 4.296875 -4.992188 4.328125 -4.796875 C 4.335938 -4.691406 4.347656 -4.59375 4.359375 -4.5 C 4.367188 -4.414062 4.378906 -4.328125 4.390625 -4.234375 C 4.390625 -4.140625 4.390625 -4.046875 4.390625 -3.953125 C 4.398438 -3.867188 4.414062 -3.78125 4.4375 -3.6875 C 4.445312 -3.425781 4.515625 -3.191406 4.640625 -2.984375 C 4.679688 -2.859375 4.769531 -2.796875 4.90625 -2.796875 C 4.9375 -2.796875 4.960938 -2.804688 4.984375 -2.828125 C 4.992188 -2.828125 5.007812 -2.828125 5.03125 -2.828125 C 5.164062 -2.867188 5.289062 -2.929688 5.40625 -3.015625 C 5.53125 -3.097656 5.65625 -3.191406 5.78125 -3.296875 C 5.882812 -3.390625 5.976562 -3.476562 6.0625 -3.5625 C 6.15625 -3.65625 6.257812 -3.757812 6.375 -3.875 C 6.457031 -3.957031 6.546875 -4.046875 6.640625 -4.140625 C 6.742188 -4.234375 6.851562 -4.320312 6.96875 -4.40625 C 7.082031 -4.519531 7.179688 -4.613281 7.265625 -4.6875 C 7.347656 -4.757812 7.40625 -4.8125 7.4375 -4.84375 C 7.46875 -4.875 7.5 -4.90625 7.53125 -4.9375 C 7.5625 -4.96875 7.582031 -4.988281 7.59375 -5 C 7.644531 -5.050781 7.695312 -5.078125 7.75 -5.078125 C 7.8125 -5.078125 7.867188 -5.050781 7.921875 -5 C 8.023438 -4.914062 8.054688 -4.8125 8.015625 -4.6875 C 7.960938 -4.5625 7.890625 -4.457031 7.796875 -4.375 C 7.742188 -4.3125 7.628906 -4.195312 7.453125 -4.03125 C 7.273438 -3.875 7.082031 -3.703125 6.875 -3.515625 C 6.675781 -3.328125 6.488281 -3.15625 6.3125 -3 C 6.132812 -2.851562 6.015625 -2.75 5.953125 -2.6875 C 5.679688 -2.425781 5.378906 -2.265625 5.046875 -2.203125 C 5.035156 -2.203125 5.019531 -2.203125 5 -2.203125 C 4.988281 -2.203125 4.972656 -2.203125 4.953125 -2.203125 C 4.921875 -2.191406 4.882812 -2.1875 4.84375 -2.1875 C 4.539062 -2.1875 4.300781 -2.34375 4.125 -2.65625 C 3.976562 -2.914062 3.894531 -3.195312 3.875 -3.5 C 3.851562 -3.625 3.835938 -3.742188 3.828125 -3.859375 C 3.828125 -3.972656 3.816406 -4.082031 3.796875 -4.1875 C 3.785156 -4.289062 3.769531 -4.398438 3.75 -4.515625 C 3.738281 -4.628906 3.722656 -4.738281 3.703125 -4.84375 C 3.671875 -4.96875 3.617188 -5.03125 3.546875 -5.03125 C 3.484375 -5.03125 3.429688 -5.003906 3.390625 -4.953125 C 2.796875 -4.421875 2.273438 -3.820312 1.828125 -3.15625 C 1.378906 -2.488281 0.984375 -1.800781 0.640625 -1.09375 C 0.609375 -1.03125 0.570312 -0.960938 0.53125 -0.890625 C 0.5 -0.828125 0.46875 -0.757812 0.4375 -0.6875 C 0.40625 -0.601562 0.363281 -0.53125 0.3125 -0.46875 C 0.257812 -0.414062 0.191406 -0.359375 0.109375 -0.296875 C 0.046875 -0.253906 -0.0234375 -0.234375 -0.109375 -0.234375 Z M -0.109375 -0.234375 "/></g></g></g><g fill="#2b2d42" fill-opacity="1"><g transform="translate(82.496403, 41.988028)"><g><path d="M 0.40625 1.609375 C 0.125 1.609375 -0.0625 1.445312 -0.15625 1.125 C -0.257812 0.8125 -0.3125 0.523438 -0.3125 0.265625 C -0.3125 -0.453125 -0.21875 -1.253906 -0.03125 -2.140625 C 0.144531 -3.035156 0.363281 -3.914062 0.625 -4.78125 C 0.894531 -5.644531 1.148438 -6.414062 1.390625 -7.09375 C 1.460938 -7.3125 1.53125 -7.515625 1.59375 -7.703125 C 1.664062 -7.890625 1.738281 -8.082031 1.8125 -8.28125 C 1.875 -8.445312 1.894531 -8.5625 1.875 -8.625 C 1.851562 -8.695312 1.773438 -8.734375 1.640625 -8.734375 L 1.453125 -8.734375 C 1.304688 -8.722656 1.15625 -8.707031 1 -8.6875 C 0.851562 -8.675781 0.703125 -8.65625 0.546875 -8.625 C 0.390625 -8.601562 0.234375 -8.582031 0.078125 -8.5625 C -0.078125 -8.539062 -0.234375 -8.523438 -0.390625 -8.515625 C -0.472656 -8.492188 -0.5625 -8.472656 -0.65625 -8.453125 C -0.757812 -8.441406 -0.859375 -8.4375 -0.953125 -8.4375 C -1.078125 -8.4375 -1.160156 -8.445312 -1.203125 -8.46875 C -1.273438 -8.476562 -1.328125 -8.519531 -1.359375 -8.59375 C -1.390625 -8.75 -1.351562 -8.832031 -1.25 -8.84375 C -1.1875 -8.863281 -1.132812 -8.878906 -1.09375 -8.890625 C -1.050781 -8.910156 -1.003906 -8.925781 -0.953125 -8.9375 C -0.890625 -8.957031 -0.832031 -8.96875 -0.78125 -8.96875 C -0.726562 -8.976562 -0.671875 -8.992188 -0.609375 -9.015625 C -0.398438 -9.035156 -0.195312 -9.0625 0 -9.09375 C 0.207031 -9.125 0.410156 -9.148438 0.609375 -9.171875 C 0.828125 -9.203125 1.035156 -9.226562 1.234375 -9.25 C 1.429688 -9.269531 1.625 -9.289062 1.8125 -9.3125 C 2.09375 -9.320312 2.285156 -9.445312 2.390625 -9.6875 L 3 -11.0625 C 3.0625 -11.144531 3.113281 -11.234375 3.15625 -11.328125 C 3.207031 -11.421875 3.265625 -11.515625 3.328125 -11.609375 C 3.367188 -11.691406 3.414062 -11.78125 3.46875 -11.875 C 3.519531 -11.96875 3.578125 -12.0625 3.640625 -12.15625 C 3.804688 -12.425781 3.96875 -12.5625 4.125 -12.5625 C 4.207031 -12.5625 4.273438 -12.507812 4.328125 -12.40625 C 4.359375 -12.25 4.316406 -12.078125 4.203125 -11.890625 C 4.085938 -11.585938 3.957031 -11.285156 3.8125 -10.984375 C 3.664062 -10.679688 3.515625 -10.378906 3.359375 -10.078125 C 3.347656 -10.046875 3.332031 -10.003906 3.3125 -9.953125 C 3.300781 -9.910156 3.289062 -9.875 3.28125 -9.84375 C 3.226562 -9.757812 3.203125 -9.65625 3.203125 -9.53125 C 3.265625 -9.519531 3.316406 -9.507812 3.359375 -9.5 C 3.410156 -9.488281 3.457031 -9.484375 3.5 -9.484375 C 3.5625 -9.484375 3.609375 -9.492188 3.640625 -9.515625 C 3.671875 -9.515625 3.691406 -9.515625 3.703125 -9.515625 C 3.722656 -9.515625 3.738281 -9.515625 3.75 -9.515625 C 4.070312 -9.546875 4.398438 -9.578125 4.734375 -9.609375 C 5.078125 -9.648438 5.441406 -9.6875 5.828125 -9.71875 C 6.203125 -9.75 6.5625 -9.773438 6.90625 -9.796875 C 7.25 -9.828125 7.578125 -9.859375 7.890625 -9.890625 L 8.71875 -9.890625 C 8.820312 -9.890625 8.878906 -9.816406 8.890625 -9.671875 C 8.890625 -9.546875 8.847656 -9.46875 8.765625 -9.4375 C 8.703125 -9.425781 8.644531 -9.414062 8.59375 -9.40625 C 8.550781 -9.394531 8.507812 -9.390625 8.46875 -9.390625 C 8.414062 -9.378906 8.367188 -9.375 8.328125 -9.375 C 8.285156 -9.375 8.234375 -9.363281 8.171875 -9.34375 L 3.28125 -8.921875 C 2.945312 -8.890625 2.722656 -8.738281 2.609375 -8.46875 C 2.472656 -8.175781 2.3125 -7.757812 2.125 -7.21875 C 1.9375 -6.6875 1.738281 -6.109375 1.53125 -5.484375 C 1.332031 -4.859375 1.148438 -4.265625 0.984375 -3.703125 C 0.816406 -3.140625 0.691406 -2.691406 0.609375 -2.359375 C 0.523438 -1.984375 0.453125 -1.609375 0.390625 -1.234375 C 0.335938 -0.867188 0.296875 -0.488281 0.265625 -0.09375 C 0.253906 0.0703125 0.242188 0.25 0.234375 0.4375 C 0.234375 0.632812 0.316406 0.800781 0.484375 0.9375 C 0.648438 0.914062 0.800781 0.835938 0.9375 0.703125 C 1 0.628906 1.054688 0.554688 1.109375 0.484375 C 1.160156 0.421875 1.21875 0.359375 1.28125 0.296875 C 1.519531 -0.00390625 1.804688 -0.394531 2.140625 -0.875 C 2.484375 -1.351562 2.832031 -1.84375 3.1875 -2.34375 C 3.550781 -2.84375 3.882812 -3.296875 4.1875 -3.703125 C 4.488281 -4.117188 4.722656 -4.410156 4.890625 -4.578125 C 4.921875 -4.617188 4.957031 -4.660156 5 -4.703125 C 5.050781 -4.753906 5.09375 -4.800781 5.125 -4.84375 C 5.195312 -4.914062 5.285156 -4.976562 5.390625 -5.03125 C 5.410156 -5.03125 5.425781 -5.035156 5.4375 -5.046875 C 5.445312 -5.046875 5.453125 -5.046875 5.453125 -5.046875 C 5.453125 -5.046875 5.460938 -5.046875 5.484375 -5.046875 C 5.492188 -5.046875 5.546875 -5.03125 5.640625 -5 C 5.765625 -4.914062 5.785156 -4.800781 5.703125 -4.65625 C 5.703125 -4.613281 5.679688 -4.570312 5.640625 -4.53125 C 5.410156 -4.257812 5.109375 -3.867188 4.734375 -3.359375 C 4.367188 -2.859375 4.023438 -2.390625 3.703125 -1.953125 C 3.328125 -1.441406 2.941406 -0.921875 2.546875 -0.390625 C 2.148438 0.128906 1.769531 0.601562 1.40625 1.03125 C 1.300781 1.164062 1.15625 1.296875 0.96875 1.421875 C 0.78125 1.546875 0.59375 1.609375 0.40625 1.609375 Z M 0.40625 1.609375 "/></g></g></g><g fill="#2b2d42" fill-opacity="1"><g transform="translate(87.067948, 41.988028)"><g/></g></g><g fill="#2b2d42" fill-opacity="1"><g transform="translate(95.710676, 41.988028)"><g><path d="M 3.15625 0.4375 C 2.65625 0.4375 2.1875 0.332031 1.75 0.125 C 1.3125 -0.0820312 0.957031 -0.40625 0.6875 -0.84375 C 0.425781 -1.238281 0.242188 -1.660156 0.140625 -2.109375 C 0.0351562 -2.566406 -0.0078125 -3.078125 0 -3.640625 C 0 -4.128906 0.0625 -4.671875 0.1875 -5.265625 C 0.320312 -5.867188 0.492188 -6.484375 0.703125 -7.109375 C 0.921875 -7.734375 1.15625 -8.328125 1.40625 -8.890625 C 1.664062 -9.453125 1.925781 -9.929688 2.1875 -10.328125 C 2.53125 -10.898438 2.984375 -11.46875 3.546875 -12.03125 C 4.117188 -12.59375 4.742188 -13.070312 5.421875 -13.46875 C 6.097656 -13.863281 6.769531 -14.097656 7.4375 -14.171875 C 7.894531 -14.171875 8.25 -14.078125 8.5 -13.890625 C 8.75 -13.703125 8.921875 -13.378906 9.015625 -12.921875 C 9.097656 -12.546875 9.085938 -12.148438 8.984375 -11.734375 C 8.816406 -11.003906 8.523438 -10.328125 8.109375 -9.703125 C 7.691406 -9.078125 7.253906 -8.472656 6.796875 -7.890625 C 6.691406 -7.710938 6.566406 -7.625 6.421875 -7.625 C 6.335938 -7.625 6.28125 -7.644531 6.25 -7.6875 C 6.207031 -7.789062 6.238281 -7.898438 6.34375 -8.015625 C 6.738281 -8.523438 7.132812 -9.085938 7.53125 -9.703125 C 7.9375 -10.328125 8.222656 -10.960938 8.390625 -11.609375 C 8.492188 -11.921875 8.523438 -12.238281 8.484375 -12.5625 C 8.441406 -13.238281 8.140625 -13.578125 7.578125 -13.578125 C 7.515625 -13.578125 7.453125 -13.570312 7.390625 -13.5625 C 7.328125 -13.5625 7.257812 -13.550781 7.1875 -13.53125 C 6.789062 -13.425781 6.375 -13.269531 5.9375 -13.0625 C 4.84375 -12.46875 3.921875 -11.6875 3.171875 -10.71875 C 2.429688 -9.75 1.851562 -8.675781 1.4375 -7.5 C 1.019531 -6.320312 0.738281 -5.117188 0.59375 -3.890625 C 0.539062 -3.460938 0.546875 -3.046875 0.609375 -2.640625 C 0.671875 -2.234375 0.8125 -1.832031 1.03125 -1.4375 C 1.25 -1 1.546875 -0.679688 1.921875 -0.484375 C 2.296875 -0.285156 2.722656 -0.175781 3.203125 -0.15625 C 3.566406 -0.15625 3.957031 -0.234375 4.375 -0.390625 C 5.539062 -0.785156 6.566406 -1.34375 7.453125 -2.0625 C 8.335938 -2.78125 9.175781 -3.609375 9.96875 -4.546875 C 10 -4.578125 10.035156 -4.613281 10.078125 -4.65625 C 10.117188 -4.707031 10.15625 -4.753906 10.1875 -4.796875 C 10.21875 -4.828125 10.253906 -4.863281 10.296875 -4.90625 C 10.347656 -4.957031 10.390625 -5 10.421875 -5.03125 C 10.515625 -5.0625 10.566406 -5.078125 10.578125 -5.078125 C 10.648438 -5.078125 10.710938 -5.050781 10.765625 -5 C 10.867188 -4.925781 10.882812 -4.8125 10.8125 -4.65625 C 10.789062 -4.632812 10.757812 -4.597656 10.71875 -4.546875 C 10.695312 -4.535156 10.675781 -4.515625 10.65625 -4.484375 C 10.644531 -4.460938 10.632812 -4.4375 10.625 -4.40625 C 10.25 -3.96875 9.863281 -3.535156 9.46875 -3.109375 C 9.070312 -2.691406 8.65625 -2.289062 8.21875 -1.90625 C 7.851562 -1.570312 7.367188 -1.222656 6.765625 -0.859375 C 6.171875 -0.492188 5.550781 -0.1875 4.90625 0.0625 C 4.269531 0.3125 3.6875 0.4375 3.15625 0.4375 Z M 3.15625 0.4375 "/></g></g></g><g fill="#2b2d42" fill-opacity="1"><g transform="translate(105.422372, 41.988028)"><g><path d="M -0.0625 0.390625 C -0.0820312 0.390625 -0.09375 0.390625 -0.09375 0.390625 C -0.101562 0.390625 -0.117188 0.390625 -0.140625 0.390625 C -0.140625 0.367188 -0.15625 0.359375 -0.1875 0.359375 C -0.332031 0.316406 -0.421875 0.203125 -0.453125 0.015625 C -0.453125 -0.0234375 -0.453125 -0.0664062 -0.453125 -0.109375 C -0.453125 -0.160156 -0.460938 -0.210938 -0.484375 -0.265625 C -0.484375 -0.316406 -0.484375 -0.363281 -0.484375 -0.40625 C -0.484375 -0.457031 -0.472656 -0.507812 -0.453125 -0.5625 C -0.304688 -1.582031 -0.0820312 -2.5 0.21875 -3.3125 C 0.53125 -4.132812 0.882812 -5.003906 1.28125 -5.921875 C 1.300781 -5.972656 1.328125 -6.023438 1.359375 -6.078125 C 1.390625 -6.140625 1.421875 -6.191406 1.453125 -6.234375 C 1.503906 -6.273438 1.570312 -6.296875 1.65625 -6.296875 L 1.734375 -6.296875 C 1.847656 -6.253906 1.898438 -6.179688 1.890625 -6.078125 C 1.890625 -5.941406 1.851562 -5.773438 1.78125 -5.578125 C 1.6875 -5.347656 1.585938 -5.117188 1.484375 -4.890625 C 1.390625 -4.660156 1.289062 -4.429688 1.1875 -4.203125 C 1.03125 -3.859375 0.890625 -3.507812 0.765625 -3.15625 C 0.648438 -2.8125 0.546875 -2.460938 0.453125 -2.109375 C 0.421875 -1.992188 0.394531 -1.875 0.375 -1.75 C 0.351562 -1.625 0.375 -1.503906 0.4375 -1.390625 L 0.40625 -1.390625 L 0.4375 -1.359375 L 1.3125 -3.15625 C 1.5 -3.507812 1.726562 -3.863281 2 -4.21875 C 2.269531 -4.570312 2.582031 -4.859375 2.9375 -5.078125 C 3.03125 -5.117188 3.117188 -5.140625 3.203125 -5.140625 C 3.390625 -5.140625 3.535156 -5.050781 3.640625 -4.875 C 3.671875 -4.84375 3.695312 -4.800781 3.71875 -4.75 C 3.738281 -4.707031 3.757812 -4.664062 3.78125 -4.625 C 3.789062 -4.53125 3.828125 -4.4375 3.890625 -4.34375 C 4.054688 -4.070312 4.238281 -3.9375 4.4375 -3.9375 C 4.570312 -3.9375 4.738281 -3.992188 4.9375 -4.109375 C 5.132812 -4.234375 5.332031 -4.367188 5.53125 -4.515625 C 5.738281 -4.671875 5.90625 -4.800781 6.03125 -4.90625 C 6.125 -5 6.222656 -5.078125 6.328125 -5.140625 C 6.335938 -5.160156 6.367188 -5.171875 6.421875 -5.171875 C 6.472656 -5.171875 6.53125 -5.144531 6.59375 -5.09375 C 6.6875 -5 6.710938 -4.910156 6.671875 -4.828125 C 6.609375 -4.703125 6.539062 -4.601562 6.46875 -4.53125 C 6.320312 -4.394531 6.128906 -4.226562 5.890625 -4.03125 C 5.648438 -3.84375 5.398438 -3.679688 5.140625 -3.546875 C 4.878906 -3.410156 4.644531 -3.34375 4.4375 -3.34375 C 4.0625 -3.34375 3.75 -3.507812 3.5 -3.84375 C 3.46875 -3.882812 3.4375 -3.925781 3.40625 -3.96875 C 3.375 -4.019531 3.347656 -4.070312 3.328125 -4.125 C 3.304688 -4.164062 3.28125 -4.207031 3.25 -4.25 C 3.21875 -4.300781 3.1875 -4.347656 3.15625 -4.390625 C 3.050781 -4.390625 2.972656 -4.363281 2.921875 -4.3125 C 2.867188 -4.269531 2.820312 -4.21875 2.78125 -4.15625 C 2.5625 -3.945312 2.367188 -3.71875 2.203125 -3.46875 C 2.035156 -3.21875 1.882812 -2.960938 1.75 -2.703125 C 1.65625 -2.523438 1.5625 -2.34375 1.46875 -2.15625 C 1.382812 -1.976562 1.304688 -1.796875 1.234375 -1.609375 C 1.140625 -1.429688 1.046875 -1.25 0.953125 -1.0625 C 0.859375 -0.882812 0.757812 -0.695312 0.65625 -0.5 C 0.59375 -0.375 0.523438 -0.253906 0.453125 -0.140625 C 0.390625 -0.0351562 0.320312 0.078125 0.25 0.203125 C 0.175781 0.328125 0.0703125 0.390625 -0.0625 0.390625 Z M -0.0625 0.390625 "/></g></g></g><g fill="#2b2d42" fill-opacity="1"><g transform="translate(110.971919, 41.988028)"><g><path d="M 1.0625 -0.953125 C 0.445312 -0.953125 0.0625 -1.234375 -0.09375 -1.796875 C -0.132812 -1.921875 -0.171875 -2.050781 -0.203125 -2.1875 C -0.234375 -2.320312 -0.242188 -2.453125 -0.234375 -2.578125 C -0.242188 -2.765625 -0.226562 -2.941406 -0.1875 -3.109375 C -0.15625 -3.273438 -0.113281 -3.445312 -0.0625 -3.625 C 0.0703125 -3.976562 0.253906 -4.363281 0.484375 -4.78125 C 0.722656 -5.207031 1.003906 -5.578125 1.328125 -5.890625 C 1.648438 -6.210938 2.007812 -6.40625 2.40625 -6.46875 C 2.457031 -6.46875 2.488281 -6.472656 2.5 -6.484375 C 2.519531 -6.484375 2.535156 -6.484375 2.546875 -6.484375 C 2.566406 -6.484375 2.582031 -6.484375 2.59375 -6.484375 C 2.820312 -6.484375 3 -6.40625 3.125 -6.25 C 3.257812 -6.101562 3.3125 -5.898438 3.28125 -5.640625 C 3.21875 -5.273438 3.035156 -4.898438 2.734375 -4.515625 C 2.441406 -4.128906 2.097656 -3.800781 1.703125 -3.53125 C 1.304688 -3.269531 0.925781 -3.117188 0.5625 -3.078125 C 0.457031 -3.046875 0.398438 -2.972656 0.390625 -2.859375 C 0.328125 -2.617188 0.347656 -2.351562 0.453125 -2.0625 C 0.492188 -1.8125 0.578125 -1.660156 0.703125 -1.609375 C 0.835938 -1.566406 1.015625 -1.546875 1.234375 -1.546875 C 1.679688 -1.640625 2.144531 -1.835938 2.625 -2.140625 C 3.101562 -2.453125 3.507812 -2.765625 3.84375 -3.078125 C 3.976562 -3.191406 4.113281 -3.316406 4.25 -3.453125 C 4.382812 -3.585938 4.519531 -3.71875 4.65625 -3.84375 C 4.78125 -3.96875 4.910156 -4.09375 5.046875 -4.21875 C 5.179688 -4.34375 5.316406 -4.46875 5.453125 -4.59375 C 5.484375 -4.625 5.519531 -4.65625 5.5625 -4.6875 C 5.613281 -4.726562 5.65625 -4.765625 5.6875 -4.796875 C 5.71875 -4.828125 5.75 -4.859375 5.78125 -4.890625 C 5.820312 -4.929688 5.859375 -4.96875 5.890625 -5 C 5.960938 -5.050781 6.023438 -5.078125 6.078125 -5.078125 C 6.140625 -5.078125 6.191406 -5.050781 6.234375 -5 C 6.359375 -4.894531 6.378906 -4.78125 6.296875 -4.65625 C 6.285156 -4.613281 6.226562 -4.539062 6.125 -4.4375 C 5.84375 -4.144531 5.5 -3.800781 5.09375 -3.40625 C 4.6875 -3.019531 4.25 -2.640625 3.78125 -2.265625 C 3.3125 -1.890625 2.835938 -1.578125 2.359375 -1.328125 C 1.890625 -1.078125 1.457031 -0.953125 1.0625 -0.953125 Z M 0.859375 -3.75 C 1.054688 -3.851562 1.296875 -4.007812 1.578125 -4.21875 C 1.859375 -4.4375 2.109375 -4.671875 2.328125 -4.921875 C 2.546875 -5.171875 2.65625 -5.421875 2.65625 -5.671875 C 2.644531 -5.816406 2.578125 -5.875 2.453125 -5.84375 C 2.210938 -5.8125 1.96875 -5.679688 1.71875 -5.453125 C 1.476562 -5.234375 1.265625 -4.976562 1.078125 -4.6875 C 0.898438 -4.394531 0.769531 -4.128906 0.6875 -3.890625 C 0.6875 -3.816406 0.703125 -3.78125 0.734375 -3.78125 C 0.804688 -3.75 0.847656 -3.738281 0.859375 -3.75 Z M 0.859375 -3.75 "/></g></g></g><g fill="#2b2d42" fill-opacity="1"><g transform="translate(116.157554, 41.988028)"><g><path d="M 0.109375 -1.953125 C -0.191406 -1.953125 -0.359375 -2.132812 -0.390625 -2.5 C -0.390625 -2.832031 -0.316406 -3.1875 -0.171875 -3.5625 C -0.0234375 -3.945312 0.15625 -4.3125 0.375 -4.65625 C 0.59375 -5.007812 0.816406 -5.300781 1.046875 -5.53125 C 1.109375 -5.601562 1.222656 -5.703125 1.390625 -5.828125 C 1.628906 -6.023438 1.878906 -6.125 2.140625 -6.125 C 2.367188 -6.125 2.597656 -6.03125 2.828125 -5.84375 C 2.941406 -5.769531 3.007812 -5.734375 3.03125 -5.734375 C 3.070312 -5.734375 3.140625 -5.796875 3.234375 -5.921875 C 3.304688 -5.992188 3.375 -6.070312 3.4375 -6.15625 C 3.507812 -6.25 3.578125 -6.34375 3.640625 -6.4375 C 3.703125 -6.53125 3.765625 -6.617188 3.828125 -6.703125 C 3.898438 -6.796875 3.96875 -6.890625 4.03125 -6.984375 C 4.0625 -7.015625 4.085938 -7.050781 4.109375 -7.09375 C 4.140625 -7.144531 4.171875 -7.191406 4.203125 -7.234375 C 4.234375 -7.265625 4.257812 -7.300781 4.28125 -7.34375 C 4.3125 -7.394531 4.34375 -7.4375 4.375 -7.46875 C 4.476562 -7.570312 4.566406 -7.625 4.640625 -7.625 C 4.640625 -7.625 4.6875 -7.609375 4.78125 -7.578125 C 4.925781 -7.484375 4.960938 -7.332031 4.890625 -7.125 C 4.878906 -7.0625 4.859375 -7.003906 4.828125 -6.953125 C 4.804688 -6.910156 4.78125 -6.867188 4.75 -6.828125 C 4.6875 -6.722656 4.632812 -6.613281 4.59375 -6.5 C 4.457031 -6.21875 4.296875 -5.863281 4.109375 -5.4375 C 3.929688 -5.007812 3.773438 -4.578125 3.640625 -4.140625 C 3.515625 -3.710938 3.453125 -3.332031 3.453125 -3 C 3.453125 -2.863281 3.5 -2.796875 3.59375 -2.796875 C 3.632812 -2.796875 3.664062 -2.804688 3.6875 -2.828125 C 3.789062 -2.867188 3.890625 -2.910156 3.984375 -2.953125 C 4.085938 -3.003906 4.191406 -3.054688 4.296875 -3.109375 C 4.429688 -3.203125 4.570312 -3.296875 4.71875 -3.390625 C 4.863281 -3.492188 5.003906 -3.609375 5.140625 -3.734375 C 5.242188 -3.804688 5.34375 -3.890625 5.4375 -3.984375 C 5.53125 -4.078125 5.617188 -4.160156 5.703125 -4.234375 C 5.867188 -4.398438 6.050781 -4.554688 6.25 -4.703125 C 6.28125 -4.734375 6.316406 -4.765625 6.359375 -4.796875 C 6.398438 -4.828125 6.4375 -4.859375 6.46875 -4.890625 C 6.488281 -4.921875 6.546875 -4.96875 6.640625 -5.03125 C 6.671875 -5.039062 6.691406 -5.050781 6.703125 -5.0625 C 6.722656 -5.070312 6.738281 -5.078125 6.75 -5.078125 C 6.8125 -5.078125 6.867188 -5.050781 6.921875 -5 C 7.023438 -4.9375 7.050781 -4.820312 7 -4.65625 C 6.988281 -4.644531 6.984375 -4.632812 6.984375 -4.625 C 6.984375 -4.625 6.976562 -4.613281 6.96875 -4.59375 C 6.945312 -4.582031 6.925781 -4.566406 6.90625 -4.546875 C 6.894531 -4.535156 6.882812 -4.519531 6.875 -4.5 C 6.65625 -4.289062 6.347656 -4.003906 5.953125 -3.640625 C 5.566406 -3.285156 5.164062 -2.960938 4.75 -2.671875 C 4.332031 -2.390625 3.960938 -2.21875 3.640625 -2.15625 C 3.609375 -2.144531 3.539062 -2.140625 3.4375 -2.140625 C 3.050781 -2.140625 2.859375 -2.359375 2.859375 -2.796875 C 2.859375 -3.097656 2.890625 -3.398438 2.953125 -3.703125 C 3.015625 -4.003906 3.082031 -4.3125 3.15625 -4.625 C 2.988281 -4.539062 2.878906 -4.460938 2.828125 -4.390625 C 2.796875 -4.347656 2.753906 -4.300781 2.703125 -4.25 C 2.660156 -4.207031 2.625 -4.171875 2.59375 -4.140625 C 2.332031 -3.835938 2.070312 -3.546875 1.8125 -3.265625 C 1.5625 -2.984375 1.289062 -2.710938 1 -2.453125 C 0.894531 -2.367188 0.757812 -2.265625 0.59375 -2.140625 C 0.425781 -2.015625 0.265625 -1.953125 0.109375 -1.953125 Z M 0.3125 -2.78125 C 0.40625 -2.78125 0.472656 -2.800781 0.515625 -2.84375 C 0.878906 -3.144531 1.222656 -3.476562 1.546875 -3.84375 C 1.867188 -4.207031 2.179688 -4.578125 2.484375 -4.953125 C 2.492188 -4.972656 2.503906 -4.988281 2.515625 -5 C 2.535156 -5.019531 2.554688 -5.046875 2.578125 -5.078125 C 2.617188 -5.222656 2.585938 -5.328125 2.484375 -5.390625 C 2.359375 -5.460938 2.25 -5.5 2.15625 -5.5 C 2.082031 -5.5 1.988281 -5.46875 1.875 -5.40625 C 1.757812 -5.351562 1.671875 -5.296875 1.609375 -5.234375 C 0.898438 -4.609375 0.453125 -3.804688 0.265625 -2.828125 L 0.296875 -2.796875 C 0.304688 -2.796875 0.3125 -2.789062 0.3125 -2.78125 Z M 0.3125 -2.78125 "/></g></g></g><g fill="#2b2d42" fill-opacity="1"><g transform="translate(122.048255, 41.988028)"><g><path d="M 0.40625 1.609375 C 0.125 1.609375 -0.0625 1.445312 -0.15625 1.125 C -0.257812 0.8125 -0.3125 0.523438 -0.3125 0.265625 C -0.3125 -0.453125 -0.21875 -1.253906 -0.03125 -2.140625 C 0.144531 -3.035156 0.363281 -3.914062 0.625 -4.78125 C 0.894531 -5.644531 1.148438 -6.414062 1.390625 -7.09375 C 1.460938 -7.3125 1.53125 -7.515625 1.59375 -7.703125 C 1.664062 -7.890625 1.738281 -8.082031 1.8125 -8.28125 C 1.875 -8.445312 1.894531 -8.5625 1.875 -8.625 C 1.851562 -8.695312 1.773438 -8.734375 1.640625 -8.734375 L 1.453125 -8.734375 C 1.304688 -8.722656 1.15625 -8.707031 1 -8.6875 C 0.851562 -8.675781 0.703125 -8.65625 0.546875 -8.625 C 0.390625 -8.601562 0.234375 -8.582031 0.078125 -8.5625 C -0.078125 -8.539062 -0.234375 -8.523438 -0.390625 -8.515625 C -0.472656 -8.492188 -0.5625 -8.472656 -0.65625 -8.453125 C -0.757812 -8.441406 -0.859375 -8.4375 -0.953125 -8.4375 C -1.078125 -8.4375 -1.160156 -8.445312 -1.203125 -8.46875 C -1.273438 -8.476562 -1.328125 -8.519531 -1.359375 -8.59375 C -1.390625 -8.75 -1.351562 -8.832031 -1.25 -8.84375 C -1.1875 -8.863281 -1.132812 -8.878906 -1.09375 -8.890625 C -1.050781 -8.910156 -1.003906 -8.925781 -0.953125 -8.9375 C -0.890625 -8.957031 -0.832031 -8.96875 -0.78125 -8.96875 C -0.726562 -8.976562 -0.671875 -8.992188 -0.609375 -9.015625 C -0.398438 -9.035156 -0.195312 -9.0625 0 -9.09375 C 0.207031 -9.125 0.410156 -9.148438 0.609375 -9.171875 C 0.828125 -9.203125 1.035156 -9.226562 1.234375 -9.25 C 1.429688 -9.269531 1.625 -9.289062 1.8125 -9.3125 C 2.09375 -9.320312 2.285156 -9.445312 2.390625 -9.6875 L 3 -11.0625 C 3.0625 -11.144531 3.113281 -11.234375 3.15625 -11.328125 C 3.207031 -11.421875 3.265625 -11.515625 3.328125 -11.609375 C 3.367188 -11.691406 3.414062 -11.78125 3.46875 -11.875 C 3.519531 -11.96875 3.578125 -12.0625 3.640625 -12.15625 C 3.804688 -12.425781 3.96875 -12.5625 4.125 -12.5625 C 4.207031 -12.5625 4.273438 -12.507812 4.328125 -12.40625 C 4.359375 -12.25 4.316406 -12.078125 4.203125 -11.890625 C 4.085938 -11.585938 3.957031 -11.285156 3.8125 -10.984375 C 3.664062 -10.679688 3.515625 -10.378906 3.359375 -10.078125 C 3.347656 -10.046875 3.332031 -10.003906 3.3125 -9.953125 C 3.300781 -9.910156 3.289062 -9.875 3.28125 -9.84375 C 3.226562 -9.757812 3.203125 -9.65625 3.203125 -9.53125 C 3.265625 -9.519531 3.316406 -9.507812 3.359375 -9.5 C 3.410156 -9.488281 3.457031 -9.484375 3.5 -9.484375 C 3.5625 -9.484375 3.609375 -9.492188 3.640625 -9.515625 C 3.671875 -9.515625 3.691406 -9.515625 3.703125 -9.515625 C 3.722656 -9.515625 3.738281 -9.515625 3.75 -9.515625 C 4.070312 -9.546875 4.398438 -9.578125 4.734375 -9.609375 C 5.078125 -9.648438 5.441406 -9.6875 5.828125 -9.71875 C 6.203125 -9.75 6.5625 -9.773438 6.90625 -9.796875 C 7.25 -9.828125 7.578125 -9.859375 7.890625 -9.890625 L 8.71875 -9.890625 C 8.820312 -9.890625 8.878906 -9.816406 8.890625 -9.671875 C 8.890625 -9.546875 8.847656 -9.46875 8.765625 -9.4375 C 8.703125 -9.425781 8.644531 -9.414062 8.59375 -9.40625 C 8.550781 -9.394531 8.507812 -9.390625 8.46875 -9.390625 C 8.414062 -9.378906 8.367188 -9.375 8.328125 -9.375 C 8.285156 -9.375 8.234375 -9.363281 8.171875 -9.34375 L 3.28125 -8.921875 C 2.945312 -8.890625 2.722656 -8.738281 2.609375 -8.46875 C 2.472656 -8.175781 2.3125 -7.757812 2.125 -7.21875 C 1.9375 -6.6875 1.738281 -6.109375 1.53125 -5.484375 C 1.332031 -4.859375 1.148438 -4.265625 0.984375 -3.703125 C 0.816406 -3.140625 0.691406 -2.691406 0.609375 -2.359375 C 0.523438 -1.984375 0.453125 -1.609375 0.390625 -1.234375 C 0.335938 -0.867188 0.296875 -0.488281 0.265625 -0.09375 C 0.253906 0.0703125 0.242188 0.25 0.234375 0.4375 C 0.234375 0.632812 0.316406 0.800781 0.484375 0.9375 C 0.648438 0.914062 0.800781 0.835938 0.9375 0.703125 C 1 0.628906 1.054688 0.554688 1.109375 0.484375 C 1.160156 0.421875 1.21875 0.359375 1.28125 0.296875 C 1.519531 -0.00390625 1.804688 -0.394531 2.140625 -0.875 C 2.484375 -1.351562 2.832031 -1.84375 3.1875 -2.34375 C 3.550781 -2.84375 3.882812 -3.296875 4.1875 -3.703125 C 4.488281 -4.117188 4.722656 -4.410156 4.890625 -4.578125 C 4.921875 -4.617188 4.957031 -4.660156 5 -4.703125 C 5.050781 -4.753906 5.09375 -4.800781 5.125 -4.84375 C 5.195312 -4.914062 5.285156 -4.976562 5.390625 -5.03125 C 5.410156 -5.03125 5.425781 -5.035156 5.4375 -5.046875 C 5.445312 -5.046875 5.453125 -5.046875 5.453125 -5.046875 C 5.453125 -5.046875 5.460938 -5.046875 5.484375 -5.046875 C 5.492188 -5.046875 5.546875 -5.03125 5.640625 -5 C 5.765625 -4.914062 5.785156 -4.800781 5.703125 -4.65625 C 5.703125 -4.613281 5.679688 -4.570312 5.640625 -4.53125 C 5.410156 -4.257812 5.109375 -3.867188 4.734375 -3.359375 C 4.367188 -2.859375 4.023438 -2.390625 3.703125 -1.953125 C 3.328125 -1.441406 2.941406 -0.921875 2.546875 -0.390625 C 2.148438 0.128906 1.769531 0.601562 1.40625 1.03125 C 1.300781 1.164062 1.15625 1.296875 0.96875 1.421875 C 0.78125 1.546875 0.59375 1.609375 0.40625 1.609375 Z M 0.40625 1.609375 "/></g></g></g><g fill="#2b2d42" fill-opacity="1"><g transform="translate(126.619801, 41.988028)"><g><path d="M 0.984375 -0.8125 C 0.554688 -0.8125 0.257812 -1.035156 0.09375 -1.484375 C 0.0390625 -1.597656 0.0078125 -1.71875 0 -1.84375 C 0 -1.976562 0 -2.128906 0 -2.296875 C 0.0625 -2.628906 0.128906 -3.023438 0.203125 -3.484375 C 0.273438 -3.953125 0.375 -4.394531 0.5 -4.8125 C 0.632812 -5.226562 0.800781 -5.535156 1 -5.734375 C 1.070312 -5.773438 1.132812 -5.796875 1.1875 -5.796875 C 1.195312 -5.796875 1.25 -5.78125 1.34375 -5.75 C 1.445312 -5.707031 1.484375 -5.625 1.453125 -5.5 C 1.253906 -5 1.078125 -4.472656 0.921875 -3.921875 C 0.773438 -3.367188 0.664062 -2.828125 0.59375 -2.296875 C 0.570312 -2.128906 0.585938 -1.929688 0.640625 -1.703125 C 0.671875 -1.585938 0.722656 -1.515625 0.796875 -1.484375 C 0.867188 -1.453125 0.96875 -1.4375 1.09375 -1.4375 C 1.257812 -1.46875 1.410156 -1.519531 1.546875 -1.59375 C 1.679688 -1.664062 1.816406 -1.753906 1.953125 -1.859375 C 2.253906 -2.117188 2.546875 -2.382812 2.828125 -2.65625 C 3.109375 -2.9375 3.378906 -3.226562 3.640625 -3.53125 C 3.734375 -3.632812 3.820312 -3.738281 3.90625 -3.84375 C 4 -3.945312 4.082031 -4.050781 4.15625 -4.15625 C 4.238281 -4.269531 4.320312 -4.378906 4.40625 -4.484375 C 4.5 -4.585938 4.59375 -4.691406 4.6875 -4.796875 C 4.726562 -4.859375 4.773438 -4.910156 4.828125 -4.953125 C 4.878906 -5.003906 4.9375 -5.050781 5 -5.09375 C 5.03125 -5.125 5.070312 -5.140625 5.125 -5.140625 C 5.175781 -5.140625 5.226562 -5.117188 5.28125 -5.078125 C 5.375 -5.015625 5.40625 -4.921875 5.375 -4.796875 C 5.351562 -4.703125 5.304688 -4.617188 5.234375 -4.546875 C 4.835938 -4.035156 4.429688 -3.535156 4.015625 -3.046875 C 3.597656 -2.566406 3.140625 -2.113281 2.640625 -1.6875 C 2.429688 -1.488281 2.175781 -1.289062 1.875 -1.09375 C 1.582031 -0.90625 1.285156 -0.8125 0.984375 -0.8125 Z M 1.5625 -6.625 C 1.34375 -6.59375 1.21875 -6.734375 1.1875 -7.046875 C 1.1875 -7.328125 1.320312 -7.46875 1.59375 -7.46875 C 1.882812 -7.46875 2.035156 -7.34375 2.046875 -7.09375 C 2.046875 -6.976562 1.992188 -6.867188 1.890625 -6.765625 C 1.796875 -6.671875 1.6875 -6.625 1.5625 -6.625 Z M 1.5625 -6.625 "/></g></g></g><g fill="#2b2d42" fill-opacity="1"><g transform="translate(130.850192, 41.988028)"><g><path d="M 0.953125 -1.140625 C 0.679688 -1.140625 0.4375 -1.222656 0.21875 -1.390625 C 0.0078125 -1.554688 -0.125 -1.789062 -0.1875 -2.09375 C -0.226562 -2.320312 -0.242188 -2.519531 -0.234375 -2.6875 C -0.203125 -3 -0.113281 -3.363281 0.03125 -3.78125 C 0.1875 -4.195312 0.394531 -4.585938 0.65625 -4.953125 C 0.914062 -5.316406 1.191406 -5.554688 1.484375 -5.671875 C 1.566406 -5.710938 1.664062 -5.734375 1.78125 -5.734375 C 1.914062 -5.710938 2 -5.632812 2.03125 -5.5 C 2.050781 -5.320312 2.003906 -5.222656 1.890625 -5.203125 C 1.628906 -5.160156 1.429688 -5.054688 1.296875 -4.890625 C 1.160156 -4.722656 1.03125 -4.539062 0.90625 -4.34375 C 0.695312 -3.9375 0.546875 -3.550781 0.453125 -3.1875 C 0.390625 -3.019531 0.359375 -2.800781 0.359375 -2.53125 C 0.359375 -2.082031 0.507812 -1.820312 0.8125 -1.75 C 1 -1.75 1.148438 -1.769531 1.265625 -1.8125 C 1.390625 -1.863281 1.503906 -1.976562 1.609375 -2.15625 C 1.765625 -2.40625 1.859375 -2.648438 1.890625 -2.890625 C 1.921875 -3.128906 1.851562 -3.378906 1.6875 -3.640625 C 1.59375 -3.796875 1.515625 -3.945312 1.453125 -4.09375 C 1.421875 -4.164062 1.429688 -4.234375 1.484375 -4.296875 C 1.535156 -4.367188 1.601562 -4.414062 1.6875 -4.4375 L 2.390625 -4.4375 C 2.816406 -4.4375 3.238281 -4.503906 3.65625 -4.640625 C 3.769531 -4.671875 3.878906 -4.707031 3.984375 -4.75 C 4.085938 -4.800781 4.191406 -4.84375 4.296875 -4.875 C 4.398438 -4.894531 4.5 -4.925781 4.59375 -4.96875 C 4.695312 -5.019531 4.800781 -5.0625 4.90625 -5.09375 L 5.28125 -5.1875 C 5.394531 -5.1875 5.492188 -5.125 5.578125 -5 C 5.648438 -4.820312 5.585938 -4.703125 5.390625 -4.640625 C 5.179688 -4.566406 4.96875 -4.488281 4.75 -4.40625 C 4.539062 -4.332031 4.332031 -4.257812 4.125 -4.1875 C 3.90625 -4.113281 3.6875 -4.046875 3.46875 -3.984375 C 3.25 -3.929688 3.019531 -3.894531 2.78125 -3.875 C 2.5625 -3.84375 2.441406 -3.804688 2.421875 -3.765625 C 2.398438 -3.722656 2.40625 -3.601562 2.4375 -3.40625 C 2.53125 -2.96875 2.476562 -2.535156 2.28125 -2.109375 C 2.125 -1.796875 1.894531 -1.53125 1.59375 -1.3125 C 1.382812 -1.195312 1.171875 -1.140625 0.953125 -1.140625 Z M 0.953125 -1.140625 "/></g></g></g><g fill="#2b2d42" fill-opacity="1"><g transform="translate(135.308023, 41.988028)"><g><path d="M -0.109375 -0.234375 C -0.296875 -0.234375 -0.40625 -0.335938 -0.4375 -0.546875 C -0.445312 -0.585938 -0.453125 -0.6875 -0.453125 -0.84375 C -0.410156 -1.238281 -0.332031 -1.625 -0.21875 -2 C -0.113281 -2.382812 -0.00390625 -2.765625 0.109375 -3.140625 C 0.210938 -3.429688 0.316406 -3.710938 0.421875 -3.984375 C 0.535156 -4.265625 0.644531 -4.550781 0.75 -4.84375 C 0.851562 -5.132812 0.957031 -5.421875 1.0625 -5.703125 C 1.175781 -5.984375 1.285156 -6.265625 1.390625 -6.546875 C 1.460938 -6.660156 1.546875 -6.828125 1.640625 -7.046875 C 1.742188 -7.265625 1.859375 -7.375 1.984375 -7.375 C 1.984375 -7.375 2.023438 -7.359375 2.109375 -7.328125 C 2.265625 -7.234375 2.304688 -7.101562 2.234375 -6.9375 L 2.09375 -6.671875 C 1.988281 -6.378906 1.878906 -6.085938 1.765625 -5.796875 C 1.648438 -5.515625 1.539062 -5.226562 1.4375 -4.9375 C 1.332031 -4.644531 1.222656 -4.351562 1.109375 -4.0625 C 0.992188 -3.769531 0.875 -3.476562 0.75 -3.1875 C 0.738281 -3.125 0.71875 -3.054688 0.6875 -2.984375 C 0.664062 -2.921875 0.640625 -2.851562 0.609375 -2.78125 C 0.546875 -2.65625 0.554688 -2.507812 0.640625 -2.34375 C 0.734375 -2.539062 0.898438 -2.820312 1.140625 -3.1875 C 1.378906 -3.550781 1.648438 -3.925781 1.953125 -4.3125 C 2.253906 -4.707031 2.554688 -5.039062 2.859375 -5.3125 C 3.171875 -5.59375 3.4375 -5.734375 3.65625 -5.734375 C 3.914062 -5.734375 4.082031 -5.625 4.15625 -5.40625 C 4.238281 -5.195312 4.296875 -4.992188 4.328125 -4.796875 C 4.335938 -4.691406 4.347656 -4.59375 4.359375 -4.5 C 4.367188 -4.414062 4.378906 -4.328125 4.390625 -4.234375 C 4.390625 -4.140625 4.390625 -4.046875 4.390625 -3.953125 C 4.398438 -3.867188 4.414062 -3.78125 4.4375 -3.6875 C 4.445312 -3.425781 4.515625 -3.191406 4.640625 -2.984375 C 4.679688 -2.859375 4.769531 -2.796875 4.90625 -2.796875 C 4.9375 -2.796875 4.960938 -2.804688 4.984375 -2.828125 C 4.992188 -2.828125 5.007812 -2.828125 5.03125 -2.828125 C 5.164062 -2.867188 5.289062 -2.929688 5.40625 -3.015625 C 5.53125 -3.097656 5.65625 -3.191406 5.78125 -3.296875 C 5.882812 -3.390625 5.976562 -3.476562 6.0625 -3.5625 C 6.15625 -3.65625 6.257812 -3.757812 6.375 -3.875 C 6.457031 -3.957031 6.546875 -4.046875 6.640625 -4.140625 C 6.742188 -4.234375 6.851562 -4.320312 6.96875 -4.40625 C 7.082031 -4.519531 7.179688 -4.613281 7.265625 -4.6875 C 7.347656 -4.757812 7.40625 -4.8125 7.4375 -4.84375 C 7.46875 -4.875 7.5 -4.90625 7.53125 -4.9375 C 7.5625 -4.96875 7.582031 -4.988281 7.59375 -5 C 7.644531 -5.050781 7.695312 -5.078125 7.75 -5.078125 C 7.8125 -5.078125 7.867188 -5.050781 7.921875 -5 C 8.023438 -4.914062 8.054688 -4.8125 8.015625 -4.6875 C 7.960938 -4.5625 7.890625 -4.457031 7.796875 -4.375 C 7.742188 -4.3125 7.628906 -4.195312 7.453125 -4.03125 C 7.273438 -3.875 7.082031 -3.703125 6.875 -3.515625 C 6.675781 -3.328125 6.488281 -3.15625 6.3125 -3 C 6.132812 -2.851562 6.015625 -2.75 5.953125 -2.6875 C 5.679688 -2.425781 5.378906 -2.265625 5.046875 -2.203125 C 5.035156 -2.203125 5.019531 -2.203125 5 -2.203125 C 4.988281 -2.203125 4.972656 -2.203125 4.953125 -2.203125 C 4.921875 -2.191406 4.882812 -2.1875 4.84375 -2.1875 C 4.539062 -2.1875 4.300781 -2.34375 4.125 -2.65625 C 3.976562 -2.914062 3.894531 -3.195312 3.875 -3.5 C 3.851562 -3.625 3.835938 -3.742188 3.828125 -3.859375 C 3.828125 -3.972656 3.816406 -4.082031 3.796875 -4.1875 C 3.785156 -4.289062 3.769531 -4.398438 3.75 -4.515625 C 3.738281 -4.628906 3.722656 -4.738281 3.703125 -4.84375 C 3.671875 -4.96875 3.617188 -5.03125 3.546875 -5.03125 C 3.484375 -5.03125 3.429688 -5.003906 3.390625 -4.953125 C 2.796875 -4.421875 2.273438 -3.820312 1.828125 -3.15625 C 1.378906 -2.488281 0.984375 -1.800781 0.640625 -1.09375 C 0.609375 -1.03125 0.570312 -0.960938 0.53125 -0.890625 C 0.5 -0.828125 0.46875 -0.757812 0.4375 -0.6875 C 0.40625 -0.601562 0.363281 -0.53125 0.3125 -0.46875 C 0.257812 -0.414062 0.191406 -0.359375 0.109375 -0.296875 C 0.046875 -0.253906 -0.0234375 -0.234375 -0.109375 -0.234375 Z M -0.109375 -0.234375 "/></g></g></g></svg>