<svg xmlns="http://www.w3.org/2000/svg" xmlns:xlink="http://www.w3.org/1999/xlink" width="250" zoomAndPan="magnify" viewBox="0 0 187.5 74.999997" height="100" preserveAspectRatio="xMidYMid meet" version="1.0"><defs><g/></defs><g fill="#2b2d42" fill-opacity="1"><g transform="translate(48.958144, 49.764459)"><g><path d="M 2.28125 -2.046875 C 0.957031 -2.046875 0.132812 -2.644531 -0.1875 -3.84375 C -0.289062 -4.101562 -0.375 -4.378906 -0.4375 -4.671875 C -0.5 -4.960938 -0.515625 -5.238281 -0.484375 -5.5 C -0.515625 -5.925781 -0.488281 -6.316406 -0.40625 -6.671875 C -0.332031 -7.023438 -0.242188 -7.378906 -0.140625 -7.734375 C 0.148438 -8.515625 0.546875 -9.351562 1.046875 -10.25 C 1.546875 -11.144531 2.144531 -11.929688 2.84375 -12.609375 C 3.539062 -13.285156 4.3125 -13.691406 5.15625 -13.828125 C 5.257812 -13.828125 5.328125 -13.84375 5.359375 -13.875 C 5.390625 -13.875 5.421875 -13.875 5.453125 -13.875 C 5.484375 -13.875 5.515625 -13.875 5.546875 -13.875 C 6.035156 -13.875 6.414062 -13.710938 6.6875 -13.390625 C 6.96875 -13.066406 7.078125 -12.628906 7.015625 -12.078125 C 6.878906 -11.296875 6.492188 -10.488281 5.859375 -9.65625 C 5.234375 -8.832031 4.5 -8.132812 3.65625 -7.5625 C 2.8125 -7 2 -6.671875 1.21875 -6.578125 C 0.988281 -6.503906 0.859375 -6.359375 0.828125 -6.140625 C 0.703125 -5.617188 0.75 -5.050781 0.96875 -4.4375 C 1.070312 -3.882812 1.257812 -3.554688 1.53125 -3.453125 C 1.8125 -3.359375 2.175781 -3.3125 2.625 -3.3125 C 3.601562 -3.507812 4.601562 -3.9375 5.625 -4.59375 C 6.644531 -5.257812 7.515625 -5.921875 8.234375 -6.578125 C 8.523438 -6.835938 8.816406 -7.113281 9.109375 -7.40625 C 9.398438 -7.695312 9.691406 -7.972656 9.984375 -8.234375 C 10.242188 -8.492188 10.519531 -8.757812 10.8125 -9.03125 C 11.101562 -9.3125 11.394531 -9.578125 11.6875 -9.828125 C 11.75 -9.898438 11.828125 -9.972656 11.921875 -10.046875 C 12.023438 -10.128906 12.109375 -10.203125 12.171875 -10.265625 C 12.234375 -10.335938 12.304688 -10.410156 12.390625 -10.484375 C 12.472656 -10.566406 12.546875 -10.644531 12.609375 -10.71875 C 12.773438 -10.8125 12.90625 -10.859375 13 -10.859375 C 13.125 -10.859375 13.238281 -10.8125 13.34375 -10.71875 C 13.601562 -10.488281 13.648438 -10.242188 13.484375 -9.984375 C 13.453125 -9.878906 13.320312 -9.71875 13.09375 -9.5 C 12.507812 -8.875 11.78125 -8.140625 10.90625 -7.296875 C 10.03125 -6.453125 9.085938 -5.632812 8.078125 -4.84375 C 7.078125 -4.050781 6.070312 -3.382812 5.0625 -2.84375 C 4.050781 -2.3125 3.125 -2.046875 2.28125 -2.046875 Z M 1.84375 -8.03125 C 2.269531 -8.257812 2.78125 -8.597656 3.375 -9.046875 C 3.976562 -9.503906 4.515625 -10 4.984375 -10.53125 C 5.460938 -11.070312 5.703125 -11.601562 5.703125 -12.125 C 5.660156 -12.445312 5.515625 -12.578125 5.265625 -12.515625 C 4.742188 -12.453125 4.222656 -12.175781 3.703125 -11.6875 C 3.179688 -11.195312 2.722656 -10.644531 2.328125 -10.03125 C 1.941406 -9.414062 1.648438 -8.847656 1.453125 -8.328125 C 1.453125 -8.160156 1.488281 -8.078125 1.5625 -8.078125 C 1.71875 -8.015625 1.8125 -8 1.84375 -8.03125 Z M 1.84375 -8.03125 "/></g></g></g><g fill="#2b2d42" fill-opacity="1"><g transform="translate(60.059076, 49.764459)"><g><path d="M 1.609375 2.578125 C 1.148438 2.578125 0.789062 2.332031 0.53125 1.84375 C 0.269531 1.363281 0.109375 0.925781 0.046875 0.53125 C 0.015625 0.375 0 0.210938 0 0.046875 C 0 -0.109375 0 -0.253906 0 -0.390625 C 0 -0.554688 0 -0.691406 0 -0.796875 C 0 -0.910156 0 -1.003906 0 -1.078125 C 0.03125 -2.304688 0.117188 -3.457031 0.265625 -4.53125 C 0.410156 -5.601562 0.597656 -6.65625 0.828125 -7.6875 C 0.890625 -7.945312 0.945312 -8.222656 1 -8.515625 C 1.050781 -8.804688 0.960938 -9.082031 0.734375 -9.34375 C 0.628906 -9.476562 0.601562 -9.609375 0.65625 -9.734375 C 0.707031 -9.867188 0.78125 -9.984375 0.875 -10.078125 C 1.226562 -10.535156 1.503906 -11.015625 1.703125 -11.515625 C 1.898438 -12.015625 2.078125 -12.539062 2.234375 -13.09375 C 2.597656 -14.195312 3.035156 -15.445312 3.546875 -16.84375 C 4.066406 -18.238281 4.648438 -19.648438 5.296875 -21.078125 C 5.953125 -22.503906 6.648438 -23.84375 7.390625 -25.09375 C 8.140625 -26.34375 8.9375 -27.390625 9.78125 -28.234375 C 10.039062 -28.429688 10.269531 -28.53125 10.46875 -28.53125 C 10.5 -28.53125 10.535156 -28.519531 10.578125 -28.5 C 10.628906 -28.488281 10.707031 -28.46875 10.8125 -28.4375 C 11.039062 -28.332031 11.175781 -28.191406 11.21875 -28.015625 C 11.269531 -27.835938 11.28125 -27.648438 11.25 -27.453125 C 11.019531 -26.484375 10.617188 -25.359375 10.046875 -24.078125 C 9.484375 -22.796875 8.835938 -21.476562 8.109375 -20.125 C 7.378906 -18.78125 6.640625 -17.5 5.890625 -16.28125 C 5.140625 -15.0625 4.488281 -14.03125 3.9375 -13.1875 C 3.351562 -12.34375 2.890625 -11.253906 2.546875 -9.921875 C 2.210938 -8.597656 1.945312 -7.242188 1.75 -5.859375 C 1.550781 -4.484375 1.40625 -3.289062 1.3125 -2.28125 C 1.25 -1.800781 1.207031 -1.304688 1.1875 -0.796875 C 1.175781 -0.296875 1.25 0.195312 1.40625 0.6875 C 1.476562 0.945312 1.625 1.078125 1.84375 1.078125 C 2.070312 1.078125 2.363281 0.863281 2.71875 0.4375 C 3.082031 0.0195312 3.328125 -0.269531 3.453125 -0.4375 C 4.585938 -1.894531 5.753906 -3.441406 6.953125 -5.078125 C 8.160156 -6.722656 9.300781 -8.289062 10.375 -9.78125 C 10.4375 -9.914062 10.5625 -10.117188 10.75 -10.390625 C 10.945312 -10.671875 11.128906 -10.8125 11.296875 -10.8125 C 11.328125 -10.8125 11.441406 -10.78125 11.640625 -10.71875 C 11.867188 -10.613281 11.945312 -10.429688 11.875 -10.171875 C 11.875 -9.910156 11.8125 -9.71875 11.6875 -9.59375 C 11.582031 -9.394531 11.46875 -9.191406 11.34375 -8.984375 C 11.21875 -8.773438 11.085938 -8.570312 10.953125 -8.375 C 10.429688 -7.726562 9.910156 -7.054688 9.390625 -6.359375 C 8.878906 -5.660156 8.363281 -4.9375 7.84375 -4.1875 C 7.320312 -3.4375 6.789062 -2.703125 6.25 -1.984375 C 5.71875 -1.273438 5.191406 -0.582031 4.671875 0.09375 C 4.515625 0.351562 4.25 0.6875 3.875 1.09375 C 3.5 1.5 3.109375 1.847656 2.703125 2.140625 C 2.296875 2.429688 1.929688 2.578125 1.609375 2.578125 Z M 5.546875 -17.484375 C 5.546875 -17.515625 5.5625 -17.53125 5.59375 -17.53125 C 5.59375 -17.53125 5.59375 -17.515625 5.59375 -17.484375 C 6.050781 -18.390625 6.515625 -19.304688 6.984375 -20.234375 C 7.453125 -21.160156 7.929688 -22.078125 8.421875 -22.984375 L 9.734375 -25.609375 L 9.734375 -25.65625 C 9.703125 -25.6875 9.6875 -25.71875 9.6875 -25.75 C 9.6875 -25.6875 9.703125 -25.640625 9.734375 -25.609375 C 9.546875 -25.671875 9.453125 -25.703125 9.453125 -25.703125 C 9.316406 -25.703125 9.148438 -25.570312 8.953125 -25.3125 C 8.304688 -24.207031 7.695312 -23.09375 7.125 -21.96875 C 6.5625 -20.851562 6.050781 -19.695312 5.59375 -18.5 C 5.4375 -18.082031 5.421875 -17.742188 5.546875 -17.484375 Z M 5.546875 -17.484375 "/></g></g></g><g fill="#2b2d42" fill-opacity="1"><g transform="translate(69.504607, 49.764459)"><g><path d="M 1.609375 2.578125 C 1.148438 2.578125 0.789062 2.332031 0.53125 1.84375 C 0.269531 1.363281 0.109375 0.925781 0.046875 0.53125 C 0.015625 0.375 0 0.210938 0 0.046875 C 0 -0.109375 0 -0.253906 0 -0.390625 C 0 -0.554688 0 -0.691406 0 -0.796875 C 0 -0.910156 0 -1.003906 0 -1.078125 C 0.03125 -2.304688 0.117188 -3.457031 0.265625 -4.53125 C 0.410156 -5.601562 0.597656 -6.65625 0.828125 -7.6875 C 0.890625 -7.945312 0.945312 -8.222656 1 -8.515625 C 1.050781 -8.804688 0.960938 -9.082031 0.734375 -9.34375 C 0.628906 -9.476562 0.601562 -9.609375 0.65625 -9.734375 C 0.707031 -9.867188 0.78125 -9.984375 0.875 -10.078125 C 1.226562 -10.535156 1.503906 -11.015625 1.703125 -11.515625 C 1.898438 -12.015625 2.078125 -12.539062 2.234375 -13.09375 C 2.597656 -14.195312 3.035156 -15.445312 3.546875 -16.84375 C 4.066406 -18.238281 4.648438 -19.648438 5.296875 -21.078125 C 5.953125 -22.503906 6.648438 -23.84375 7.390625 -25.09375 C 8.140625 -26.34375 8.9375 -27.390625 9.78125 -28.234375 C 10.039062 -28.429688 10.269531 -28.53125 10.46875 -28.53125 C 10.5 -28.53125 10.535156 -28.519531 10.578125 -28.5 C 10.628906 -28.488281 10.707031 -28.46875 10.8125 -28.4375 C 11.039062 -28.332031 11.175781 -28.191406 11.21875 -28.015625 C 11.269531 -27.835938 11.28125 -27.648438 11.25 -27.453125 C 11.019531 -26.484375 10.617188 -25.359375 10.046875 -24.078125 C 9.484375 -22.796875 8.835938 -21.476562 8.109375 -20.125 C 7.378906 -18.78125 6.640625 -17.5 5.890625 -16.28125 C 5.140625 -15.0625 4.488281 -14.03125 3.9375 -13.1875 C 3.351562 -12.34375 2.890625 -11.253906 2.546875 -9.921875 C 2.210938 -8.597656 1.945312 -7.242188 1.75 -5.859375 C 1.550781 -4.484375 1.40625 -3.289062 1.3125 -2.28125 C 1.25 -1.800781 1.207031 -1.304688 1.1875 -0.796875 C 1.175781 -0.296875 1.25 0.195312 1.40625 0.6875 C 1.476562 0.945312 1.625 1.078125 1.84375 1.078125 C 2.070312 1.078125 2.363281 0.863281 2.71875 0.4375 C 3.082031 0.0195312 3.328125 -0.269531 3.453125 -0.4375 C 4.585938 -1.894531 5.753906 -3.441406 6.953125 -5.078125 C 8.160156 -6.722656 9.300781 -8.289062 10.375 -9.78125 C 10.4375 -9.914062 10.5625 -10.117188 10.75 -10.390625 C 10.945312 -10.671875 11.128906 -10.8125 11.296875 -10.8125 C 11.328125 -10.8125 11.441406 -10.78125 11.640625 -10.71875 C 11.867188 -10.613281 11.945312 -10.429688 11.875 -10.171875 C 11.875 -9.910156 11.8125 -9.71875 11.6875 -9.59375 C 11.582031 -9.394531 11.46875 -9.191406 11.34375 -8.984375 C 11.21875 -8.773438 11.085938 -8.570312 10.953125 -8.375 C 10.429688 -7.726562 9.910156 -7.054688 9.390625 -6.359375 C 8.878906 -5.660156 8.363281 -4.9375 7.84375 -4.1875 C 7.320312 -3.4375 6.789062 -2.703125 6.25 -1.984375 C 5.71875 -1.273438 5.191406 -0.582031 4.671875 0.09375 C 4.515625 0.351562 4.25 0.6875 3.875 1.09375 C 3.5 1.5 3.109375 1.847656 2.703125 2.140625 C 2.296875 2.429688 1.929688 2.578125 1.609375 2.578125 Z M 5.546875 -17.484375 C 5.546875 -17.515625 5.5625 -17.53125 5.59375 -17.53125 C 5.59375 -17.53125 5.59375 -17.515625 5.59375 -17.484375 C 6.050781 -18.390625 6.515625 -19.304688 6.984375 -20.234375 C 7.453125 -21.160156 7.929688 -22.078125 8.421875 -22.984375 L 9.734375 -25.609375 L 9.734375 -25.65625 C 9.703125 -25.6875 9.6875 -25.71875 9.6875 -25.75 C 9.6875 -25.6875 9.703125 -25.640625 9.734375 -25.609375 C 9.546875 -25.671875 9.453125 -25.703125 9.453125 -25.703125 C 9.316406 -25.703125 9.148438 -25.570312 8.953125 -25.3125 C 8.304688 -24.207031 7.695312 -23.09375 7.125 -21.96875 C 6.5625 -20.851562 6.050781 -19.695312 5.59375 -18.5 C 5.4375 -18.082031 5.421875 -17.742188 5.546875 -17.484375 Z M 5.546875 -17.484375 "/></g></g></g><g fill="#2b2d42" fill-opacity="1"><g transform="translate(78.950138, 49.764459)"><g><path d="M 0.25 -4.1875 C -0.40625 -4.1875 -0.765625 -4.578125 -0.828125 -5.359375 C -0.828125 -6.066406 -0.671875 -6.828125 -0.359375 -7.640625 C -0.0546875 -8.453125 0.328125 -9.226562 0.796875 -9.96875 C 1.273438 -10.71875 1.753906 -11.335938 2.234375 -11.828125 C 2.367188 -11.992188 2.613281 -12.207031 2.96875 -12.46875 C 3.488281 -12.882812 4.023438 -13.09375 4.578125 -13.09375 C 5.066406 -13.09375 5.550781 -12.898438 6.03125 -12.515625 C 6.289062 -12.347656 6.4375 -12.265625 6.46875 -12.265625 C 6.570312 -12.265625 6.71875 -12.394531 6.90625 -12.65625 C 7.070312 -12.820312 7.226562 -13 7.375 -13.1875 C 7.519531 -13.382812 7.660156 -13.582031 7.796875 -13.78125 C 7.921875 -13.976562 8.054688 -14.171875 8.203125 -14.359375 C 8.347656 -14.554688 8.488281 -14.753906 8.625 -14.953125 C 8.6875 -15.015625 8.75 -15.09375 8.8125 -15.1875 C 8.875 -15.289062 8.9375 -15.390625 9 -15.484375 C 9.070312 -15.546875 9.128906 -15.625 9.171875 -15.71875 C 9.222656 -15.820312 9.28125 -15.90625 9.34375 -15.96875 C 9.570312 -16.195312 9.769531 -16.3125 9.9375 -16.3125 C 9.9375 -16.3125 10.03125 -16.28125 10.21875 -16.21875 C 10.550781 -16.019531 10.632812 -15.691406 10.46875 -15.234375 C 10.4375 -15.109375 10.394531 -14.992188 10.34375 -14.890625 C 10.289062 -14.796875 10.234375 -14.703125 10.171875 -14.609375 C 10.046875 -14.378906 9.929688 -14.148438 9.828125 -13.921875 C 9.535156 -13.304688 9.195312 -12.539062 8.8125 -11.625 C 8.425781 -10.71875 8.09375 -9.800781 7.8125 -8.875 C 7.539062 -7.957031 7.40625 -7.140625 7.40625 -6.421875 C 7.40625 -6.128906 7.5 -5.984375 7.6875 -5.984375 C 7.789062 -5.984375 7.859375 -6 7.890625 -6.03125 C 8.117188 -6.132812 8.335938 -6.234375 8.546875 -6.328125 C 8.753906 -6.421875 8.972656 -6.535156 9.203125 -6.671875 C 9.492188 -6.867188 9.789062 -7.070312 10.09375 -7.28125 C 10.40625 -7.488281 10.707031 -7.722656 11 -7.984375 C 11.226562 -8.148438 11.4375 -8.328125 11.625 -8.515625 C 11.820312 -8.710938 12.019531 -8.894531 12.21875 -9.0625 C 12.570312 -9.414062 12.960938 -9.753906 13.390625 -10.078125 C 13.453125 -10.140625 13.523438 -10.203125 13.609375 -10.265625 C 13.691406 -10.335938 13.765625 -10.40625 13.828125 -10.46875 C 13.890625 -10.53125 14.019531 -10.628906 14.21875 -10.765625 C 14.28125 -10.796875 14.328125 -10.816406 14.359375 -10.828125 C 14.390625 -10.847656 14.421875 -10.859375 14.453125 -10.859375 C 14.585938 -10.859375 14.703125 -10.8125 14.796875 -10.71875 C 15.023438 -10.582031 15.09375 -10.335938 15 -9.984375 C 14.96875 -9.953125 14.953125 -9.925781 14.953125 -9.90625 C 14.953125 -9.894531 14.929688 -9.867188 14.890625 -9.828125 C 14.859375 -9.796875 14.828125 -9.765625 14.796875 -9.734375 C 14.765625 -9.703125 14.734375 -9.671875 14.703125 -9.640625 C 14.242188 -9.179688 13.59375 -8.570312 12.75 -7.8125 C 11.90625 -7.050781 11.035156 -6.359375 10.140625 -5.734375 C 9.253906 -5.117188 8.472656 -4.75 7.796875 -4.625 C 7.722656 -4.59375 7.578125 -4.578125 7.359375 -4.578125 C 6.546875 -4.578125 6.140625 -5.046875 6.140625 -5.984375 C 6.140625 -6.640625 6.203125 -7.289062 6.328125 -7.9375 C 6.460938 -8.582031 6.609375 -9.234375 6.765625 -9.890625 C 6.410156 -9.722656 6.164062 -9.554688 6.03125 -9.390625 C 5.96875 -9.296875 5.882812 -9.195312 5.78125 -9.09375 C 5.6875 -9 5.609375 -8.921875 5.546875 -8.859375 C 4.992188 -8.210938 4.441406 -7.585938 3.890625 -6.984375 C 3.335938 -6.378906 2.753906 -5.804688 2.140625 -5.265625 C 1.910156 -5.066406 1.617188 -4.835938 1.265625 -4.578125 C 0.910156 -4.316406 0.570312 -4.1875 0.25 -4.1875 Z M 0.6875 -5.9375 C 0.875 -5.9375 1.019531 -5.984375 1.125 -6.078125 C 1.894531 -6.734375 2.617188 -7.445312 3.296875 -8.21875 C 3.984375 -9 4.65625 -9.796875 5.3125 -10.609375 C 5.34375 -10.640625 5.375 -10.671875 5.40625 -10.703125 C 5.4375 -10.742188 5.46875 -10.796875 5.5 -10.859375 C 5.59375 -11.179688 5.53125 -11.40625 5.3125 -11.53125 C 5.050781 -11.695312 4.820312 -11.78125 4.625 -11.78125 C 4.457031 -11.78125 4.253906 -11.710938 4.015625 -11.578125 C 3.773438 -11.453125 3.585938 -11.328125 3.453125 -11.203125 C 1.929688 -9.867188 0.972656 -8.144531 0.578125 -6.03125 L 0.640625 -5.984375 C 0.671875 -5.984375 0.6875 -5.96875 0.6875 -5.9375 Z M 0.6875 -5.9375 "/></g></g></g><g fill="#2b2d42" fill-opacity="1"><g transform="translate(91.560407, 49.764459)"><g><path d="M 1.40625 0.296875 C 0.789062 0.296875 0.382812 -0.125 0.1875 -0.96875 C 0.15625 -1.132812 0.128906 -1.289062 0.109375 -1.4375 C 0.0976562 -1.582031 0.09375 -1.71875 0.09375 -1.84375 C 0.0625 -1.976562 0.046875 -2.109375 0.046875 -2.234375 C 0.046875 -2.367188 0.03125 -2.5 0 -2.625 C 0.164062 -4.382812 0.414062 -6.085938 0.75 -7.734375 C 1.09375 -9.390625 1.601562 -11.015625 2.28125 -12.609375 C 2.320312 -12.703125 2.375 -12.789062 2.4375 -12.875 C 2.5 -12.957031 2.5625 -13.03125 2.625 -13.09375 C 2.6875 -13.15625 2.785156 -13.1875 2.921875 -13.1875 C 3.046875 -13.1875 3.144531 -13.15625 3.21875 -13.09375 C 3.34375 -13.0625 3.4375 -12.945312 3.5 -12.75 C 3.53125 -12.59375 3.519531 -12.441406 3.46875 -12.296875 C 3.425781 -12.148438 3.375 -11.992188 3.3125 -11.828125 C 2.695312 -10.367188 2.207031 -8.796875 1.84375 -7.109375 C 1.488281 -5.421875 1.3125 -3.78125 1.3125 -2.1875 C 1.3125 -2.03125 1.316406 -1.867188 1.328125 -1.703125 C 1.347656 -1.535156 1.441406 -1.421875 1.609375 -1.359375 C 1.640625 -1.328125 1.71875 -1.3125 1.84375 -1.3125 C 2.007812 -1.3125 2.140625 -1.378906 2.234375 -1.515625 C 2.265625 -1.578125 2.304688 -1.628906 2.359375 -1.671875 C 2.410156 -1.722656 2.453125 -1.78125 2.484375 -1.84375 C 2.867188 -2.238281 3.296875 -2.789062 3.765625 -3.5 C 4.242188 -4.21875 4.664062 -4.957031 5.03125 -5.71875 C 5.40625 -6.476562 5.644531 -7.117188 5.75 -7.640625 C 5.96875 -8.484375 6.335938 -9.097656 6.859375 -9.484375 C 7.378906 -9.878906 8.0625 -10.125 8.90625 -10.21875 C 9.5625 -10.289062 10.210938 -10.398438 10.859375 -10.546875 C 11.503906 -10.691406 12.15625 -10.84375 12.8125 -11 C 12.9375 -11.03125 13.046875 -11.050781 13.140625 -11.0625 C 13.242188 -11.082031 13.328125 -11.09375 13.390625 -11.09375 C 13.421875 -11.09375 13.535156 -11.0625 13.734375 -11 C 13.960938 -10.875 14.078125 -10.695312 14.078125 -10.46875 C 14.078125 -10.207031 13.976562 -10.03125 13.78125 -9.9375 C 13.644531 -9.832031 13.445312 -9.78125 13.1875 -9.78125 L 9.296875 -8.953125 C 9.234375 -8.921875 9.148438 -8.90625 9.046875 -8.90625 C 8.953125 -8.90625 8.859375 -8.890625 8.765625 -8.859375 C 8.671875 -8.828125 8.570312 -8.8125 8.46875 -8.8125 C 8.375 -8.8125 8.296875 -8.796875 8.234375 -8.765625 C 7.710938 -8.671875 7.367188 -8.378906 7.203125 -7.890625 L 6.765625 -6.671875 C 6.640625 -6.210938 6.378906 -5.601562 5.984375 -4.84375 C 5.597656 -4.082031 5.144531 -3.300781 4.625 -2.5 C 4.101562 -1.707031 3.554688 -1.039062 2.984375 -0.5 C 2.421875 0.03125 1.894531 0.296875 1.40625 0.296875 Z M 1.40625 0.296875 "/></g></g></g><g fill="#2b2d42" fill-opacity="1"><g transform="translate(103.19691, 49.764459)"><g><path d="M 0.25 -4.1875 C -0.40625 -4.1875 -0.765625 -4.578125 -0.828125 -5.359375 C -0.828125 -6.066406 -0.671875 -6.828125 -0.359375 -7.640625 C -0.0546875 -8.453125 0.328125 -9.226562 0.796875 -9.96875 C 1.273438 -10.71875 1.753906 -11.335938 2.234375 -11.828125 C 2.367188 -11.992188 2.613281 -12.207031 2.96875 -12.46875 C 3.488281 -12.882812 4.023438 -13.09375 4.578125 -13.09375 C 5.066406 -13.09375 5.550781 -12.898438 6.03125 -12.515625 C 6.289062 -12.347656 6.4375 -12.265625 6.46875 -12.265625 C 6.570312 -12.265625 6.71875 -12.394531 6.90625 -12.65625 C 7.070312 -12.820312 7.226562 -13 7.375 -13.1875 C 7.519531 -13.382812 7.660156 -13.582031 7.796875 -13.78125 C 7.921875 -13.976562 8.054688 -14.171875 8.203125 -14.359375 C 8.347656 -14.554688 8.488281 -14.753906 8.625 -14.953125 C 8.6875 -15.015625 8.75 -15.09375 8.8125 -15.1875 C 8.875 -15.289062 8.9375 -15.390625 9 -15.484375 C 9.070312 -15.546875 9.128906 -15.625 9.171875 -15.71875 C 9.222656 -15.820312 9.28125 -15.90625 9.34375 -15.96875 C 9.570312 -16.195312 9.769531 -16.3125 9.9375 -16.3125 C 9.9375 -16.3125 10.03125 -16.28125 10.21875 -16.21875 C 10.550781 -16.019531 10.632812 -15.691406 10.46875 -15.234375 C 10.4375 -15.109375 10.394531 -14.992188 10.34375 -14.890625 C 10.289062 -14.796875 10.234375 -14.703125 10.171875 -14.609375 C 10.046875 -14.378906 9.929688 -14.148438 9.828125 -13.921875 C 9.535156 -13.304688 9.195312 -12.539062 8.8125 -11.625 C 8.425781 -10.71875 8.09375 -9.800781 7.8125 -8.875 C 7.539062 -7.957031 7.40625 -7.140625 7.40625 -6.421875 C 7.40625 -6.128906 7.5 -5.984375 7.6875 -5.984375 C 7.789062 -5.984375 7.859375 -6 7.890625 -6.03125 C 8.117188 -6.132812 8.335938 -6.234375 8.546875 -6.328125 C 8.753906 -6.421875 8.972656 -6.535156 9.203125 -6.671875 C 9.492188 -6.867188 9.789062 -7.070312 10.09375 -7.28125 C 10.40625 -7.488281 10.707031 -7.722656 11 -7.984375 C 11.226562 -8.148438 11.4375 -8.328125 11.625 -8.515625 C 11.820312 -8.710938 12.019531 -8.894531 12.21875 -9.0625 C 12.570312 -9.414062 12.960938 -9.753906 13.390625 -10.078125 C 13.453125 -10.140625 13.523438 -10.203125 13.609375 -10.265625 C 13.691406 -10.335938 13.765625 -10.40625 13.828125 -10.46875 C 13.890625 -10.53125 14.019531 -10.628906 14.21875 -10.765625 C 14.28125 -10.796875 14.328125 -10.816406 14.359375 -10.828125 C 14.390625 -10.847656 14.421875 -10.859375 14.453125 -10.859375 C 14.585938 -10.859375 14.703125 -10.8125 14.796875 -10.71875 C 15.023438 -10.582031 15.09375 -10.335938 15 -9.984375 C 14.96875 -9.953125 14.953125 -9.925781 14.953125 -9.90625 C 14.953125 -9.894531 14.929688 -9.867188 14.890625 -9.828125 C 14.859375 -9.796875 14.828125 -9.765625 14.796875 -9.734375 C 14.765625 -9.703125 14.734375 -9.671875 14.703125 -9.640625 C 14.242188 -9.179688 13.59375 -8.570312 12.75 -7.8125 C 11.90625 -7.050781 11.035156 -6.359375 10.140625 -5.734375 C 9.253906 -5.117188 8.472656 -4.75 7.796875 -4.625 C 7.722656 -4.59375 7.578125 -4.578125 7.359375 -4.578125 C 6.546875 -4.578125 6.140625 -5.046875 6.140625 -5.984375 C 6.140625 -6.640625 6.203125 -7.289062 6.328125 -7.9375 C 6.460938 -8.582031 6.609375 -9.234375 6.765625 -9.890625 C 6.410156 -9.722656 6.164062 -9.554688 6.03125 -9.390625 C 5.96875 -9.296875 5.882812 -9.195312 5.78125 -9.09375 C 5.6875 -9 5.609375 -8.921875 5.546875 -8.859375 C 4.992188 -8.210938 4.441406 -7.585938 3.890625 -6.984375 C 3.335938 -6.378906 2.753906 -5.804688 2.140625 -5.265625 C 1.910156 -5.066406 1.617188 -4.835938 1.265625 -4.578125 C 0.910156 -4.316406 0.570312 -4.1875 0.25 -4.1875 Z M 0.6875 -5.9375 C 0.875 -5.9375 1.019531 -5.984375 1.125 -6.078125 C 1.894531 -6.734375 2.617188 -7.445312 3.296875 -8.21875 C 3.984375 -9 4.65625 -9.796875 5.3125 -10.609375 C 5.34375 -10.640625 5.375 -10.671875 5.40625 -10.703125 C 5.4375 -10.742188 5.46875 -10.796875 5.5 -10.859375 C 5.59375 -11.179688 5.53125 -11.40625 5.3125 -11.53125 C 5.050781 -11.695312 4.820312 -11.78125 4.625 -11.78125 C 4.457031 -11.78125 4.253906 -11.710938 4.015625 -11.578125 C 3.773438 -11.453125 3.585938 -11.328125 3.453125 -11.203125 C 1.929688 -9.867188 0.972656 -8.144531 0.578125 -6.03125 L 0.640625 -5.984375 C 0.671875 -5.984375 0.6875 -5.96875 0.6875 -5.9375 Z M 0.6875 -5.9375 "/></g></g></g><g fill="#2b2d42" fill-opacity="1"><g transform="translate(115.807182, 49.764459)"><g><path d="M 0.875 3.453125 C 0.257812 3.453125 -0.148438 3.109375 -0.359375 2.421875 C -0.578125 1.742188 -0.6875 1.128906 -0.6875 0.578125 C -0.6875 -0.972656 -0.488281 -2.695312 -0.09375 -4.59375 C 0.289062 -6.5 0.765625 -8.375 1.328125 -10.21875 C 1.898438 -12.070312 2.445312 -13.726562 2.96875 -15.1875 C 3.132812 -15.644531 3.289062 -16.078125 3.4375 -16.484375 C 3.582031 -16.890625 3.734375 -17.300781 3.890625 -17.71875 C 4.023438 -18.070312 4.066406 -18.320312 4.015625 -18.46875 C 3.960938 -18.625 3.789062 -18.703125 3.5 -18.703125 L 3.109375 -18.703125 C 2.785156 -18.660156 2.460938 -18.625 2.140625 -18.59375 C 1.816406 -18.5625 1.492188 -18.515625 1.171875 -18.453125 C 0.847656 -18.421875 0.515625 -18.378906 0.171875 -18.328125 C -0.171875 -18.273438 -0.503906 -18.234375 -0.828125 -18.203125 C -1.023438 -18.171875 -1.226562 -18.140625 -1.4375 -18.109375 C -1.644531 -18.078125 -1.847656 -18.0625 -2.046875 -18.0625 C -2.304688 -18.0625 -2.484375 -18.078125 -2.578125 -18.109375 C -2.742188 -18.140625 -2.859375 -18.238281 -2.921875 -18.40625 C -2.984375 -18.726562 -2.898438 -18.90625 -2.671875 -18.9375 C -2.546875 -18.96875 -2.429688 -19 -2.328125 -19.03125 C -2.234375 -19.0625 -2.140625 -19.097656 -2.046875 -19.140625 C -1.910156 -19.171875 -1.785156 -19.191406 -1.671875 -19.203125 C -1.566406 -19.222656 -1.445312 -19.25 -1.3125 -19.28125 C -0.863281 -19.34375 -0.421875 -19.40625 0.015625 -19.46875 C 0.460938 -19.539062 0.894531 -19.59375 1.3125 -19.625 C 1.769531 -19.6875 2.207031 -19.738281 2.625 -19.78125 C 3.050781 -19.832031 3.472656 -19.875 3.890625 -19.90625 C 4.472656 -19.945312 4.878906 -20.222656 5.109375 -20.734375 L 6.421875 -23.65625 C 6.554688 -23.851562 6.671875 -24.046875 6.765625 -24.234375 C 6.859375 -24.429688 6.972656 -24.628906 7.109375 -24.828125 C 7.203125 -25.023438 7.304688 -25.21875 7.421875 -25.40625 C 7.535156 -25.601562 7.660156 -25.800781 7.796875 -26 C 8.148438 -26.582031 8.488281 -26.875 8.8125 -26.875 C 9.007812 -26.875 9.15625 -26.757812 9.25 -26.53125 C 9.3125 -26.207031 9.226562 -25.851562 9 -25.46875 C 8.75 -24.8125 8.46875 -24.160156 8.15625 -23.515625 C 7.84375 -22.867188 7.523438 -22.21875 7.203125 -21.5625 C 7.171875 -21.5 7.140625 -21.414062 7.109375 -21.3125 C 7.078125 -21.21875 7.046875 -21.140625 7.015625 -21.078125 C 6.910156 -20.890625 6.859375 -20.664062 6.859375 -20.40625 C 6.992188 -20.363281 7.109375 -20.332031 7.203125 -20.3125 C 7.304688 -20.300781 7.40625 -20.296875 7.5 -20.296875 C 7.625 -20.296875 7.722656 -20.3125 7.796875 -20.34375 C 7.859375 -20.34375 7.90625 -20.34375 7.9375 -20.34375 C 7.96875 -20.34375 8 -20.34375 8.03125 -20.34375 C 8.71875 -20.414062 9.425781 -20.488281 10.15625 -20.5625 C 10.882812 -20.644531 11.65625 -20.722656 12.46875 -20.796875 C 13.28125 -20.859375 14.050781 -20.921875 14.78125 -20.984375 C 15.507812 -21.046875 16.210938 -21.109375 16.890625 -21.171875 L 18.640625 -21.171875 C 18.867188 -21.171875 19 -21.007812 19.03125 -20.6875 C 19.03125 -20.425781 18.9375 -20.265625 18.75 -20.203125 C 18.613281 -20.171875 18.492188 -20.144531 18.390625 -20.125 C 18.296875 -20.113281 18.203125 -20.109375 18.109375 -20.109375 C 18.015625 -20.078125 17.914062 -20.0625 17.8125 -20.0625 C 17.71875 -20.0625 17.609375 -20.046875 17.484375 -20.015625 L 7.015625 -19.078125 C 6.296875 -19.015625 5.820312 -18.691406 5.59375 -18.109375 C 5.300781 -17.492188 4.953125 -16.609375 4.546875 -15.453125 C 4.140625 -14.304688 3.71875 -13.066406 3.28125 -11.734375 C 2.84375 -10.398438 2.445312 -9.132812 2.09375 -7.9375 C 1.738281 -6.738281 1.476562 -5.78125 1.3125 -5.0625 C 1.113281 -4.25 0.957031 -3.441406 0.84375 -2.640625 C 0.738281 -1.847656 0.648438 -1.03125 0.578125 -0.1875 C 0.546875 0.164062 0.519531 0.546875 0.5 0.953125 C 0.488281 1.359375 0.660156 1.707031 1.015625 2 C 1.378906 1.96875 1.707031 1.804688 2 1.515625 C 2.125 1.347656 2.242188 1.191406 2.359375 1.046875 C 2.472656 0.898438 2.59375 0.765625 2.71875 0.640625 C 3.238281 -0.015625 3.863281 -0.851562 4.59375 -1.875 C 5.332031 -2.894531 6.082031 -3.941406 6.84375 -5.015625 C 7.601562 -6.085938 8.304688 -7.0625 8.953125 -7.9375 C 9.609375 -8.8125 10.113281 -9.425781 10.46875 -9.78125 C 10.53125 -9.882812 10.609375 -9.984375 10.703125 -10.078125 C 10.804688 -10.171875 10.890625 -10.269531 10.953125 -10.375 C 11.117188 -10.53125 11.3125 -10.660156 11.53125 -10.765625 C 11.570312 -10.765625 11.609375 -10.78125 11.640625 -10.8125 C 11.671875 -10.8125 11.6875 -10.8125 11.6875 -10.8125 C 11.6875 -10.8125 11.703125 -10.8125 11.734375 -10.8125 C 11.765625 -10.8125 11.878906 -10.78125 12.078125 -10.71875 C 12.335938 -10.519531 12.382812 -10.273438 12.21875 -9.984375 C 12.21875 -9.878906 12.171875 -9.78125 12.078125 -9.6875 C 11.585938 -9.101562 10.941406 -8.273438 10.140625 -7.203125 C 9.347656 -6.128906 8.613281 -5.125 7.9375 -4.1875 C 7.125 -3.082031 6.296875 -1.96875 5.453125 -0.84375 C 4.609375 0.269531 3.796875 1.28125 3.015625 2.1875 C 2.785156 2.476562 2.46875 2.757812 2.0625 3.03125 C 1.65625 3.3125 1.257812 3.453125 0.875 3.453125 Z M 0.875 3.453125 "/></g></g></g><g fill="#2b2d42" fill-opacity="1"><g transform="translate(125.593531, 49.764459)"><g><path d="M 2.28125 -2.046875 C 0.957031 -2.046875 0.132812 -2.644531 -0.1875 -3.84375 C -0.289062 -4.101562 -0.375 -4.378906 -0.4375 -4.671875 C -0.5 -4.960938 -0.515625 -5.238281 -0.484375 -5.5 C -0.515625 -5.925781 -0.488281 -6.316406 -0.40625 -6.671875 C -0.332031 -7.023438 -0.242188 -7.378906 -0.140625 -7.734375 C 0.148438 -8.515625 0.546875 -9.351562 1.046875 -10.25 C 1.546875 -11.144531 2.144531 -11.929688 2.84375 -12.609375 C 3.539062 -13.285156 4.3125 -13.691406 5.15625 -13.828125 C 5.257812 -13.828125 5.328125 -13.84375 5.359375 -13.875 C 5.390625 -13.875 5.421875 -13.875 5.453125 -13.875 C 5.484375 -13.875 5.515625 -13.875 5.546875 -13.875 C 6.035156 -13.875 6.414062 -13.710938 6.6875 -13.390625 C 6.96875 -13.066406 7.078125 -12.628906 7.015625 -12.078125 C 6.878906 -11.296875 6.492188 -10.488281 5.859375 -9.65625 C 5.234375 -8.832031 4.5 -8.132812 3.65625 -7.5625 C 2.8125 -7 2 -6.671875 1.21875 -6.578125 C 0.988281 -6.503906 0.859375 -6.359375 0.828125 -6.140625 C 0.703125 -5.617188 0.75 -5.050781 0.96875 -4.4375 C 1.070312 -3.882812 1.257812 -3.554688 1.53125 -3.453125 C 1.8125 -3.359375 2.175781 -3.3125 2.625 -3.3125 C 3.601562 -3.507812 4.601562 -3.9375 5.625 -4.59375 C 6.644531 -5.257812 7.515625 -5.921875 8.234375 -6.578125 C 8.523438 -6.835938 8.816406 -7.113281 9.109375 -7.40625 C 9.398438 -7.695312 9.691406 -7.972656 9.984375 -8.234375 C 10.242188 -8.492188 10.519531 -8.757812 10.8125 -9.03125 C 11.101562 -9.3125 11.394531 -9.578125 11.6875 -9.828125 C 11.75 -9.898438 11.828125 -9.972656 11.921875 -10.046875 C 12.023438 -10.128906 12.109375 -10.203125 12.171875 -10.265625 C 12.234375 -10.335938 12.304688 -10.410156 12.390625 -10.484375 C 12.472656 -10.566406 12.546875 -10.644531 12.609375 -10.71875 C 12.773438 -10.8125 12.90625 -10.859375 13 -10.859375 C 13.125 -10.859375 13.238281 -10.8125 13.34375 -10.71875 C 13.601562 -10.488281 13.648438 -10.242188 13.484375 -9.984375 C 13.453125 -9.878906 13.320312 -9.71875 13.09375 -9.5 C 12.507812 -8.875 11.78125 -8.140625 10.90625 -7.296875 C 10.03125 -6.453125 9.085938 -5.632812 8.078125 -4.84375 C 7.078125 -4.050781 6.070312 -3.382812 5.0625 -2.84375 C 4.050781 -2.3125 3.125 -2.046875 2.28125 -2.046875 Z M 1.84375 -8.03125 C 2.269531 -8.257812 2.78125 -8.597656 3.375 -9.046875 C 3.976562 -9.503906 4.515625 -10 4.984375 -10.53125 C 5.460938 -11.070312 5.703125 -11.601562 5.703125 -12.125 C 5.660156 -12.445312 5.515625 -12.578125 5.265625 -12.515625 C 4.742188 -12.453125 4.222656 -12.175781 3.703125 -11.6875 C 3.179688 -11.195312 2.722656 -10.644531 2.328125 -10.03125 C 1.941406 -9.414062 1.648438 -8.847656 1.453125 -8.328125 C 1.453125 -8.160156 1.488281 -8.078125 1.5625 -8.078125 C 1.71875 -8.015625 1.8125 -8 1.84375 -8.03125 Z M 1.84375 -8.03125 "/></g></g></g></svg>