<svg xmlns="http://www.w3.org/2000/svg" xmlns:xlink="http://www.w3.org/1999/xlink" width="100" zoomAndPan="magnify" viewBox="0 0 75 74.999997" height="100" preserveAspectRatio="xMidYMid meet" version="1.0"><path fill="#eba7ae" d="M 37.5 0 C 16.789062 0 0 16.789062 0 37.5 C 0 58.210938 16.789062 75 37.5 75 C 58.210938 75 75 58.210938 75 37.5 C 75 16.789062 58.210938 0 37.5 0 Z M 14.644531 19.5625 L 60.308594 19.5625 C 60.421875 19.5625 60.5 19.613281 60.542969 19.722656 C 60.585938 19.828125 60.566406 19.917969 60.484375 20 L 45.132812 34.566406 L 45.105469 34.589844 L 40.523438 38.941406 C 40.304688 39.152344 40.066406 39.335938 39.8125 39.5 C 39.558594 39.664062 39.289062 39.800781 39.007812 39.914062 C 38.726562 40.023438 38.4375 40.109375 38.140625 40.164062 C 37.84375 40.21875 37.542969 40.246094 37.242188 40.246094 C 36.9375 40.242188 36.640625 40.214844 36.34375 40.15625 C 36.046875 40.09375 35.757812 40.007812 35.476562 39.894531 C 35.199219 39.777344 34.933594 39.636719 34.679688 39.472656 C 34.425781 39.304688 34.191406 39.117188 33.972656 38.90625 L 29.730469 34.792969 C 29.722656 34.785156 29.714844 34.777344 29.707031 34.773438 L 14.46875 19.996094 C 14.386719 19.917969 14.367188 19.824219 14.410156 19.71875 C 14.453125 19.613281 14.53125 19.5625 14.644531 19.5625 Z M 12.492188 52.917969 L 12.492188 21.578125 C 12.492188 21.46875 12.542969 21.390625 12.644531 21.347656 C 12.75 21.304688 12.839844 21.320312 12.917969 21.398438 L 27.402344 35.441406 C 27.515625 35.550781 27.519531 35.664062 27.421875 35.785156 L 12.9375 53.082031 C 12.863281 53.171875 12.769531 53.195312 12.65625 53.15625 C 12.546875 53.113281 12.492188 53.035156 12.492188 52.917969 Z M 60.777344 55.4375 L 14.222656 55.4375 C 14.113281 55.4375 14.039062 55.386719 13.992188 55.292969 C 13.949219 55.195312 13.960938 55.105469 14.027344 55.023438 L 28.898438 37.265625 C 28.945312 37.210938 29.003906 37.179688 29.078125 37.175781 C 29.152344 37.171875 29.214844 37.195312 29.265625 37.246094 L 32.519531 40.402344 C 33.152344 41.015625 33.875 41.488281 34.6875 41.820312 C 35.5 42.152344 36.347656 42.320312 37.226562 42.324219 L 37.265625 42.324219 C 38.136719 42.324219 38.980469 42.164062 39.789062 41.839844 C 40.601562 41.519531 41.324219 41.054688 41.957031 40.453125 L 45.558594 37.035156 C 45.609375 36.984375 45.671875 36.960938 45.746094 36.964844 C 45.816406 36.96875 45.878906 37 45.921875 37.054688 L 60.96875 55.023438 C 61.039062 55.105469 61.050781 55.195312 61.003906 55.289062 C 60.960938 55.386719 60.886719 55.4375 60.777344 55.4375 Z M 62.507812 52.917969 C 62.507812 53.035156 62.453125 53.113281 62.34375 53.15625 C 62.230469 53.195312 62.136719 53.167969 62.0625 53.078125 L 47.417969 35.59375 C 47.316406 35.472656 47.324219 35.355469 47.4375 35.246094 L 62.082031 21.351562 C 62.164062 21.273438 62.253906 21.257812 62.355469 21.304688 C 62.457031 21.347656 62.507812 21.421875 62.507812 21.535156 Z M 62.507812 52.917969 " fill-opacity="1" fill-rule="nonzero"/></svg>