<svg xmlns="http://www.w3.org/2000/svg" xmlns:xlink="http://www.w3.org/1999/xlink" width="100" zoomAndPan="magnify" viewBox="0 0 75 74.999997" height="100" preserveAspectRatio="xMidYMid meet" version="1.0"><defs><clipPath id="3dfc33baf7"><path d="M 0.0703125 0 L 75 0 L 75 75 L 0.0703125 75 Z M 0.0703125 0 " clip-rule="nonzero"/></clipPath></defs><g clip-path="url(#3dfc33baf7)"><path fill="#eba7ae" d="M 74.992188 37.460938 C 74.992188 58.148438 58.21875 74.921875 37.53125 74.921875 C 16.839844 74.921875 0.0664062 58.148438 0.0664062 37.460938 C 0.0664062 16.769531 16.839844 -0.00390625 37.53125 -0.00390625 C 58.21875 -0.00390625 74.992188 16.769531 74.992188 37.460938 Z M 74.992188 37.460938 " fill-opacity="1" fill-rule="nonzero"/></g><path fill="#ffffff" d="M 23.382812 18.796875 L 52.429688 18.796875 C 55.1875 18.796875 57.445312 21.054688 57.445312 23.816406 L 57.445312 52.859375 C 57.445312 55.617188 55.1875 57.875 52.429688 57.875 L 23.382812 57.875 C 20.625 57.875 18.367188 55.617188 18.367188 52.859375 L 18.367188 23.816406 C 18.367188 21.054688 20.625 18.796875 23.382812 18.796875 Z M 46.835938 23.136719 C 45.863281 23.136719 45.074219 23.933594 45.074219 24.898438 L 45.074219 29.109375 C 45.074219 30.078125 45.863281 30.871094 46.835938 30.871094 L 51.25 30.871094 C 52.21875 30.871094 53.011719 30.078125 53.011719 29.109375 L 53.011719 24.898438 C 53.011719 23.933594 52.21875 23.136719 51.25 23.136719 Z M 53.027344 35.324219 L 49.585938 35.324219 C 49.914062 36.386719 50.089844 37.511719 50.089844 38.679688 C 50.089844 45.175781 44.648438 50.445312 37.941406 50.445312 C 31.234375 50.445312 25.792969 45.175781 25.792969 38.679688 C 25.792969 37.511719 25.972656 36.386719 26.296875 35.324219 L 22.710938 35.324219 L 22.710938 51.832031 C 22.710938 52.6875 23.410156 53.378906 24.261719 53.378906 L 51.472656 53.378906 C 52.328125 53.378906 53.027344 52.6875 53.027344 51.832031 Z M 37.941406 30.648438 C 33.609375 30.648438 30.09375 34.050781 30.09375 38.253906 C 30.09375 42.449219 33.609375 45.855469 37.941406 45.855469 C 42.277344 45.855469 45.792969 42.449219 45.792969 38.253906 C 45.792969 34.050781 42.277344 30.648438 37.941406 30.648438 Z M 37.941406 30.648438 " fill-opacity="1" fill-rule="nonzero"/></svg>