<svg xmlns="http://www.w3.org/2000/svg" xmlns:xlink="http://www.w3.org/1999/xlink" width="250" zoomAndPan="magnify" viewBox="0 0 187.5 74.999997" height="100" preserveAspectRatio="xMidYMid meet" version="1.0"><defs><g/></defs><g fill="#2b2d42" fill-opacity="1"><g transform="translate(9.069564, 41.98803)"><g><path d="M 3.53125 2.59375 C 3.25 2.59375 3.035156 2.492188 2.890625 2.296875 C 2.597656 1.953125 2.5625 1.582031 2.78125 1.1875 C 3.03125 0.738281 3.382812 0.3125 3.84375 -0.09375 C 4.3125 -0.5 4.757812 -0.832031 5.1875 -1.09375 C 5.34375 -1.164062 5.488281 -1.25 5.625 -1.34375 C 5.757812 -1.4375 5.898438 -1.523438 6.046875 -1.609375 C 6.179688 -1.691406 6.320312 -1.773438 6.46875 -1.859375 C 6.613281 -1.953125 6.765625 -2.035156 6.921875 -2.109375 C 7.140625 -2.253906 7.296875 -2.445312 7.390625 -2.6875 C 7.492188 -2.925781 7.5625 -3.175781 7.59375 -3.4375 C 7.6875 -4.34375 7.285156 -4.8125 6.390625 -4.84375 C 6.128906 -4.84375 5.890625 -4.820312 5.671875 -4.78125 C 5.503906 -4.75 5.328125 -4.707031 5.140625 -4.65625 C 4.960938 -4.613281 4.789062 -4.578125 4.625 -4.546875 C 4.4375 -4.515625 4.25 -4.476562 4.0625 -4.4375 C 3.882812 -4.394531 3.710938 -4.359375 3.546875 -4.328125 C 3.316406 -4.273438 3.082031 -4.226562 2.84375 -4.1875 C 2.601562 -4.144531 2.359375 -4.125 2.109375 -4.125 C 1.609375 -4.125 1.179688 -4.242188 0.828125 -4.484375 C 0.484375 -4.722656 0.242188 -5.09375 0.109375 -5.59375 C 0.00390625 -5.988281 -0.0351562 -6.382812 -0.015625 -6.78125 C 0.00390625 -7.175781 0.0703125 -7.570312 0.1875 -7.96875 C 0.382812 -8.8125 0.71875 -9.65625 1.1875 -10.5 C 1.664062 -11.34375 2.234375 -12.125 2.890625 -12.84375 C 3.554688 -13.5625 4.253906 -14.164062 4.984375 -14.65625 C 5.441406 -14.957031 5.929688 -15.210938 6.453125 -15.421875 C 6.984375 -15.640625 7.523438 -15.75 8.078125 -15.75 C 8.703125 -15.75 9.25 -15.59375 9.71875 -15.28125 C 10.195312 -14.96875 10.453125 -14.484375 10.484375 -13.828125 C 10.515625 -13.492188 10.484375 -13.195312 10.390625 -12.9375 C 10.109375 -11.9375 9.632812 -10.988281 8.96875 -10.09375 C 8.75 -9.851562 8.488281 -9.613281 8.1875 -9.375 C 7.894531 -9.144531 7.578125 -9.03125 7.234375 -9.03125 C 7.160156 -9.03125 7.085938 -9.039062 7.015625 -9.0625 C 6.953125 -9.082031 6.910156 -9.140625 6.890625 -9.234375 C 6.878906 -9.335938 6.925781 -9.4375 7.03125 -9.53125 C 7.0625 -9.5625 7.09375 -9.578125 7.125 -9.578125 C 7.15625 -9.578125 7.175781 -9.582031 7.1875 -9.59375 C 7.519531 -9.65625 7.84375 -9.835938 8.15625 -10.140625 C 8.476562 -10.441406 8.769531 -10.804688 9.03125 -11.234375 C 9.300781 -11.660156 9.515625 -12.085938 9.671875 -12.515625 C 9.835938 -12.953125 9.921875 -13.332031 9.921875 -13.65625 C 9.921875 -14.195312 9.738281 -14.582031 9.375 -14.8125 C 9.007812 -15.039062 8.582031 -15.15625 8.09375 -15.15625 C 7.675781 -15.15625 7.238281 -15.070312 6.78125 -14.90625 C 6.320312 -14.738281 5.921875 -14.539062 5.578125 -14.3125 C 3.148438 -12.75 1.535156 -10.5625 0.734375 -7.75 C 0.648438 -7.445312 0.597656 -7.148438 0.578125 -6.859375 C 0.554688 -6.578125 0.578125 -6.289062 0.640625 -6 C 0.785156 -5.125 1.257812 -4.6875 2.0625 -4.6875 C 2.125 -4.6875 2.171875 -4.691406 2.203125 -4.703125 C 2.222656 -4.703125 2.242188 -4.703125 2.265625 -4.703125 C 2.285156 -4.703125 2.304688 -4.703125 2.328125 -4.703125 C 2.410156 -4.722656 2.5 -4.742188 2.59375 -4.765625 C 2.6875 -4.785156 2.773438 -4.804688 2.859375 -4.828125 C 2.953125 -4.835938 3.046875 -4.847656 3.140625 -4.859375 C 3.234375 -4.878906 3.320312 -4.894531 3.40625 -4.90625 C 3.570312 -4.9375 3.742188 -4.972656 3.921875 -5.015625 C 4.097656 -5.066406 4.269531 -5.109375 4.4375 -5.140625 C 4.601562 -5.171875 4.769531 -5.203125 4.9375 -5.234375 C 5.101562 -5.273438 5.269531 -5.3125 5.4375 -5.34375 C 5.613281 -5.394531 5.789062 -5.421875 5.96875 -5.421875 C 6.15625 -5.429688 6.347656 -5.4375 6.546875 -5.4375 C 7.078125 -5.40625 7.488281 -5.222656 7.78125 -4.890625 C 8.082031 -4.566406 8.226562 -4.144531 8.21875 -3.625 C 8.21875 -3.53125 8.203125 -3.421875 8.171875 -3.296875 C 8.140625 -3.171875 8.144531 -3.054688 8.1875 -2.953125 L 8.28125 -2.953125 C 8.40625 -2.953125 8.503906 -2.984375 8.578125 -3.046875 C 8.609375 -3.078125 8.644531 -3.101562 8.6875 -3.125 C 8.738281 -3.144531 8.773438 -3.164062 8.796875 -3.1875 L 11.828125 -4.78125 C 11.859375 -4.789062 11.894531 -4.800781 11.9375 -4.8125 C 11.988281 -4.832031 12.035156 -4.851562 12.078125 -4.875 C 12.109375 -4.882812 12.144531 -4.894531 12.1875 -4.90625 C 12.238281 -4.925781 12.28125 -4.941406 12.3125 -4.953125 C 12.320312 -4.972656 12.351562 -4.984375 12.40625 -4.984375 C 12.476562 -4.984375 12.535156 -4.945312 12.578125 -4.875 C 12.597656 -4.84375 12.609375 -4.8125 12.609375 -4.78125 C 12.617188 -4.75 12.625 -4.71875 12.625 -4.6875 C 12.625 -4.613281 12.601562 -4.5625 12.5625 -4.53125 C 12.476562 -4.445312 12.394531 -4.382812 12.3125 -4.34375 C 12.257812 -4.332031 12.210938 -4.3125 12.171875 -4.28125 C 12.128906 -4.257812 12.082031 -4.234375 12.03125 -4.203125 C 11.75 -4.054688 11.457031 -3.898438 11.15625 -3.734375 C 10.863281 -3.578125 10.566406 -3.414062 10.265625 -3.25 C 9.648438 -2.914062 9.035156 -2.597656 8.421875 -2.296875 C 7.972656 -2.066406 7.65625 -1.738281 7.46875 -1.3125 C 7.320312 -1.007812 7.125 -0.660156 6.875 -0.265625 C 6.625 0.117188 6.335938 0.503906 6.015625 0.890625 C 5.691406 1.285156 5.347656 1.628906 4.984375 1.921875 C 4.628906 2.210938 4.296875 2.40625 3.984375 2.5 C 3.859375 2.5625 3.707031 2.59375 3.53125 2.59375 Z M 3.578125 2 C 3.628906 2 3.664062 1.992188 3.6875 1.984375 C 3.832031 1.921875 3.984375 1.84375 4.140625 1.75 C 4.628906 1.457031 5.097656 1.039062 5.546875 0.5 C 6.003906 -0.03125 6.335938 -0.597656 6.546875 -1.203125 C 6.234375 -1.023438 5.835938 -0.78125 5.359375 -0.46875 C 4.878906 -0.15625 4.4375 0.171875 4.03125 0.515625 C 3.632812 0.867188 3.375 1.210938 3.25 1.546875 C 3.21875 1.671875 3.25 1.785156 3.34375 1.890625 C 3.414062 1.960938 3.492188 2 3.578125 2 Z M 3.578125 2 "/></g></g></g><g fill="#2b2d42" fill-opacity="1"><g transform="translate(20.555296, 41.98803)"><g><path d="M 0.953125 -1.140625 C 0.679688 -1.140625 0.4375 -1.222656 0.21875 -1.390625 C 0.0078125 -1.554688 -0.125 -1.789062 -0.1875 -2.09375 C -0.226562 -2.320312 -0.242188 -2.519531 -0.234375 -2.6875 C -0.203125 -3 -0.113281 -3.363281 0.03125 -3.78125 C 0.1875 -4.195312 0.394531 -4.585938 0.65625 -4.953125 C 0.914062 -5.316406 1.191406 -5.554688 1.484375 -5.671875 C 1.566406 -5.710938 1.664062 -5.734375 1.78125 -5.734375 C 1.914062 -5.710938 2 -5.632812 2.03125 -5.5 C 2.050781 -5.320312 2.003906 -5.222656 1.890625 -5.203125 C 1.628906 -5.160156 1.429688 -5.054688 1.296875 -4.890625 C 1.160156 -4.722656 1.03125 -4.539062 0.90625 -4.34375 C 0.695312 -3.9375 0.546875 -3.550781 0.453125 -3.1875 C 0.390625 -3.019531 0.359375 -2.800781 0.359375 -2.53125 C 0.359375 -2.082031 0.507812 -1.820312 0.8125 -1.75 C 1 -1.75 1.148438 -1.769531 1.265625 -1.8125 C 1.390625 -1.863281 1.503906 -1.976562 1.609375 -2.15625 C 1.765625 -2.40625 1.859375 -2.648438 1.890625 -2.890625 C 1.921875 -3.128906 1.851562 -3.378906 1.6875 -3.640625 C 1.59375 -3.796875 1.515625 -3.945312 1.453125 -4.09375 C 1.421875 -4.164062 1.429688 -4.234375 1.484375 -4.296875 C 1.535156 -4.367188 1.601562 -4.414062 1.6875 -4.4375 L 2.390625 -4.4375 C 2.816406 -4.4375 3.238281 -4.503906 3.65625 -4.640625 C 3.769531 -4.671875 3.878906 -4.707031 3.984375 -4.75 C 4.085938 -4.800781 4.191406 -4.84375 4.296875 -4.875 C 4.398438 -4.894531 4.5 -4.925781 4.59375 -4.96875 C 4.695312 -5.019531 4.800781 -5.0625 4.90625 -5.09375 L 5.28125 -5.1875 C 5.394531 -5.1875 5.492188 -5.125 5.578125 -5 C 5.648438 -4.820312 5.585938 -4.703125 5.390625 -4.640625 C 5.179688 -4.566406 4.96875 -4.488281 4.75 -4.40625 C 4.539062 -4.332031 4.332031 -4.257812 4.125 -4.1875 C 3.90625 -4.113281 3.6875 -4.046875 3.46875 -3.984375 C 3.25 -3.929688 3.019531 -3.894531 2.78125 -3.875 C 2.5625 -3.84375 2.441406 -3.804688 2.421875 -3.765625 C 2.398438 -3.722656 2.40625 -3.601562 2.4375 -3.40625 C 2.53125 -2.96875 2.476562 -2.535156 2.28125 -2.109375 C 2.125 -1.796875 1.894531 -1.53125 1.59375 -1.3125 C 1.382812 -1.195312 1.171875 -1.140625 0.953125 -1.140625 Z M 0.953125 -1.140625 "/></g></g></g><g fill="#2b2d42" fill-opacity="1"><g transform="translate(25.013127, 41.98803)"><g><path d="M 1.4375 -0.9375 C 0.800781 -0.9375 0.359375 -1.101562 0.109375 -1.4375 C -0.140625 -1.78125 -0.253906 -2.195312 -0.234375 -2.6875 C -0.234375 -2.757812 -0.226562 -2.820312 -0.21875 -2.875 C -0.207031 -2.925781 -0.195312 -2.984375 -0.1875 -3.046875 C -0.0195312 -3.679688 0.21875 -4.265625 0.53125 -4.796875 C 0.84375 -5.328125 1.25 -5.8125 1.75 -6.25 C 2.019531 -6.476562 2.300781 -6.59375 2.59375 -6.59375 C 2.800781 -6.59375 3.015625 -6.53125 3.234375 -6.40625 C 3.460938 -6.289062 3.59375 -6.113281 3.625 -5.875 C 3.707031 -5.289062 3.550781 -4.757812 3.15625 -4.28125 C 3.125 -4.226562 3.066406 -4.1875 2.984375 -4.15625 C 2.960938 -4.15625 2.953125 -4.15625 2.953125 -4.15625 C 2.953125 -4.144531 2.945312 -4.140625 2.9375 -4.140625 C 2.832031 -4.140625 2.78125 -4.1875 2.78125 -4.28125 C 2.757812 -4.351562 2.773438 -4.425781 2.828125 -4.5 C 2.835938 -4.53125 2.847656 -4.5625 2.859375 -4.59375 C 2.878906 -4.632812 2.894531 -4.671875 2.90625 -4.703125 C 2.988281 -4.828125 3.046875 -4.960938 3.078125 -5.109375 C 3.117188 -5.253906 3.125 -5.398438 3.09375 -5.546875 C 3.0625 -5.847656 2.914062 -6 2.65625 -6 C 2.539062 -6 2.425781 -5.960938 2.3125 -5.890625 C 2.195312 -5.828125 2.101562 -5.757812 2.03125 -5.6875 C 1.21875 -4.976562 0.675781 -4.078125 0.40625 -2.984375 C 0.144531 -1.992188 0.488281 -1.5 1.4375 -1.5 C 1.5 -1.5 1.539062 -1.507812 1.5625 -1.53125 C 1.59375 -1.53125 1.617188 -1.53125 1.640625 -1.53125 C 1.671875 -1.53125 1.691406 -1.53125 1.703125 -1.53125 C 2.234375 -1.601562 2.765625 -1.78125 3.296875 -2.0625 C 3.828125 -2.34375 4.304688 -2.625 4.734375 -2.90625 C 4.929688 -3.0625 5.125 -3.21875 5.3125 -3.375 C 5.5 -3.539062 5.691406 -3.695312 5.890625 -3.84375 C 6.085938 -4 6.28125 -4.148438 6.46875 -4.296875 C 6.65625 -4.453125 6.847656 -4.601562 7.046875 -4.75 C 7.078125 -4.78125 7.113281 -4.8125 7.15625 -4.84375 C 7.195312 -4.875 7.226562 -4.90625 7.25 -4.9375 C 7.28125 -4.96875 7.316406 -4.992188 7.359375 -5.015625 C 7.398438 -5.035156 7.4375 -5.054688 7.46875 -5.078125 C 7.550781 -5.109375 7.59375 -5.125 7.59375 -5.125 C 7.6875 -5.125 7.753906 -5.082031 7.796875 -5 C 7.878906 -4.914062 7.878906 -4.800781 7.796875 -4.65625 C 7.785156 -4.632812 7.757812 -4.597656 7.71875 -4.546875 C 7.695312 -4.535156 7.675781 -4.515625 7.65625 -4.484375 C 7.632812 -4.460938 7.613281 -4.445312 7.59375 -4.4375 C 7.09375 -4.007812 6.585938 -3.59375 6.078125 -3.1875 C 5.578125 -2.78125 5.046875 -2.394531 4.484375 -2.03125 C 4.015625 -1.71875 3.539062 -1.472656 3.0625 -1.296875 C 2.59375 -1.117188 2.085938 -1 1.546875 -0.9375 Z M 1.4375 -0.9375 "/></g></g></g><g fill="#2b2d42" fill-opacity="1"><g transform="translate(31.745358, 41.98803)"><g><path d="M 0.984375 -0.8125 C 0.554688 -0.8125 0.257812 -1.035156 0.09375 -1.484375 C 0.0390625 -1.597656 0.0078125 -1.71875 0 -1.84375 C 0 -1.976562 0 -2.128906 0 -2.296875 C 0.0625 -2.628906 0.128906 -3.023438 0.203125 -3.484375 C 0.273438 -3.953125 0.375 -4.394531 0.5 -4.8125 C 0.632812 -5.226562 0.800781 -5.535156 1 -5.734375 C 1.070312 -5.773438 1.132812 -5.796875 1.1875 -5.796875 C 1.195312 -5.796875 1.25 -5.78125 1.34375 -5.75 C 1.445312 -5.707031 1.484375 -5.625 1.453125 -5.5 C 1.253906 -5 1.078125 -4.472656 0.921875 -3.921875 C 0.773438 -3.367188 0.664062 -2.828125 0.59375 -2.296875 C 0.570312 -2.128906 0.585938 -1.929688 0.640625 -1.703125 C 0.671875 -1.585938 0.722656 -1.515625 0.796875 -1.484375 C 0.867188 -1.453125 0.96875 -1.4375 1.09375 -1.4375 C 1.257812 -1.46875 1.410156 -1.519531 1.546875 -1.59375 C 1.679688 -1.664062 1.816406 -1.753906 1.953125 -1.859375 C 2.253906 -2.117188 2.546875 -2.382812 2.828125 -2.65625 C 3.109375 -2.9375 3.378906 -3.226562 3.640625 -3.53125 C 3.734375 -3.632812 3.820312 -3.738281 3.90625 -3.84375 C 4 -3.945312 4.082031 -4.050781 4.15625 -4.15625 C 4.238281 -4.269531 4.320312 -4.378906 4.40625 -4.484375 C 4.5 -4.585938 4.59375 -4.691406 4.6875 -4.796875 C 4.726562 -4.859375 4.773438 -4.910156 4.828125 -4.953125 C 4.878906 -5.003906 4.9375 -5.050781 5 -5.09375 C 5.03125 -5.125 5.070312 -5.140625 5.125 -5.140625 C 5.175781 -5.140625 5.226562 -5.117188 5.28125 -5.078125 C 5.375 -5.015625 5.40625 -4.921875 5.375 -4.796875 C 5.351562 -4.703125 5.304688 -4.617188 5.234375 -4.546875 C 4.835938 -4.035156 4.429688 -3.535156 4.015625 -3.046875 C 3.597656 -2.566406 3.140625 -2.113281 2.640625 -1.6875 C 2.429688 -1.488281 2.175781 -1.289062 1.875 -1.09375 C 1.582031 -0.90625 1.285156 -0.8125 0.984375 -0.8125 Z M 1.5625 -6.625 C 1.34375 -6.59375 1.21875 -6.734375 1.1875 -7.046875 C 1.1875 -7.328125 1.320312 -7.46875 1.59375 -7.46875 C 1.882812 -7.46875 2.035156 -7.34375 2.046875 -7.09375 C 2.046875 -6.976562 1.992188 -6.867188 1.890625 -6.765625 C 1.796875 -6.671875 1.6875 -6.625 1.5625 -6.625 Z M 1.5625 -6.625 "/></g></g></g><g fill="#2b2d42" fill-opacity="1"><g transform="translate(35.975749, 41.98803)"><g><path d="M 0.109375 -1.953125 C -0.191406 -1.953125 -0.359375 -2.132812 -0.390625 -2.5 C -0.390625 -2.832031 -0.316406 -3.1875 -0.171875 -3.5625 C -0.0234375 -3.945312 0.15625 -4.3125 0.375 -4.65625 C 0.59375 -5.007812 0.816406 -5.300781 1.046875 -5.53125 C 1.109375 -5.601562 1.222656 -5.703125 1.390625 -5.828125 C 1.628906 -6.023438 1.878906 -6.125 2.140625 -6.125 C 2.367188 -6.125 2.597656 -6.03125 2.828125 -5.84375 C 2.941406 -5.769531 3.007812 -5.734375 3.03125 -5.734375 C 3.070312 -5.734375 3.140625 -5.796875 3.234375 -5.921875 C 3.304688 -5.992188 3.375 -6.070312 3.4375 -6.15625 C 3.507812 -6.25 3.578125 -6.34375 3.640625 -6.4375 C 3.703125 -6.53125 3.765625 -6.617188 3.828125 -6.703125 C 3.898438 -6.796875 3.96875 -6.890625 4.03125 -6.984375 C 4.0625 -7.015625 4.085938 -7.050781 4.109375 -7.09375 C 4.140625 -7.144531 4.171875 -7.191406 4.203125 -7.234375 C 4.234375 -7.265625 4.257812 -7.300781 4.28125 -7.34375 C 4.3125 -7.394531 4.34375 -7.4375 4.375 -7.46875 C 4.476562 -7.570312 4.566406 -7.625 4.640625 -7.625 C 4.640625 -7.625 4.6875 -7.609375 4.78125 -7.578125 C 4.925781 -7.484375 4.960938 -7.332031 4.890625 -7.125 C 4.878906 -7.0625 4.859375 -7.003906 4.828125 -6.953125 C 4.804688 -6.910156 4.78125 -6.867188 4.75 -6.828125 C 4.6875 -6.722656 4.632812 -6.613281 4.59375 -6.5 C 4.457031 -6.21875 4.296875 -5.863281 4.109375 -5.4375 C 3.929688 -5.007812 3.773438 -4.578125 3.640625 -4.140625 C 3.515625 -3.710938 3.453125 -3.332031 3.453125 -3 C 3.453125 -2.863281 3.5 -2.796875 3.59375 -2.796875 C 3.632812 -2.796875 3.664062 -2.804688 3.6875 -2.828125 C 3.789062 -2.867188 3.890625 -2.910156 3.984375 -2.953125 C 4.085938 -3.003906 4.191406 -3.054688 4.296875 -3.109375 C 4.429688 -3.203125 4.570312 -3.296875 4.71875 -3.390625 C 4.863281 -3.492188 5.003906 -3.609375 5.140625 -3.734375 C 5.242188 -3.804688 5.34375 -3.890625 5.4375 -3.984375 C 5.53125 -4.078125 5.617188 -4.160156 5.703125 -4.234375 C 5.867188 -4.398438 6.050781 -4.554688 6.25 -4.703125 C 6.28125 -4.734375 6.316406 -4.765625 6.359375 -4.796875 C 6.398438 -4.828125 6.4375 -4.859375 6.46875 -4.890625 C 6.488281 -4.921875 6.546875 -4.96875 6.640625 -5.03125 C 6.671875 -5.039062 6.691406 -5.050781 6.703125 -5.0625 C 6.722656 -5.070312 6.738281 -5.078125 6.75 -5.078125 C 6.8125 -5.078125 6.867188 -5.050781 6.921875 -5 C 7.023438 -4.9375 7.050781 -4.820312 7 -4.65625 C 6.988281 -4.644531 6.984375 -4.632812 6.984375 -4.625 C 6.984375 -4.625 6.976562 -4.613281 6.96875 -4.59375 C 6.945312 -4.582031 6.925781 -4.566406 6.90625 -4.546875 C 6.894531 -4.535156 6.882812 -4.519531 6.875 -4.5 C 6.65625 -4.289062 6.347656 -4.003906 5.953125 -3.640625 C 5.566406 -3.285156 5.164062 -2.960938 4.75 -2.671875 C 4.332031 -2.390625 3.960938 -2.21875 3.640625 -2.15625 C 3.609375 -2.144531 3.539062 -2.140625 3.4375 -2.140625 C 3.050781 -2.140625 2.859375 -2.359375 2.859375 -2.796875 C 2.859375 -3.097656 2.890625 -3.398438 2.953125 -3.703125 C 3.015625 -4.003906 3.082031 -4.3125 3.15625 -4.625 C 2.988281 -4.539062 2.878906 -4.460938 2.828125 -4.390625 C 2.796875 -4.347656 2.753906 -4.300781 2.703125 -4.25 C 2.660156 -4.207031 2.625 -4.171875 2.59375 -4.140625 C 2.332031 -3.835938 2.070312 -3.546875 1.8125 -3.265625 C 1.5625 -2.984375 1.289062 -2.710938 1 -2.453125 C 0.894531 -2.367188 0.757812 -2.265625 0.59375 -2.140625 C 0.425781 -2.015625 0.265625 -1.953125 0.109375 -1.953125 Z M 0.3125 -2.78125 C 0.40625 -2.78125 0.472656 -2.800781 0.515625 -2.84375 C 0.878906 -3.144531 1.222656 -3.476562 1.546875 -3.84375 C 1.867188 -4.207031 2.179688 -4.578125 2.484375 -4.953125 C 2.492188 -4.972656 2.503906 -4.988281 2.515625 -5 C 2.535156 -5.019531 2.554688 -5.046875 2.578125 -5.078125 C 2.617188 -5.222656 2.585938 -5.328125 2.484375 -5.390625 C 2.359375 -5.460938 2.25 -5.5 2.15625 -5.5 C 2.082031 -5.5 1.988281 -5.46875 1.875 -5.40625 C 1.757812 -5.351562 1.671875 -5.296875 1.609375 -5.234375 C 0.898438 -4.609375 0.453125 -3.804688 0.265625 -2.828125 L 0.296875 -2.796875 C 0.304688 -2.796875 0.3125 -2.789062 0.3125 -2.78125 Z M 0.3125 -2.78125 "/></g></g></g><g fill="#2b2d42" fill-opacity="1"><g transform="translate(41.86645, 41.98803)"><g><path d="M 0.75 1.203125 C 0.539062 1.203125 0.375 1.085938 0.25 0.859375 C 0.125 0.628906 0.046875 0.425781 0.015625 0.25 C 0.00390625 0.175781 0 0.0976562 0 0.015625 C 0 -0.0546875 0 -0.125 0 -0.1875 C 0 -0.257812 0 -0.320312 0 -0.375 C 0 -0.425781 0 -0.46875 0 -0.5 C 0.0078125 -1.070312 0.0507812 -1.609375 0.125 -2.109375 C 0.195312 -2.609375 0.285156 -3.101562 0.390625 -3.59375 C 0.421875 -3.71875 0.445312 -3.847656 0.46875 -3.984375 C 0.488281 -4.117188 0.445312 -4.25 0.34375 -4.375 C 0.289062 -4.425781 0.273438 -4.484375 0.296875 -4.546875 C 0.328125 -4.609375 0.363281 -4.660156 0.40625 -4.703125 C 0.570312 -4.921875 0.703125 -5.144531 0.796875 -5.375 C 0.890625 -5.613281 0.972656 -5.863281 1.046875 -6.125 C 1.210938 -6.632812 1.414062 -7.210938 1.65625 -7.859375 C 1.90625 -8.515625 2.179688 -9.175781 2.484375 -9.84375 C 2.785156 -10.519531 3.109375 -11.148438 3.453125 -11.734375 C 3.804688 -12.316406 4.179688 -12.800781 4.578125 -13.1875 C 4.691406 -13.28125 4.796875 -13.328125 4.890625 -13.328125 C 4.898438 -13.328125 4.914062 -13.320312 4.9375 -13.3125 C 4.96875 -13.3125 5.003906 -13.300781 5.046875 -13.28125 C 5.148438 -13.238281 5.210938 -13.175781 5.234375 -13.09375 C 5.265625 -13.007812 5.269531 -12.921875 5.25 -12.828125 C 5.144531 -12.378906 4.957031 -11.851562 4.6875 -11.25 C 4.425781 -10.644531 4.125 -10.03125 3.78125 -9.40625 C 3.445312 -8.78125 3.101562 -8.179688 2.75 -7.609375 C 2.40625 -7.035156 2.101562 -6.554688 1.84375 -6.171875 C 1.570312 -5.773438 1.351562 -5.265625 1.1875 -4.640625 C 1.03125 -4.015625 0.90625 -3.378906 0.8125 -2.734375 C 0.726562 -2.097656 0.660156 -1.539062 0.609375 -1.0625 C 0.578125 -0.84375 0.554688 -0.613281 0.546875 -0.375 C 0.546875 -0.132812 0.582031 0.09375 0.65625 0.3125 C 0.6875 0.4375 0.753906 0.5 0.859375 0.5 C 0.972656 0.5 1.113281 0.398438 1.28125 0.203125 C 1.445312 0.00390625 1.554688 -0.128906 1.609375 -0.203125 C 2.140625 -0.890625 2.6875 -1.613281 3.25 -2.375 C 3.8125 -3.144531 4.34375 -3.878906 4.84375 -4.578125 C 4.875 -4.628906 4.9375 -4.71875 5.03125 -4.84375 C 5.125 -4.976562 5.207031 -5.046875 5.28125 -5.046875 C 5.289062 -5.046875 5.34375 -5.03125 5.4375 -5 C 5.539062 -4.957031 5.578125 -4.875 5.546875 -4.75 C 5.546875 -4.632812 5.515625 -4.546875 5.453125 -4.484375 C 5.410156 -4.390625 5.359375 -4.289062 5.296875 -4.1875 C 5.234375 -4.09375 5.175781 -4 5.125 -3.90625 C 4.875 -3.601562 4.628906 -3.289062 4.390625 -2.96875 C 4.148438 -2.644531 3.90625 -2.304688 3.65625 -1.953125 C 3.414062 -1.609375 3.171875 -1.269531 2.921875 -0.9375 C 2.671875 -0.601562 2.425781 -0.273438 2.1875 0.046875 C 2.101562 0.171875 1.972656 0.328125 1.796875 0.515625 C 1.628906 0.703125 1.453125 0.863281 1.265625 1 C 1.078125 1.132812 0.90625 1.203125 0.75 1.203125 Z M 2.59375 -8.171875 C 2.59375 -8.179688 2.597656 -8.1875 2.609375 -8.1875 C 2.609375 -8.1875 2.609375 -8.179688 2.609375 -8.171875 C 2.828125 -8.585938 3.046875 -9.007812 3.265625 -9.4375 C 3.484375 -9.875 3.707031 -10.304688 3.9375 -10.734375 L 4.546875 -11.96875 L 4.546875 -11.984375 C 4.535156 -12.003906 4.53125 -12.019531 4.53125 -12.03125 C 4.53125 -12 4.535156 -11.976562 4.546875 -11.96875 C 4.453125 -12 4.40625 -12.015625 4.40625 -12.015625 C 4.351562 -12.015625 4.28125 -11.953125 4.1875 -11.828125 C 3.882812 -11.316406 3.597656 -10.796875 3.328125 -10.265625 C 3.066406 -9.742188 2.828125 -9.203125 2.609375 -8.640625 C 2.535156 -8.441406 2.53125 -8.285156 2.59375 -8.171875 Z M 2.59375 -8.171875 "/></g></g></g><g fill="#2b2d42" fill-opacity="1"><g transform="translate(46.278787, 41.98803)"><g/></g></g><g fill="#2b2d42" fill-opacity="1"><g transform="translate(54.921514, 41.98803)"><g><path d="M 0.390625 2.53125 C 0.203125 2.53125 0.0859375 2.429688 0.046875 2.234375 C 0.0234375 2.171875 0.0078125 2.113281 0 2.0625 C 0 2.007812 0 1.953125 0 1.890625 C 0 1.828125 0 1.769531 0 1.71875 C 0 1.675781 0 1.625 0 1.5625 C -0.0078125 1.039062 0.0234375 0.53125 0.109375 0.03125 C 0.191406 -0.457031 0.285156 -0.953125 0.390625 -1.453125 C 0.597656 -2.484375 0.859375 -3.488281 1.171875 -4.46875 C 1.484375 -5.457031 1.796875 -6.457031 2.109375 -7.46875 L 3.546875 -12.015625 C 3.578125 -12.078125 3.601562 -12.140625 3.625 -12.203125 C 3.644531 -12.273438 3.664062 -12.34375 3.6875 -12.40625 C 3.726562 -12.519531 3.789062 -12.640625 3.875 -12.765625 C 3.957031 -12.867188 4.046875 -12.921875 4.140625 -12.921875 C 4.203125 -12.921875 4.238281 -12.914062 4.25 -12.90625 C 4.40625 -12.8125 4.445312 -12.679688 4.375 -12.515625 C 4.28125 -12.285156 4.191406 -12.054688 4.109375 -11.828125 C 4.035156 -11.597656 3.96875 -11.367188 3.90625 -11.140625 C 3.851562 -10.898438 3.785156 -10.664062 3.703125 -10.4375 C 3.628906 -10.207031 3.554688 -9.972656 3.484375 -9.734375 C 3.328125 -9.234375 3.171875 -8.734375 3.015625 -8.234375 C 2.859375 -7.734375 2.695312 -7.238281 2.53125 -6.75 C 2.363281 -6.269531 2.195312 -5.78125 2.03125 -5.28125 C 1.875 -4.78125 1.71875 -4.28125 1.5625 -3.78125 C 1.144531 -2.445312 0.84375 -1.039062 0.65625 0.4375 C 0.644531 0.507812 0.632812 0.578125 0.625 0.640625 C 0.613281 0.703125 0.609375 0.753906 0.609375 0.796875 C 0.609375 0.804688 0.609375 0.828125 0.609375 0.859375 C 0.609375 0.890625 0.609375 0.921875 0.609375 0.953125 C 0.597656 1.003906 0.628906 1.03125 0.703125 1.03125 C 0.773438 1.03125 0.820312 1.003906 0.84375 0.953125 C 0.875 0.890625 0.894531 0.851562 0.90625 0.84375 C 0.9375 0.78125 0.960938 0.722656 0.984375 0.671875 C 1.015625 0.617188 1.039062 0.5625 1.0625 0.5 C 1.09375 0.4375 1.117188 0.378906 1.140625 0.328125 C 1.171875 0.273438 1.191406 0.21875 1.203125 0.15625 C 1.328125 -0.125 1.457031 -0.40625 1.59375 -0.6875 C 1.726562 -0.96875 1.859375 -1.253906 1.984375 -1.546875 C 2.097656 -1.835938 2.222656 -2.117188 2.359375 -2.390625 C 2.503906 -2.660156 2.632812 -2.941406 2.75 -3.234375 C 3.175781 -4.128906 3.671875 -5.070312 4.234375 -6.0625 C 4.804688 -7.050781 5.445312 -7.988281 6.15625 -8.875 C 6.863281 -9.769531 7.625 -10.488281 8.4375 -11.03125 C 8.46875 -11.050781 8.5 -11.066406 8.53125 -11.078125 C 8.570312 -11.097656 8.609375 -11.113281 8.640625 -11.125 C 8.671875 -11.132812 8.703125 -11.144531 8.734375 -11.15625 C 8.773438 -11.164062 8.8125 -11.175781 8.84375 -11.1875 C 9.007812 -11.1875 9.148438 -11.15625 9.265625 -11.09375 C 9.378906 -11.039062 9.460938 -10.921875 9.515625 -10.734375 C 9.546875 -10.566406 9.554688 -10.390625 9.546875 -10.203125 C 9.535156 -10.023438 9.515625 -9.851562 9.484375 -9.6875 C 9.410156 -9.289062 9.316406 -8.894531 9.203125 -8.5 C 9.085938 -8.113281 8.96875 -7.722656 8.84375 -7.328125 C 8.675781 -6.828125 8.519531 -6.328125 8.375 -5.828125 C 8.238281 -5.335938 8.109375 -4.835938 7.984375 -4.328125 C 7.921875 -4.078125 7.863281 -3.832031 7.8125 -3.59375 C 7.769531 -3.351562 7.75 -3.101562 7.75 -2.84375 C 7.75 -2.71875 7.78125 -2.632812 7.84375 -2.59375 C 7.863281 -2.582031 7.894531 -2.578125 7.9375 -2.578125 C 8.007812 -2.578125 8.070312 -2.613281 8.125 -2.6875 C 8.238281 -2.820312 8.359375 -2.957031 8.484375 -3.09375 C 8.609375 -3.226562 8.722656 -3.375 8.828125 -3.53125 C 9.117188 -3.90625 9.398438 -4.269531 9.671875 -4.625 C 9.941406 -4.988281 10.238281 -5.34375 10.5625 -5.6875 C 10.800781 -5.988281 11.09375 -6.289062 11.4375 -6.59375 C 11.632812 -6.78125 11.859375 -6.878906 12.109375 -6.890625 C 12.472656 -6.890625 12.71875 -6.773438 12.84375 -6.546875 C 12.96875 -6.316406 13.0625 -6.050781 13.125 -5.75 L 13.40625 -3.75 C 13.445312 -3.539062 13.5 -3.285156 13.5625 -2.984375 C 13.632812 -2.691406 13.738281 -2.4375 13.875 -2.21875 C 14.007812 -2 14.203125 -1.890625 14.453125 -1.890625 C 14.660156 -1.890625 14.882812 -1.988281 15.125 -2.1875 C 15.1875 -2.226562 15.273438 -2.316406 15.390625 -2.453125 C 15.515625 -2.585938 15.660156 -2.78125 15.828125 -3.03125 C 15.992188 -3.269531 16.191406 -3.546875 16.421875 -3.859375 C 16.648438 -4.171875 16.910156 -4.515625 17.203125 -4.890625 C 17.273438 -4.960938 17.332031 -5.007812 17.375 -5.03125 C 17.394531 -5.039062 17.4375 -5.046875 17.5 -5.046875 C 17.570312 -5.046875 17.625 -5.03125 17.65625 -5 C 17.75 -4.957031 17.785156 -4.882812 17.765625 -4.78125 C 17.722656 -4.644531 17.582031 -4.410156 17.34375 -4.078125 C 17.113281 -3.742188 16.84375 -3.382812 16.53125 -3 C 16.226562 -2.625 15.941406 -2.289062 15.671875 -2 C 15.398438 -1.707031 15.203125 -1.523438 15.078125 -1.453125 C 14.796875 -1.335938 14.570312 -1.28125 14.40625 -1.28125 C 14.070312 -1.28125 13.773438 -1.445312 13.515625 -1.78125 C 13.253906 -2.125 13.085938 -2.457031 13.015625 -2.78125 C 12.984375 -2.925781 12.957031 -3.066406 12.9375 -3.203125 C 12.914062 -3.335938 12.890625 -3.484375 12.859375 -3.640625 C 12.835938 -3.773438 12.816406 -3.910156 12.796875 -4.046875 C 12.773438 -4.179688 12.75 -4.316406 12.71875 -4.453125 C 12.695312 -4.566406 12.679688 -4.671875 12.671875 -4.765625 C 12.660156 -4.859375 12.644531 -4.960938 12.625 -5.078125 C 12.613281 -5.160156 12.597656 -5.25 12.578125 -5.34375 C 12.566406 -5.4375 12.550781 -5.535156 12.53125 -5.640625 C 12.5 -5.742188 12.460938 -5.875 12.421875 -6.03125 C 12.378906 -6.195312 12.289062 -6.28125 12.15625 -6.28125 C 12.09375 -6.28125 12 -6.242188 11.875 -6.171875 C 11.769531 -6.109375 11.664062 -6.023438 11.5625 -5.921875 C 11.46875 -5.804688 11.367188 -5.707031 11.265625 -5.625 C 10.628906 -4.925781 10.035156 -4.1875 9.484375 -3.40625 C 9.378906 -3.257812 9.257812 -3.109375 9.125 -2.953125 C 9 -2.804688 8.878906 -2.648438 8.765625 -2.484375 C 8.566406 -2.234375 8.359375 -2.050781 8.140625 -1.9375 C 8.003906 -1.84375 7.867188 -1.796875 7.734375 -1.796875 C 7.441406 -1.796875 7.269531 -1.984375 7.21875 -2.359375 C 7.1875 -2.484375 7.175781 -2.578125 7.1875 -2.640625 C 7.1875 -2.765625 7.179688 -2.847656 7.171875 -2.890625 C 7.203125 -3.285156 7.25 -3.660156 7.3125 -4.015625 C 7.382812 -4.367188 7.460938 -4.722656 7.546875 -5.078125 C 7.679688 -5.554688 7.828125 -6.039062 7.984375 -6.53125 C 8.140625 -7.03125 8.289062 -7.523438 8.4375 -8.015625 C 8.53125 -8.316406 8.617188 -8.617188 8.703125 -8.921875 C 8.785156 -9.234375 8.847656 -9.550781 8.890625 -9.875 C 8.921875 -9.96875 8.9375 -10.050781 8.9375 -10.125 C 8.9375 -10.164062 8.9375 -10.207031 8.9375 -10.25 C 8.9375 -10.300781 8.9375 -10.347656 8.9375 -10.390625 C 8.9375 -10.453125 8.898438 -10.484375 8.828125 -10.484375 L 8.78125 -10.484375 C 8.75 -10.472656 8.710938 -10.457031 8.671875 -10.4375 C 8.640625 -10.425781 8.609375 -10.410156 8.578125 -10.390625 C 8.546875 -10.378906 8.515625 -10.363281 8.484375 -10.34375 C 8.453125 -10.320312 8.421875 -10.300781 8.390625 -10.28125 C 7.753906 -9.800781 7.144531 -9.191406 6.5625 -8.453125 C 5.976562 -7.710938 5.441406 -6.9375 4.953125 -6.125 C 4.472656 -5.3125 4.054688 -4.546875 3.703125 -3.828125 C 3.554688 -3.503906 3.410156 -3.179688 3.265625 -2.859375 C 3.117188 -2.546875 2.972656 -2.226562 2.828125 -1.90625 C 2.671875 -1.570312 2.515625 -1.242188 2.359375 -0.921875 C 2.210938 -0.609375 2.0625 -0.285156 1.90625 0.046875 C 1.84375 0.191406 1.773438 0.332031 1.703125 0.46875 C 1.640625 0.613281 1.582031 0.757812 1.53125 0.90625 C 1.382812 1.195312 1.238281 1.488281 1.09375 1.78125 C 0.988281 2 0.851562 2.203125 0.6875 2.390625 C 0.59375 2.484375 0.492188 2.53125 0.390625 2.53125 Z M 0.390625 2.53125 "/></g></g></g><g fill="#2b2d42" fill-opacity="1"><g transform="translate(71.547397, 41.98803)"><g><path d="M 1.0625 -0.953125 C 0.445312 -0.953125 0.0625 -1.234375 -0.09375 -1.796875 C -0.132812 -1.921875 -0.171875 -2.050781 -0.203125 -2.1875 C -0.234375 -2.320312 -0.242188 -2.453125 -0.234375 -2.578125 C -0.242188 -2.765625 -0.226562 -2.941406 -0.1875 -3.109375 C -0.15625 -3.273438 -0.113281 -3.445312 -0.0625 -3.625 C 0.0703125 -3.976562 0.253906 -4.363281 0.484375 -4.78125 C 0.722656 -5.207031 1.003906 -5.578125 1.328125 -5.890625 C 1.648438 -6.210938 2.007812 -6.40625 2.40625 -6.46875 C 2.457031 -6.46875 2.488281 -6.472656 2.5 -6.484375 C 2.519531 -6.484375 2.535156 -6.484375 2.546875 -6.484375 C 2.566406 -6.484375 2.582031 -6.484375 2.59375 -6.484375 C 2.820312 -6.484375 3 -6.40625 3.125 -6.25 C 3.257812 -6.101562 3.3125 -5.898438 3.28125 -5.640625 C 3.21875 -5.273438 3.035156 -4.898438 2.734375 -4.515625 C 2.441406 -4.128906 2.097656 -3.800781 1.703125 -3.53125 C 1.304688 -3.269531 0.925781 -3.117188 0.5625 -3.078125 C 0.457031 -3.046875 0.398438 -2.972656 0.390625 -2.859375 C 0.328125 -2.617188 0.347656 -2.351562 0.453125 -2.0625 C 0.492188 -1.8125 0.578125 -1.660156 0.703125 -1.609375 C 0.835938 -1.566406 1.015625 -1.546875 1.234375 -1.546875 C 1.679688 -1.640625 2.144531 -1.835938 2.625 -2.140625 C 3.101562 -2.453125 3.507812 -2.765625 3.84375 -3.078125 C 3.976562 -3.191406 4.113281 -3.316406 4.25 -3.453125 C 4.382812 -3.585938 4.519531 -3.71875 4.65625 -3.84375 C 4.78125 -3.96875 4.910156 -4.09375 5.046875 -4.21875 C 5.179688 -4.34375 5.316406 -4.46875 5.453125 -4.59375 C 5.484375 -4.625 5.519531 -4.65625 5.5625 -4.6875 C 5.613281 -4.726562 5.65625 -4.765625 5.6875 -4.796875 C 5.71875 -4.828125 5.75 -4.859375 5.78125 -4.890625 C 5.820312 -4.929688 5.859375 -4.96875 5.890625 -5 C 5.960938 -5.050781 6.023438 -5.078125 6.078125 -5.078125 C 6.140625 -5.078125 6.191406 -5.050781 6.234375 -5 C 6.359375 -4.894531 6.378906 -4.78125 6.296875 -4.65625 C 6.285156 -4.613281 6.226562 -4.539062 6.125 -4.4375 C 5.84375 -4.144531 5.5 -3.800781 5.09375 -3.40625 C 4.6875 -3.019531 4.25 -2.640625 3.78125 -2.265625 C 3.3125 -1.890625 2.835938 -1.578125 2.359375 -1.328125 C 1.890625 -1.078125 1.457031 -0.953125 1.0625 -0.953125 Z M 0.859375 -3.75 C 1.054688 -3.851562 1.296875 -4.007812 1.578125 -4.21875 C 1.859375 -4.4375 2.109375 -4.671875 2.328125 -4.921875 C 2.546875 -5.171875 2.65625 -5.421875 2.65625 -5.671875 C 2.644531 -5.816406 2.578125 -5.875 2.453125 -5.84375 C 2.210938 -5.8125 1.96875 -5.679688 1.71875 -5.453125 C 1.476562 -5.234375 1.265625 -4.976562 1.078125 -4.6875 C 0.898438 -4.394531 0.769531 -4.128906 0.6875 -3.890625 C 0.6875 -3.816406 0.703125 -3.78125 0.734375 -3.78125 C 0.804688 -3.75 0.847656 -3.738281 0.859375 -3.75 Z M 0.859375 -3.75 "/></g></g></g><g fill="#2b2d42" fill-opacity="1"><g transform="translate(76.733032, 41.98803)"><g><path d="M 3.734375 3.34375 C 3.628906 3.34375 3.535156 3.242188 3.453125 3.046875 C 3.367188 2.847656 3.304688 2.609375 3.265625 2.328125 C 3.222656 2.046875 3.191406 1.773438 3.171875 1.515625 C 3.148438 1.265625 3.140625 1.085938 3.140625 0.984375 C 3.109375 0.0664062 3.140625 -0.835938 3.234375 -1.734375 C 3.335938 -2.628906 3.488281 -3.519531 3.6875 -4.40625 C 3.757812 -4.71875 3.832031 -5.023438 3.90625 -5.328125 C 3.988281 -5.628906 4.066406 -5.929688 4.140625 -6.234375 C 4.171875 -6.304688 4.191406 -6.382812 4.203125 -6.46875 C 4.222656 -6.550781 4.21875 -6.640625 4.1875 -6.734375 L 4.1875 -6.71875 C 4.050781 -6.632812 3.953125 -6.550781 3.890625 -6.46875 C 3.859375 -6.40625 3.816406 -6.34375 3.765625 -6.28125 C 3.722656 -6.226562 3.6875 -6.175781 3.65625 -6.125 C 3.21875 -5.488281 2.757812 -4.867188 2.28125 -4.265625 C 1.800781 -3.660156 1.289062 -3.085938 0.75 -2.546875 C 0.675781 -2.484375 0.601562 -2.429688 0.53125 -2.390625 C 0.46875 -2.347656 0.390625 -2.3125 0.296875 -2.28125 C 0.160156 -2.28125 0.046875 -2.304688 -0.046875 -2.359375 C -0.148438 -2.410156 -0.210938 -2.507812 -0.234375 -2.65625 C -0.234375 -2.9375 -0.144531 -3.285156 0.03125 -3.703125 C 0.207031 -4.128906 0.410156 -4.546875 0.640625 -4.953125 C 0.867188 -5.367188 1.050781 -5.691406 1.1875 -5.921875 C 1.300781 -6.085938 1.488281 -6.28125 1.75 -6.5 C 2.007812 -6.726562 2.238281 -6.84375 2.4375 -6.84375 C 2.644531 -6.84375 2.832031 -6.671875 3 -6.328125 C 3.070312 -6.359375 3.128906 -6.398438 3.171875 -6.453125 C 3.222656 -6.515625 3.265625 -6.578125 3.296875 -6.640625 L 4.1875 -7.9375 C 4.457031 -8.34375 4.707031 -8.757812 4.9375 -9.1875 C 5.175781 -9.625 5.378906 -10.085938 5.546875 -10.578125 C 5.804688 -11.410156 6.148438 -12.175781 6.578125 -12.875 C 6.640625 -13 6.703125 -13.117188 6.765625 -13.234375 C 6.835938 -13.359375 6.929688 -13.457031 7.046875 -13.53125 C 7.109375 -13.59375 7.1875 -13.625 7.28125 -13.625 C 7.40625 -13.625 7.484375 -13.59375 7.515625 -13.53125 C 7.554688 -13.46875 7.59375 -13.378906 7.625 -13.265625 C 7.625 -13.140625 7.601562 -13.023438 7.5625 -12.921875 C 7.519531 -12.828125 7.476562 -12.726562 7.4375 -12.625 C 7.300781 -12.25 7.144531 -11.878906 6.96875 -11.515625 C 6.800781 -11.160156 6.609375 -10.816406 6.390625 -10.484375 C 6.097656 -10.046875 5.820312 -9.488281 5.5625 -8.8125 C 5.3125 -8.132812 5.078125 -7.414062 4.859375 -6.65625 C 4.640625 -5.90625 4.453125 -5.175781 4.296875 -4.46875 C 4.148438 -3.757812 4.035156 -3.148438 3.953125 -2.640625 C 3.867188 -2.035156 3.800781 -1.429688 3.75 -0.828125 C 3.707031 -0.234375 3.703125 0.375 3.734375 1 C 3.742188 1.289062 3.769531 1.578125 3.8125 1.859375 C 3.851562 2.148438 3.910156 2.445312 3.984375 2.75 C 4.015625 2.84375 4.03125 2.890625 4.03125 2.890625 C 4.070312 3.128906 4.007812 3.273438 3.84375 3.328125 C 3.832031 3.335938 3.796875 3.34375 3.734375 3.34375 Z M 0.6875 -3.25 C 1.03125 -3.664062 1.363281 -4.066406 1.6875 -4.453125 C 2.019531 -4.847656 2.335938 -5.257812 2.640625 -5.6875 C 2.671875 -5.75 2.707031 -5.800781 2.75 -5.84375 C 2.800781 -5.894531 2.835938 -5.941406 2.859375 -5.984375 C 2.921875 -6.078125 2.96875 -6.179688 3 -6.296875 C 2.957031 -6.316406 2.867188 -6.328125 2.734375 -6.328125 C 2.503906 -6.328125 2.304688 -6.257812 2.140625 -6.125 C 1.972656 -6 1.8125 -5.835938 1.65625 -5.640625 C 1.644531 -5.628906 1.628906 -5.613281 1.609375 -5.59375 C 1.597656 -5.582031 1.582031 -5.5625 1.5625 -5.53125 C 1.375 -5.226562 1.207031 -4.921875 1.0625 -4.609375 C 0.914062 -4.304688 0.78125 -4 0.65625 -3.6875 C 0.59375 -3.5625 0.601562 -3.414062 0.6875 -3.25 Z M 0.6875 -3.25 "/></g></g></g><g fill="#2b2d42" fill-opacity="1"><g transform="translate(83.215074, 41.98803)"><g><path d="M 0.984375 -0.8125 C 0.554688 -0.8125 0.257812 -1.035156 0.09375 -1.484375 C 0.0390625 -1.597656 0.0078125 -1.71875 0 -1.84375 C 0 -1.976562 0 -2.128906 0 -2.296875 C 0.0625 -2.628906 0.128906 -3.023438 0.203125 -3.484375 C 0.273438 -3.953125 0.375 -4.394531 0.5 -4.8125 C 0.632812 -5.226562 0.800781 -5.535156 1 -5.734375 C 1.070312 -5.773438 1.132812 -5.796875 1.1875 -5.796875 C 1.195312 -5.796875 1.25 -5.78125 1.34375 -5.75 C 1.445312 -5.707031 1.484375 -5.625 1.453125 -5.5 C 1.253906 -5 1.078125 -4.472656 0.921875 -3.921875 C 0.773438 -3.367188 0.664062 -2.828125 0.59375 -2.296875 C 0.570312 -2.128906 0.585938 -1.929688 0.640625 -1.703125 C 0.671875 -1.585938 0.722656 -1.515625 0.796875 -1.484375 C 0.867188 -1.453125 0.96875 -1.4375 1.09375 -1.4375 C 1.257812 -1.46875 1.410156 -1.519531 1.546875 -1.59375 C 1.679688 -1.664062 1.816406 -1.753906 1.953125 -1.859375 C 2.253906 -2.117188 2.546875 -2.382812 2.828125 -2.65625 C 3.109375 -2.9375 3.378906 -3.226562 3.640625 -3.53125 C 3.734375 -3.632812 3.820312 -3.738281 3.90625 -3.84375 C 4 -3.945312 4.082031 -4.050781 4.15625 -4.15625 C 4.238281 -4.269531 4.320312 -4.378906 4.40625 -4.484375 C 4.5 -4.585938 4.59375 -4.691406 4.6875 -4.796875 C 4.726562 -4.859375 4.773438 -4.910156 4.828125 -4.953125 C 4.878906 -5.003906 4.9375 -5.050781 5 -5.09375 C 5.03125 -5.125 5.070312 -5.140625 5.125 -5.140625 C 5.175781 -5.140625 5.226562 -5.117188 5.28125 -5.078125 C 5.375 -5.015625 5.40625 -4.921875 5.375 -4.796875 C 5.351562 -4.703125 5.304688 -4.617188 5.234375 -4.546875 C 4.835938 -4.035156 4.429688 -3.535156 4.015625 -3.046875 C 3.597656 -2.566406 3.140625 -2.113281 2.640625 -1.6875 C 2.429688 -1.488281 2.175781 -1.289062 1.875 -1.09375 C 1.582031 -0.90625 1.285156 -0.8125 0.984375 -0.8125 Z M 1.5625 -6.625 C 1.34375 -6.59375 1.21875 -6.734375 1.1875 -7.046875 C 1.1875 -7.328125 1.320312 -7.46875 1.59375 -7.46875 C 1.882812 -7.46875 2.035156 -7.34375 2.046875 -7.09375 C 2.046875 -6.976562 1.992188 -6.867188 1.890625 -6.765625 C 1.796875 -6.671875 1.6875 -6.625 1.5625 -6.625 Z M 1.5625 -6.625 "/></g></g></g><g fill="#2b2d42" fill-opacity="1"><g transform="translate(87.445466, 41.98803)"><g><path d="M 0.109375 -1.953125 C -0.191406 -1.953125 -0.359375 -2.132812 -0.390625 -2.5 C -0.390625 -2.832031 -0.316406 -3.1875 -0.171875 -3.5625 C -0.0234375 -3.945312 0.15625 -4.3125 0.375 -4.65625 C 0.59375 -5.007812 0.816406 -5.300781 1.046875 -5.53125 C 1.109375 -5.601562 1.222656 -5.703125 1.390625 -5.828125 C 1.628906 -6.023438 1.878906 -6.125 2.140625 -6.125 C 2.367188 -6.125 2.597656 -6.03125 2.828125 -5.84375 C 2.941406 -5.769531 3.007812 -5.734375 3.03125 -5.734375 C 3.070312 -5.734375 3.140625 -5.796875 3.234375 -5.921875 C 3.304688 -5.992188 3.375 -6.070312 3.4375 -6.15625 C 3.507812 -6.25 3.578125 -6.34375 3.640625 -6.4375 C 3.703125 -6.53125 3.765625 -6.617188 3.828125 -6.703125 C 3.898438 -6.796875 3.96875 -6.890625 4.03125 -6.984375 C 4.0625 -7.015625 4.085938 -7.050781 4.109375 -7.09375 C 4.140625 -7.144531 4.171875 -7.191406 4.203125 -7.234375 C 4.234375 -7.265625 4.257812 -7.300781 4.28125 -7.34375 C 4.3125 -7.394531 4.34375 -7.4375 4.375 -7.46875 C 4.476562 -7.570312 4.566406 -7.625 4.640625 -7.625 C 4.640625 -7.625 4.6875 -7.609375 4.78125 -7.578125 C 4.925781 -7.484375 4.960938 -7.332031 4.890625 -7.125 C 4.878906 -7.0625 4.859375 -7.003906 4.828125 -6.953125 C 4.804688 -6.910156 4.78125 -6.867188 4.75 -6.828125 C 4.6875 -6.722656 4.632812 -6.613281 4.59375 -6.5 C 4.457031 -6.21875 4.296875 -5.863281 4.109375 -5.4375 C 3.929688 -5.007812 3.773438 -4.578125 3.640625 -4.140625 C 3.515625 -3.710938 3.453125 -3.332031 3.453125 -3 C 3.453125 -2.863281 3.5 -2.796875 3.59375 -2.796875 C 3.632812 -2.796875 3.664062 -2.804688 3.6875 -2.828125 C 3.789062 -2.867188 3.890625 -2.910156 3.984375 -2.953125 C 4.085938 -3.003906 4.191406 -3.054688 4.296875 -3.109375 C 4.429688 -3.203125 4.570312 -3.296875 4.71875 -3.390625 C 4.863281 -3.492188 5.003906 -3.609375 5.140625 -3.734375 C 5.242188 -3.804688 5.34375 -3.890625 5.4375 -3.984375 C 5.53125 -4.078125 5.617188 -4.160156 5.703125 -4.234375 C 5.867188 -4.398438 6.050781 -4.554688 6.25 -4.703125 C 6.28125 -4.734375 6.316406 -4.765625 6.359375 -4.796875 C 6.398438 -4.828125 6.4375 -4.859375 6.46875 -4.890625 C 6.488281 -4.921875 6.546875 -4.96875 6.640625 -5.03125 C 6.671875 -5.039062 6.691406 -5.050781 6.703125 -5.0625 C 6.722656 -5.070312 6.738281 -5.078125 6.75 -5.078125 C 6.8125 -5.078125 6.867188 -5.050781 6.921875 -5 C 7.023438 -4.9375 7.050781 -4.820312 7 -4.65625 C 6.988281 -4.644531 6.984375 -4.632812 6.984375 -4.625 C 6.984375 -4.625 6.976562 -4.613281 6.96875 -4.59375 C 6.945312 -4.582031 6.925781 -4.566406 6.90625 -4.546875 C 6.894531 -4.535156 6.882812 -4.519531 6.875 -4.5 C 6.65625 -4.289062 6.347656 -4.003906 5.953125 -3.640625 C 5.566406 -3.285156 5.164062 -2.960938 4.75 -2.671875 C 4.332031 -2.390625 3.960938 -2.21875 3.640625 -2.15625 C 3.609375 -2.144531 3.539062 -2.140625 3.4375 -2.140625 C 3.050781 -2.140625 2.859375 -2.359375 2.859375 -2.796875 C 2.859375 -3.097656 2.890625 -3.398438 2.953125 -3.703125 C 3.015625 -4.003906 3.082031 -4.3125 3.15625 -4.625 C 2.988281 -4.539062 2.878906 -4.460938 2.828125 -4.390625 C 2.796875 -4.347656 2.753906 -4.300781 2.703125 -4.25 C 2.660156 -4.207031 2.625 -4.171875 2.59375 -4.140625 C 2.332031 -3.835938 2.070312 -3.546875 1.8125 -3.265625 C 1.5625 -2.984375 1.289062 -2.710938 1 -2.453125 C 0.894531 -2.367188 0.757812 -2.265625 0.59375 -2.140625 C 0.425781 -2.015625 0.265625 -1.953125 0.109375 -1.953125 Z M 0.3125 -2.78125 C 0.40625 -2.78125 0.472656 -2.800781 0.515625 -2.84375 C 0.878906 -3.144531 1.222656 -3.476562 1.546875 -3.84375 C 1.867188 -4.207031 2.179688 -4.578125 2.484375 -4.953125 C 2.492188 -4.972656 2.503906 -4.988281 2.515625 -5 C 2.535156 -5.019531 2.554688 -5.046875 2.578125 -5.078125 C 2.617188 -5.222656 2.585938 -5.328125 2.484375 -5.390625 C 2.359375 -5.460938 2.25 -5.5 2.15625 -5.5 C 2.082031 -5.5 1.988281 -5.46875 1.875 -5.40625 C 1.757812 -5.351562 1.671875 -5.296875 1.609375 -5.234375 C 0.898438 -4.609375 0.453125 -3.804688 0.265625 -2.828125 L 0.296875 -2.796875 C 0.304688 -2.796875 0.3125 -2.789062 0.3125 -2.78125 Z M 0.3125 -2.78125 "/></g></g></g><g fill="#2b2d42" fill-opacity="1"><g transform="translate(93.336167, 41.98803)"><g/></g></g><g fill="#2b2d42" fill-opacity="1"><g transform="translate(101.978895, 41.98803)"><g><path d="M 0.390625 2.53125 C 0.203125 2.53125 0.0859375 2.429688 0.046875 2.234375 C 0.0234375 2.171875 0.0078125 2.113281 0 2.0625 C 0 2.007812 0 1.953125 0 1.890625 C 0 1.828125 0 1.769531 0 1.71875 C 0 1.675781 0 1.625 0 1.5625 C -0.0078125 1.039062 0.0234375 0.53125 0.109375 0.03125 C 0.191406 -0.457031 0.285156 -0.953125 0.390625 -1.453125 C 0.597656 -2.484375 0.859375 -3.488281 1.171875 -4.46875 C 1.484375 -5.457031 1.796875 -6.457031 2.109375 -7.46875 L 3.546875 -12.015625 C 3.578125 -12.078125 3.601562 -12.140625 3.625 -12.203125 C 3.644531 -12.273438 3.664062 -12.34375 3.6875 -12.40625 C 3.726562 -12.519531 3.789062 -12.640625 3.875 -12.765625 C 3.957031 -12.867188 4.046875 -12.921875 4.140625 -12.921875 C 4.203125 -12.921875 4.238281 -12.914062 4.25 -12.90625 C 4.40625 -12.8125 4.445312 -12.679688 4.375 -12.515625 C 4.28125 -12.285156 4.191406 -12.054688 4.109375 -11.828125 C 4.035156 -11.597656 3.96875 -11.367188 3.90625 -11.140625 C 3.851562 -10.898438 3.785156 -10.664062 3.703125 -10.4375 C 3.628906 -10.207031 3.554688 -9.972656 3.484375 -9.734375 C 3.328125 -9.234375 3.171875 -8.734375 3.015625 -8.234375 C 2.859375 -7.734375 2.695312 -7.238281 2.53125 -6.75 C 2.363281 -6.269531 2.195312 -5.78125 2.03125 -5.28125 C 1.875 -4.78125 1.71875 -4.28125 1.5625 -3.78125 C 1.144531 -2.445312 0.84375 -1.039062 0.65625 0.4375 C 0.644531 0.507812 0.632812 0.578125 0.625 0.640625 C 0.613281 0.703125 0.609375 0.753906 0.609375 0.796875 C 0.609375 0.804688 0.609375 0.828125 0.609375 0.859375 C 0.609375 0.890625 0.609375 0.921875 0.609375 0.953125 C 0.597656 1.003906 0.628906 1.03125 0.703125 1.03125 C 0.773438 1.03125 0.820312 1.003906 0.84375 0.953125 C 0.875 0.890625 0.894531 0.851562 0.90625 0.84375 C 0.9375 0.78125 0.960938 0.722656 0.984375 0.671875 C 1.015625 0.617188 1.039062 0.5625 1.0625 0.5 C 1.09375 0.4375 1.117188 0.378906 1.140625 0.328125 C 1.171875 0.273438 1.191406 0.21875 1.203125 0.15625 C 1.328125 -0.125 1.457031 -0.40625 1.59375 -0.6875 C 1.726562 -0.96875 1.859375 -1.253906 1.984375 -1.546875 C 2.097656 -1.835938 2.222656 -2.117188 2.359375 -2.390625 C 2.503906 -2.660156 2.632812 -2.941406 2.75 -3.234375 C 3.175781 -4.128906 3.671875 -5.070312 4.234375 -6.0625 C 4.804688 -7.050781 5.445312 -7.988281 6.15625 -8.875 C 6.863281 -9.769531 7.625 -10.488281 8.4375 -11.03125 C 8.46875 -11.050781 8.5 -11.066406 8.53125 -11.078125 C 8.570312 -11.097656 8.609375 -11.113281 8.640625 -11.125 C 8.671875 -11.132812 8.703125 -11.144531 8.734375 -11.15625 C 8.773438 -11.164062 8.8125 -11.175781 8.84375 -11.1875 C 9.007812 -11.1875 9.148438 -11.15625 9.265625 -11.09375 C 9.378906 -11.039062 9.460938 -10.921875 9.515625 -10.734375 C 9.546875 -10.566406 9.554688 -10.390625 9.546875 -10.203125 C 9.535156 -10.023438 9.515625 -9.851562 9.484375 -9.6875 C 9.410156 -9.289062 9.316406 -8.894531 9.203125 -8.5 C 9.085938 -8.113281 8.96875 -7.722656 8.84375 -7.328125 C 8.675781 -6.828125 8.519531 -6.328125 8.375 -5.828125 C 8.238281 -5.335938 8.109375 -4.835938 7.984375 -4.328125 C 7.921875 -4.078125 7.863281 -3.832031 7.8125 -3.59375 C 7.769531 -3.351562 7.75 -3.101562 7.75 -2.84375 C 7.75 -2.71875 7.78125 -2.632812 7.84375 -2.59375 C 7.863281 -2.582031 7.894531 -2.578125 7.9375 -2.578125 C 8.007812 -2.578125 8.070312 -2.613281 8.125 -2.6875 C 8.238281 -2.820312 8.359375 -2.957031 8.484375 -3.09375 C 8.609375 -3.226562 8.722656 -3.375 8.828125 -3.53125 C 9.117188 -3.90625 9.398438 -4.269531 9.671875 -4.625 C 9.941406 -4.988281 10.238281 -5.34375 10.5625 -5.6875 C 10.800781 -5.988281 11.09375 -6.289062 11.4375 -6.59375 C 11.632812 -6.78125 11.859375 -6.878906 12.109375 -6.890625 C 12.472656 -6.890625 12.71875 -6.773438 12.84375 -6.546875 C 12.96875 -6.316406 13.0625 -6.050781 13.125 -5.75 L 13.40625 -3.75 C 13.445312 -3.539062 13.5 -3.285156 13.5625 -2.984375 C 13.632812 -2.691406 13.738281 -2.4375 13.875 -2.21875 C 14.007812 -2 14.203125 -1.890625 14.453125 -1.890625 C 14.660156 -1.890625 14.882812 -1.988281 15.125 -2.1875 C 15.1875 -2.226562 15.273438 -2.316406 15.390625 -2.453125 C 15.515625 -2.585938 15.660156 -2.78125 15.828125 -3.03125 C 15.992188 -3.269531 16.191406 -3.546875 16.421875 -3.859375 C 16.648438 -4.171875 16.910156 -4.515625 17.203125 -4.890625 C 17.273438 -4.960938 17.332031 -5.007812 17.375 -5.03125 C 17.394531 -5.039062 17.4375 -5.046875 17.5 -5.046875 C 17.570312 -5.046875 17.625 -5.03125 17.65625 -5 C 17.75 -4.957031 17.785156 -4.882812 17.765625 -4.78125 C 17.722656 -4.644531 17.582031 -4.410156 17.34375 -4.078125 C 17.113281 -3.742188 16.84375 -3.382812 16.53125 -3 C 16.226562 -2.625 15.941406 -2.289062 15.671875 -2 C 15.398438 -1.707031 15.203125 -1.523438 15.078125 -1.453125 C 14.796875 -1.335938 14.570312 -1.28125 14.40625 -1.28125 C 14.070312 -1.28125 13.773438 -1.445312 13.515625 -1.78125 C 13.253906 -2.125 13.085938 -2.457031 13.015625 -2.78125 C 12.984375 -2.925781 12.957031 -3.066406 12.9375 -3.203125 C 12.914062 -3.335938 12.890625 -3.484375 12.859375 -3.640625 C 12.835938 -3.773438 12.816406 -3.910156 12.796875 -4.046875 C 12.773438 -4.179688 12.75 -4.316406 12.71875 -4.453125 C 12.695312 -4.566406 12.679688 -4.671875 12.671875 -4.765625 C 12.660156 -4.859375 12.644531 -4.960938 12.625 -5.078125 C 12.613281 -5.160156 12.597656 -5.25 12.578125 -5.34375 C 12.566406 -5.4375 12.550781 -5.535156 12.53125 -5.640625 C 12.5 -5.742188 12.460938 -5.875 12.421875 -6.03125 C 12.378906 -6.195312 12.289062 -6.28125 12.15625 -6.28125 C 12.09375 -6.28125 12 -6.242188 11.875 -6.171875 C 11.769531 -6.109375 11.664062 -6.023438 11.5625 -5.921875 C 11.46875 -5.804688 11.367188 -5.707031 11.265625 -5.625 C 10.628906 -4.925781 10.035156 -4.1875 9.484375 -3.40625 C 9.378906 -3.257812 9.257812 -3.109375 9.125 -2.953125 C 9 -2.804688 8.878906 -2.648438 8.765625 -2.484375 C 8.566406 -2.234375 8.359375 -2.050781 8.140625 -1.9375 C 8.003906 -1.84375 7.867188 -1.796875 7.734375 -1.796875 C 7.441406 -1.796875 7.269531 -1.984375 7.21875 -2.359375 C 7.1875 -2.484375 7.175781 -2.578125 7.1875 -2.640625 C 7.1875 -2.765625 7.179688 -2.847656 7.171875 -2.890625 C 7.203125 -3.285156 7.25 -3.660156 7.3125 -4.015625 C 7.382812 -4.367188 7.460938 -4.722656 7.546875 -5.078125 C 7.679688 -5.554688 7.828125 -6.039062 7.984375 -6.53125 C 8.140625 -7.03125 8.289062 -7.523438 8.4375 -8.015625 C 8.53125 -8.316406 8.617188 -8.617188 8.703125 -8.921875 C 8.785156 -9.234375 8.847656 -9.550781 8.890625 -9.875 C 8.921875 -9.96875 8.9375 -10.050781 8.9375 -10.125 C 8.9375 -10.164062 8.9375 -10.207031 8.9375 -10.25 C 8.9375 -10.300781 8.9375 -10.347656 8.9375 -10.390625 C 8.9375 -10.453125 8.898438 -10.484375 8.828125 -10.484375 L 8.78125 -10.484375 C 8.75 -10.472656 8.710938 -10.457031 8.671875 -10.4375 C 8.640625 -10.425781 8.609375 -10.410156 8.578125 -10.390625 C 8.546875 -10.378906 8.515625 -10.363281 8.484375 -10.34375 C 8.453125 -10.320312 8.421875 -10.300781 8.390625 -10.28125 C 7.753906 -9.800781 7.144531 -9.191406 6.5625 -8.453125 C 5.976562 -7.710938 5.441406 -6.9375 4.953125 -6.125 C 4.472656 -5.3125 4.054688 -4.546875 3.703125 -3.828125 C 3.554688 -3.503906 3.410156 -3.179688 3.265625 -2.859375 C 3.117188 -2.546875 2.972656 -2.226562 2.828125 -1.90625 C 2.671875 -1.570312 2.515625 -1.242188 2.359375 -0.921875 C 2.210938 -0.609375 2.0625 -0.285156 1.90625 0.046875 C 1.84375 0.191406 1.773438 0.332031 1.703125 0.46875 C 1.640625 0.613281 1.582031 0.757812 1.53125 0.90625 C 1.382812 1.195312 1.238281 1.488281 1.09375 1.78125 C 0.988281 2 0.851562 2.203125 0.6875 2.390625 C 0.59375 2.484375 0.492188 2.53125 0.390625 2.53125 Z M 0.390625 2.53125 "/></g></g></g><g fill="#2b2d42" fill-opacity="1"><g transform="translate(118.604778, 41.98803)"><g><path d="M 0.109375 -1.953125 C -0.191406 -1.953125 -0.359375 -2.132812 -0.390625 -2.5 C -0.390625 -2.832031 -0.316406 -3.1875 -0.171875 -3.5625 C -0.0234375 -3.945312 0.15625 -4.3125 0.375 -4.65625 C 0.59375 -5.007812 0.816406 -5.300781 1.046875 -5.53125 C 1.109375 -5.601562 1.222656 -5.703125 1.390625 -5.828125 C 1.628906 -6.023438 1.878906 -6.125 2.140625 -6.125 C 2.367188 -6.125 2.597656 -6.03125 2.828125 -5.84375 C 2.941406 -5.769531 3.007812 -5.734375 3.03125 -5.734375 C 3.070312 -5.734375 3.140625 -5.796875 3.234375 -5.921875 C 3.304688 -5.992188 3.375 -6.070312 3.4375 -6.15625 C 3.507812 -6.25 3.578125 -6.34375 3.640625 -6.4375 C 3.703125 -6.53125 3.765625 -6.617188 3.828125 -6.703125 C 3.898438 -6.796875 3.96875 -6.890625 4.03125 -6.984375 C 4.0625 -7.015625 4.085938 -7.050781 4.109375 -7.09375 C 4.140625 -7.144531 4.171875 -7.191406 4.203125 -7.234375 C 4.234375 -7.265625 4.257812 -7.300781 4.28125 -7.34375 C 4.3125 -7.394531 4.34375 -7.4375 4.375 -7.46875 C 4.476562 -7.570312 4.566406 -7.625 4.640625 -7.625 C 4.640625 -7.625 4.6875 -7.609375 4.78125 -7.578125 C 4.925781 -7.484375 4.960938 -7.332031 4.890625 -7.125 C 4.878906 -7.0625 4.859375 -7.003906 4.828125 -6.953125 C 4.804688 -6.910156 4.78125 -6.867188 4.75 -6.828125 C 4.6875 -6.722656 4.632812 -6.613281 4.59375 -6.5 C 4.457031 -6.21875 4.296875 -5.863281 4.109375 -5.4375 C 3.929688 -5.007812 3.773438 -4.578125 3.640625 -4.140625 C 3.515625 -3.710938 3.453125 -3.332031 3.453125 -3 C 3.453125 -2.863281 3.5 -2.796875 3.59375 -2.796875 C 3.632812 -2.796875 3.664062 -2.804688 3.6875 -2.828125 C 3.789062 -2.867188 3.890625 -2.910156 3.984375 -2.953125 C 4.085938 -3.003906 4.191406 -3.054688 4.296875 -3.109375 C 4.429688 -3.203125 4.570312 -3.296875 4.71875 -3.390625 C 4.863281 -3.492188 5.003906 -3.609375 5.140625 -3.734375 C 5.242188 -3.804688 5.34375 -3.890625 5.4375 -3.984375 C 5.53125 -4.078125 5.617188 -4.160156 5.703125 -4.234375 C 5.867188 -4.398438 6.050781 -4.554688 6.25 -4.703125 C 6.28125 -4.734375 6.316406 -4.765625 6.359375 -4.796875 C 6.398438 -4.828125 6.4375 -4.859375 6.46875 -4.890625 C 6.488281 -4.921875 6.546875 -4.96875 6.640625 -5.03125 C 6.671875 -5.039062 6.691406 -5.050781 6.703125 -5.0625 C 6.722656 -5.070312 6.738281 -5.078125 6.75 -5.078125 C 6.8125 -5.078125 6.867188 -5.050781 6.921875 -5 C 7.023438 -4.9375 7.050781 -4.820312 7 -4.65625 C 6.988281 -4.644531 6.984375 -4.632812 6.984375 -4.625 C 6.984375 -4.625 6.976562 -4.613281 6.96875 -4.59375 C 6.945312 -4.582031 6.925781 -4.566406 6.90625 -4.546875 C 6.894531 -4.535156 6.882812 -4.519531 6.875 -4.5 C 6.65625 -4.289062 6.347656 -4.003906 5.953125 -3.640625 C 5.566406 -3.285156 5.164062 -2.960938 4.75 -2.671875 C 4.332031 -2.390625 3.960938 -2.21875 3.640625 -2.15625 C 3.609375 -2.144531 3.539062 -2.140625 3.4375 -2.140625 C 3.050781 -2.140625 2.859375 -2.359375 2.859375 -2.796875 C 2.859375 -3.097656 2.890625 -3.398438 2.953125 -3.703125 C 3.015625 -4.003906 3.082031 -4.3125 3.15625 -4.625 C 2.988281 -4.539062 2.878906 -4.460938 2.828125 -4.390625 C 2.796875 -4.347656 2.753906 -4.300781 2.703125 -4.25 C 2.660156 -4.207031 2.625 -4.171875 2.59375 -4.140625 C 2.332031 -3.835938 2.070312 -3.546875 1.8125 -3.265625 C 1.5625 -2.984375 1.289062 -2.710938 1 -2.453125 C 0.894531 -2.367188 0.757812 -2.265625 0.59375 -2.140625 C 0.425781 -2.015625 0.265625 -1.953125 0.109375 -1.953125 Z M 0.3125 -2.78125 C 0.40625 -2.78125 0.472656 -2.800781 0.515625 -2.84375 C 0.878906 -3.144531 1.222656 -3.476562 1.546875 -3.84375 C 1.867188 -4.207031 2.179688 -4.578125 2.484375 -4.953125 C 2.492188 -4.972656 2.503906 -4.988281 2.515625 -5 C 2.535156 -5.019531 2.554688 -5.046875 2.578125 -5.078125 C 2.617188 -5.222656 2.585938 -5.328125 2.484375 -5.390625 C 2.359375 -5.460938 2.25 -5.5 2.15625 -5.5 C 2.082031 -5.5 1.988281 -5.46875 1.875 -5.40625 C 1.757812 -5.351562 1.671875 -5.296875 1.609375 -5.234375 C 0.898438 -4.609375 0.453125 -3.804688 0.265625 -2.828125 L 0.296875 -2.796875 C 0.304688 -2.796875 0.3125 -2.789062 0.3125 -2.78125 Z M 0.3125 -2.78125 "/></g></g></g><g fill="#2b2d42" fill-opacity="1"><g transform="translate(124.495479, 41.98803)"><g><path d="M -0.109375 -0.234375 C -0.296875 -0.234375 -0.40625 -0.335938 -0.4375 -0.546875 C -0.445312 -0.585938 -0.453125 -0.6875 -0.453125 -0.84375 C -0.410156 -1.238281 -0.332031 -1.625 -0.21875 -2 C -0.113281 -2.382812 -0.00390625 -2.765625 0.109375 -3.140625 C 0.210938 -3.429688 0.316406 -3.710938 0.421875 -3.984375 C 0.535156 -4.265625 0.644531 -4.550781 0.75 -4.84375 C 0.851562 -5.132812 0.957031 -5.421875 1.0625 -5.703125 C 1.175781 -5.984375 1.285156 -6.265625 1.390625 -6.546875 C 1.460938 -6.660156 1.546875 -6.828125 1.640625 -7.046875 C 1.742188 -7.265625 1.859375 -7.375 1.984375 -7.375 C 1.984375 -7.375 2.023438 -7.359375 2.109375 -7.328125 C 2.265625 -7.234375 2.304688 -7.101562 2.234375 -6.9375 L 2.09375 -6.671875 C 1.988281 -6.378906 1.878906 -6.085938 1.765625 -5.796875 C 1.648438 -5.515625 1.539062 -5.226562 1.4375 -4.9375 C 1.332031 -4.644531 1.222656 -4.351562 1.109375 -4.0625 C 0.992188 -3.769531 0.875 -3.476562 0.75 -3.1875 C 0.738281 -3.125 0.71875 -3.054688 0.6875 -2.984375 C 0.664062 -2.921875 0.640625 -2.851562 0.609375 -2.78125 C 0.546875 -2.65625 0.554688 -2.507812 0.640625 -2.34375 C 0.734375 -2.539062 0.898438 -2.820312 1.140625 -3.1875 C 1.378906 -3.550781 1.648438 -3.925781 1.953125 -4.3125 C 2.253906 -4.707031 2.554688 -5.039062 2.859375 -5.3125 C 3.171875 -5.59375 3.4375 -5.734375 3.65625 -5.734375 C 3.914062 -5.734375 4.082031 -5.625 4.15625 -5.40625 C 4.238281 -5.195312 4.296875 -4.992188 4.328125 -4.796875 C 4.335938 -4.691406 4.347656 -4.59375 4.359375 -4.5 C 4.367188 -4.414062 4.378906 -4.328125 4.390625 -4.234375 C 4.390625 -4.140625 4.390625 -4.046875 4.390625 -3.953125 C 4.398438 -3.867188 4.414062 -3.78125 4.4375 -3.6875 C 4.445312 -3.425781 4.515625 -3.191406 4.640625 -2.984375 C 4.679688 -2.859375 4.769531 -2.796875 4.90625 -2.796875 C 4.9375 -2.796875 4.960938 -2.804688 4.984375 -2.828125 C 4.992188 -2.828125 5.007812 -2.828125 5.03125 -2.828125 C 5.164062 -2.867188 5.289062 -2.929688 5.40625 -3.015625 C 5.53125 -3.097656 5.65625 -3.191406 5.78125 -3.296875 C 5.882812 -3.390625 5.976562 -3.476562 6.0625 -3.5625 C 6.15625 -3.65625 6.257812 -3.757812 6.375 -3.875 C 6.457031 -3.957031 6.546875 -4.046875 6.640625 -4.140625 C 6.742188 -4.234375 6.851562 -4.320312 6.96875 -4.40625 C 7.082031 -4.519531 7.179688 -4.613281 7.265625 -4.6875 C 7.347656 -4.757812 7.40625 -4.8125 7.4375 -4.84375 C 7.46875 -4.875 7.5 -4.90625 7.53125 -4.9375 C 7.5625 -4.96875 7.582031 -4.988281 7.59375 -5 C 7.644531 -5.050781 7.695312 -5.078125 7.75 -5.078125 C 7.8125 -5.078125 7.867188 -5.050781 7.921875 -5 C 8.023438 -4.914062 8.054688 -4.8125 8.015625 -4.6875 C 7.960938 -4.5625 7.890625 -4.457031 7.796875 -4.375 C 7.742188 -4.3125 7.628906 -4.195312 7.453125 -4.03125 C 7.273438 -3.875 7.082031 -3.703125 6.875 -3.515625 C 6.675781 -3.328125 6.488281 -3.15625 6.3125 -3 C 6.132812 -2.851562 6.015625 -2.75 5.953125 -2.6875 C 5.679688 -2.425781 5.378906 -2.265625 5.046875 -2.203125 C 5.035156 -2.203125 5.019531 -2.203125 5 -2.203125 C 4.988281 -2.203125 4.972656 -2.203125 4.953125 -2.203125 C 4.921875 -2.191406 4.882812 -2.1875 4.84375 -2.1875 C 4.539062 -2.1875 4.300781 -2.34375 4.125 -2.65625 C 3.976562 -2.914062 3.894531 -3.195312 3.875 -3.5 C 3.851562 -3.625 3.835938 -3.742188 3.828125 -3.859375 C 3.828125 -3.972656 3.816406 -4.082031 3.796875 -4.1875 C 3.785156 -4.289062 3.769531 -4.398438 3.75 -4.515625 C 3.738281 -4.628906 3.722656 -4.738281 3.703125 -4.84375 C 3.671875 -4.96875 3.617188 -5.03125 3.546875 -5.03125 C 3.484375 -5.03125 3.429688 -5.003906 3.390625 -4.953125 C 2.796875 -4.421875 2.273438 -3.820312 1.828125 -3.15625 C 1.378906 -2.488281 0.984375 -1.800781 0.640625 -1.09375 C 0.609375 -1.03125 0.570312 -0.960938 0.53125 -0.890625 C 0.5 -0.828125 0.46875 -0.757812 0.4375 -0.6875 C 0.40625 -0.601562 0.363281 -0.53125 0.3125 -0.46875 C 0.257812 -0.414062 0.191406 -0.359375 0.109375 -0.296875 C 0.046875 -0.253906 -0.0234375 -0.234375 -0.109375 -0.234375 Z M -0.109375 -0.234375 "/></g></g></g><g fill="#2b2d42" fill-opacity="1"><g transform="translate(131.386918, 41.98803)"><g><path d="M 0.109375 -1.953125 C -0.191406 -1.953125 -0.359375 -2.132812 -0.390625 -2.5 C -0.390625 -2.832031 -0.316406 -3.1875 -0.171875 -3.5625 C -0.0234375 -3.945312 0.15625 -4.3125 0.375 -4.65625 C 0.59375 -5.007812 0.816406 -5.300781 1.046875 -5.53125 C 1.109375 -5.601562 1.222656 -5.703125 1.390625 -5.828125 C 1.628906 -6.023438 1.878906 -6.125 2.140625 -6.125 C 2.367188 -6.125 2.597656 -6.03125 2.828125 -5.84375 C 2.941406 -5.769531 3.007812 -5.734375 3.03125 -5.734375 C 3.070312 -5.734375 3.140625 -5.796875 3.234375 -5.921875 C 3.304688 -5.992188 3.375 -6.070312 3.4375 -6.15625 C 3.507812 -6.25 3.578125 -6.34375 3.640625 -6.4375 C 3.703125 -6.53125 3.765625 -6.617188 3.828125 -6.703125 C 3.898438 -6.796875 3.96875 -6.890625 4.03125 -6.984375 C 4.0625 -7.015625 4.085938 -7.050781 4.109375 -7.09375 C 4.140625 -7.144531 4.171875 -7.191406 4.203125 -7.234375 C 4.234375 -7.265625 4.257812 -7.300781 4.28125 -7.34375 C 4.3125 -7.394531 4.34375 -7.4375 4.375 -7.46875 C 4.476562 -7.570312 4.566406 -7.625 4.640625 -7.625 C 4.640625 -7.625 4.6875 -7.609375 4.78125 -7.578125 C 4.925781 -7.484375 4.960938 -7.332031 4.890625 -7.125 C 4.878906 -7.0625 4.859375 -7.003906 4.828125 -6.953125 C 4.804688 -6.910156 4.78125 -6.867188 4.75 -6.828125 C 4.6875 -6.722656 4.632812 -6.613281 4.59375 -6.5 C 4.457031 -6.21875 4.296875 -5.863281 4.109375 -5.4375 C 3.929688 -5.007812 3.773438 -4.578125 3.640625 -4.140625 C 3.515625 -3.710938 3.453125 -3.332031 3.453125 -3 C 3.453125 -2.863281 3.5 -2.796875 3.59375 -2.796875 C 3.632812 -2.796875 3.664062 -2.804688 3.6875 -2.828125 C 3.789062 -2.867188 3.890625 -2.910156 3.984375 -2.953125 C 4.085938 -3.003906 4.191406 -3.054688 4.296875 -3.109375 C 4.429688 -3.203125 4.570312 -3.296875 4.71875 -3.390625 C 4.863281 -3.492188 5.003906 -3.609375 5.140625 -3.734375 C 5.242188 -3.804688 5.34375 -3.890625 5.4375 -3.984375 C 5.53125 -4.078125 5.617188 -4.160156 5.703125 -4.234375 C 5.867188 -4.398438 6.050781 -4.554688 6.25 -4.703125 C 6.28125 -4.734375 6.316406 -4.765625 6.359375 -4.796875 C 6.398438 -4.828125 6.4375 -4.859375 6.46875 -4.890625 C 6.488281 -4.921875 6.546875 -4.96875 6.640625 -5.03125 C 6.671875 -5.039062 6.691406 -5.050781 6.703125 -5.0625 C 6.722656 -5.070312 6.738281 -5.078125 6.75 -5.078125 C 6.8125 -5.078125 6.867188 -5.050781 6.921875 -5 C 7.023438 -4.9375 7.050781 -4.820312 7 -4.65625 C 6.988281 -4.644531 6.984375 -4.632812 6.984375 -4.625 C 6.984375 -4.625 6.976562 -4.613281 6.96875 -4.59375 C 6.945312 -4.582031 6.925781 -4.566406 6.90625 -4.546875 C 6.894531 -4.535156 6.882812 -4.519531 6.875 -4.5 C 6.65625 -4.289062 6.347656 -4.003906 5.953125 -3.640625 C 5.566406 -3.285156 5.164062 -2.960938 4.75 -2.671875 C 4.332031 -2.390625 3.960938 -2.21875 3.640625 -2.15625 C 3.609375 -2.144531 3.539062 -2.140625 3.4375 -2.140625 C 3.050781 -2.140625 2.859375 -2.359375 2.859375 -2.796875 C 2.859375 -3.097656 2.890625 -3.398438 2.953125 -3.703125 C 3.015625 -4.003906 3.082031 -4.3125 3.15625 -4.625 C 2.988281 -4.539062 2.878906 -4.460938 2.828125 -4.390625 C 2.796875 -4.347656 2.753906 -4.300781 2.703125 -4.25 C 2.660156 -4.207031 2.625 -4.171875 2.59375 -4.140625 C 2.332031 -3.835938 2.070312 -3.546875 1.8125 -3.265625 C 1.5625 -2.984375 1.289062 -2.710938 1 -2.453125 C 0.894531 -2.367188 0.757812 -2.265625 0.59375 -2.140625 C 0.425781 -2.015625 0.265625 -1.953125 0.109375 -1.953125 Z M 0.3125 -2.78125 C 0.40625 -2.78125 0.472656 -2.800781 0.515625 -2.84375 C 0.878906 -3.144531 1.222656 -3.476562 1.546875 -3.84375 C 1.867188 -4.207031 2.179688 -4.578125 2.484375 -4.953125 C 2.492188 -4.972656 2.503906 -4.988281 2.515625 -5 C 2.535156 -5.019531 2.554688 -5.046875 2.578125 -5.078125 C 2.617188 -5.222656 2.585938 -5.328125 2.484375 -5.390625 C 2.359375 -5.460938 2.25 -5.5 2.15625 -5.5 C 2.082031 -5.5 1.988281 -5.46875 1.875 -5.40625 C 1.757812 -5.351562 1.671875 -5.296875 1.609375 -5.234375 C 0.898438 -4.609375 0.453125 -3.804688 0.265625 -2.828125 L 0.296875 -2.796875 C 0.304688 -2.796875 0.3125 -2.789062 0.3125 -2.78125 Z M 0.3125 -2.78125 "/></g></g></g><g fill="#2b2d42" fill-opacity="1"><g transform="translate(137.27762, 41.98803)"><g><path d="M 1.3125 8.046875 C 1.09375 8.046875 0.9375 7.910156 0.84375 7.640625 C 0.769531 7.273438 0.773438 6.90625 0.859375 6.53125 C 1.015625 5.9375 1.25 5.332031 1.5625 4.71875 C 1.882812 4.101562 2.242188 3.507812 2.640625 2.9375 C 3.046875 2.375 3.441406 1.863281 3.828125 1.40625 C 3.972656 1.226562 4.097656 1.039062 4.203125 0.84375 C 4.316406 0.644531 4.398438 0.441406 4.453125 0.234375 C 4.585938 -0.222656 4.722656 -0.675781 4.859375 -1.125 C 5.003906 -1.582031 5.144531 -2.035156 5.28125 -2.484375 C 5.394531 -2.921875 5.519531 -3.363281 5.65625 -3.8125 C 5.800781 -4.269531 5.945312 -4.726562 6.09375 -5.1875 C 6.125 -5.257812 6.144531 -5.328125 6.15625 -5.390625 C 6.175781 -5.460938 6.171875 -5.554688 6.140625 -5.671875 C 6.046875 -5.648438 5.957031 -5.59375 5.875 -5.5 C 5.84375 -5.46875 5.804688 -5.429688 5.765625 -5.390625 C 5.722656 -5.347656 5.691406 -5.3125 5.671875 -5.28125 C 5.472656 -5.09375 5.269531 -4.90625 5.0625 -4.71875 C 4.851562 -4.539062 4.648438 -4.363281 4.453125 -4.1875 C 4.253906 -4 4.050781 -3.8125 3.84375 -3.625 C 3.632812 -3.445312 3.421875 -3.273438 3.203125 -3.109375 C 3.054688 -2.992188 2.84375 -2.832031 2.5625 -2.625 C 2.28125 -2.425781 1.988281 -2.242188 1.6875 -2.078125 C 1.394531 -1.921875 1.160156 -1.832031 0.984375 -1.8125 C 0.734375 -1.8125 0.53125 -1.859375 0.375 -1.953125 C 0.21875 -2.046875 0.109375 -2.222656 0.046875 -2.484375 C 0.00390625 -2.691406 -0.0078125 -2.894531 0 -3.09375 C 0.0078125 -3.300781 0.0390625 -3.515625 0.09375 -3.734375 C 0.488281 -5.210938 1.359375 -6.300781 2.703125 -7 C 2.867188 -7.082031 3.039062 -7.148438 3.21875 -7.203125 C 3.394531 -7.253906 3.570312 -7.28125 3.75 -7.28125 C 4.144531 -7.28125 4.492188 -7.164062 4.796875 -6.9375 C 5.097656 -6.707031 5.25 -6.375 5.25 -5.9375 C 5.269531 -5.925781 5.3125 -5.921875 5.375 -5.921875 C 5.445312 -5.921875 5.503906 -5.941406 5.546875 -5.984375 C 5.566406 -6.015625 5.597656 -6.050781 5.640625 -6.09375 C 5.710938 -6.164062 5.785156 -6.238281 5.859375 -6.3125 C 5.941406 -6.382812 6.019531 -6.445312 6.09375 -6.5 C 6.164062 -6.582031 6.238281 -6.648438 6.3125 -6.703125 C 6.382812 -6.765625 6.457031 -6.828125 6.53125 -6.890625 C 6.59375 -6.953125 6.664062 -6.984375 6.75 -6.984375 C 6.8125 -6.984375 6.875 -6.96875 6.9375 -6.9375 C 7.09375 -6.84375 7.15625 -6.710938 7.125 -6.546875 C 7.101562 -6.460938 7.082031 -6.375 7.0625 -6.28125 C 7.039062 -6.1875 7.015625 -6.09375 6.984375 -6 C 6.972656 -5.914062 6.953125 -5.828125 6.921875 -5.734375 C 6.890625 -5.640625 6.859375 -5.554688 6.828125 -5.484375 C 6.566406 -4.753906 6.328125 -4.03125 6.109375 -3.3125 C 5.898438 -2.59375 5.695312 -1.867188 5.5 -1.140625 C 5.46875 -1.066406 5.445312 -0.992188 5.4375 -0.921875 C 5.425781 -0.847656 5.429688 -0.773438 5.453125 -0.703125 C 5.578125 -0.734375 5.671875 -0.78125 5.734375 -0.84375 C 5.796875 -0.9375 5.859375 -1.007812 5.921875 -1.0625 C 6.523438 -1.707031 7.148438 -2.328125 7.796875 -2.921875 C 8.441406 -3.523438 9.097656 -4.113281 9.765625 -4.6875 L 10.09375 -4.953125 C 10.1875 -4.984375 10.234375 -5 10.234375 -5 C 10.328125 -5 10.394531 -4.960938 10.4375 -4.890625 C 10.53125 -4.785156 10.53125 -4.671875 10.4375 -4.546875 C 10.40625 -4.503906 10.363281 -4.453125 10.3125 -4.390625 C 10.28125 -4.359375 10.25 -4.332031 10.21875 -4.3125 C 10.195312 -4.289062 10.171875 -4.265625 10.140625 -4.234375 C 9.765625 -3.878906 9.390625 -3.535156 9.015625 -3.203125 C 8.648438 -2.867188 8.269531 -2.53125 7.875 -2.1875 C 7.6875 -2.019531 7.425781 -1.769531 7.09375 -1.4375 C 6.757812 -1.113281 6.414062 -0.757812 6.0625 -0.375 C 5.707031 0.0078125 5.390625 0.382812 5.109375 0.75 C 4.835938 1.113281 4.664062 1.410156 4.59375 1.640625 C 4.519531 1.835938 4.445312 2.035156 4.375 2.234375 C 4.3125 2.441406 4.238281 2.648438 4.15625 2.859375 C 4.101562 3.054688 4.035156 3.257812 3.953125 3.46875 C 3.878906 3.675781 3.804688 3.882812 3.734375 4.09375 C 3.671875 4.289062 3.546875 4.601562 3.359375 5.03125 C 3.171875 5.46875 2.957031 5.914062 2.71875 6.375 C 2.476562 6.84375 2.234375 7.238281 1.984375 7.5625 C 1.734375 7.882812 1.507812 8.046875 1.3125 8.046875 Z M 1.484375 7.125 C 1.492188 7.125 1.5 7.125 1.5 7.125 C 1.5 7.125 1.507812 7.125 1.53125 7.125 C 1.53125 7.101562 1.535156 7.09375 1.546875 7.09375 C 1.617188 7.019531 1.664062 6.960938 1.6875 6.921875 C 2.03125 6.359375 2.335938 5.785156 2.609375 5.203125 C 2.890625 4.617188 3.132812 4.015625 3.34375 3.390625 C 3.351562 3.367188 3.359375 3.332031 3.359375 3.28125 C 3.359375 3.226562 3.320312 3.1875 3.25 3.15625 C 3.007812 3.445312 2.765625 3.796875 2.515625 4.203125 C 2.273438 4.617188 2.0625 5.039062 1.875 5.46875 C 1.6875 5.90625 1.546875 6.304688 1.453125 6.671875 C 1.441406 6.703125 1.429688 6.726562 1.421875 6.75 C 1.410156 6.78125 1.40625 6.8125 1.40625 6.84375 C 1.40625 6.925781 1.398438 6.988281 1.390625 7.03125 C 1.390625 7.03125 1.40625 7.046875 1.4375 7.078125 C 1.445312 7.085938 1.453125 7.09375 1.453125 7.09375 C 1.453125 7.09375 1.460938 7.101562 1.484375 7.125 Z M 0.890625 -2.40625 C 0.921875 -2.40625 0.953125 -2.410156 0.984375 -2.421875 C 1.015625 -2.429688 1.050781 -2.441406 1.09375 -2.453125 C 1.4375 -2.617188 1.753906 -2.800781 2.046875 -3 C 2.441406 -3.269531 2.820312 -3.566406 3.1875 -3.890625 C 3.5625 -4.210938 3.929688 -4.53125 4.296875 -4.84375 C 4.585938 -5.082031 4.707031 -5.332031 4.65625 -5.59375 L 4.65625 -5.984375 C 4.632812 -6.242188 4.53125 -6.421875 4.34375 -6.515625 C 4.164062 -6.617188 3.960938 -6.671875 3.734375 -6.671875 C 3.609375 -6.671875 3.492188 -6.65625 3.390625 -6.625 C 3.285156 -6.59375 3.171875 -6.550781 3.046875 -6.5 C 1.742188 -5.863281 0.941406 -4.828125 0.640625 -3.390625 C 0.585938 -3.222656 0.578125 -3.003906 0.609375 -2.734375 C 0.640625 -2.515625 0.734375 -2.40625 0.890625 -2.40625 Z M 0.890625 -2.40625 "/></g></g></g><g fill="#2b2d42" fill-opacity="1"><g transform="translate(146.648162, 41.98803)"><g><path d="M 1.0625 -0.953125 C 0.445312 -0.953125 0.0625 -1.234375 -0.09375 -1.796875 C -0.132812 -1.921875 -0.171875 -2.050781 -0.203125 -2.1875 C -0.234375 -2.320312 -0.242188 -2.453125 -0.234375 -2.578125 C -0.242188 -2.765625 -0.226562 -2.941406 -0.1875 -3.109375 C -0.15625 -3.273438 -0.113281 -3.445312 -0.0625 -3.625 C 0.0703125 -3.976562 0.253906 -4.363281 0.484375 -4.78125 C 0.722656 -5.207031 1.003906 -5.578125 1.328125 -5.890625 C 1.648438 -6.210938 2.007812 -6.40625 2.40625 -6.46875 C 2.457031 -6.46875 2.488281 -6.472656 2.5 -6.484375 C 2.519531 -6.484375 2.535156 -6.484375 2.546875 -6.484375 C 2.566406 -6.484375 2.582031 -6.484375 2.59375 -6.484375 C 2.820312 -6.484375 3 -6.40625 3.125 -6.25 C 3.257812 -6.101562 3.3125 -5.898438 3.28125 -5.640625 C 3.21875 -5.273438 3.035156 -4.898438 2.734375 -4.515625 C 2.441406 -4.128906 2.097656 -3.800781 1.703125 -3.53125 C 1.304688 -3.269531 0.925781 -3.117188 0.5625 -3.078125 C 0.457031 -3.046875 0.398438 -2.972656 0.390625 -2.859375 C 0.328125 -2.617188 0.347656 -2.351562 0.453125 -2.0625 C 0.492188 -1.8125 0.578125 -1.660156 0.703125 -1.609375 C 0.835938 -1.566406 1.015625 -1.546875 1.234375 -1.546875 C 1.679688 -1.640625 2.144531 -1.835938 2.625 -2.140625 C 3.101562 -2.453125 3.507812 -2.765625 3.84375 -3.078125 C 3.976562 -3.191406 4.113281 -3.316406 4.25 -3.453125 C 4.382812 -3.585938 4.519531 -3.71875 4.65625 -3.84375 C 4.78125 -3.96875 4.910156 -4.09375 5.046875 -4.21875 C 5.179688 -4.34375 5.316406 -4.46875 5.453125 -4.59375 C 5.484375 -4.625 5.519531 -4.65625 5.5625 -4.6875 C 5.613281 -4.726562 5.65625 -4.765625 5.6875 -4.796875 C 5.71875 -4.828125 5.75 -4.859375 5.78125 -4.890625 C 5.820312 -4.929688 5.859375 -4.96875 5.890625 -5 C 5.960938 -5.050781 6.023438 -5.078125 6.078125 -5.078125 C 6.140625 -5.078125 6.191406 -5.050781 6.234375 -5 C 6.359375 -4.894531 6.378906 -4.78125 6.296875 -4.65625 C 6.285156 -4.613281 6.226562 -4.539062 6.125 -4.4375 C 5.84375 -4.144531 5.5 -3.800781 5.09375 -3.40625 C 4.6875 -3.019531 4.25 -2.640625 3.78125 -2.265625 C 3.3125 -1.890625 2.835938 -1.578125 2.359375 -1.328125 C 1.890625 -1.078125 1.457031 -0.953125 1.0625 -0.953125 Z M 0.859375 -3.75 C 1.054688 -3.851562 1.296875 -4.007812 1.578125 -4.21875 C 1.859375 -4.4375 2.109375 -4.671875 2.328125 -4.921875 C 2.546875 -5.171875 2.65625 -5.421875 2.65625 -5.671875 C 2.644531 -5.816406 2.578125 -5.875 2.453125 -5.84375 C 2.210938 -5.8125 1.96875 -5.679688 1.71875 -5.453125 C 1.476562 -5.234375 1.265625 -4.976562 1.078125 -4.6875 C 0.898438 -4.394531 0.769531 -4.128906 0.6875 -3.890625 C 0.6875 -3.816406 0.703125 -3.78125 0.734375 -3.78125 C 0.804688 -3.75 0.847656 -3.738281 0.859375 -3.75 Z M 0.859375 -3.75 "/></g></g></g><g fill="#2b2d42" fill-opacity="1"><g transform="translate(151.833796, 41.98803)"><g><path d="M 0.140625 -0.234375 C 0.078125 -0.234375 0.0351562 -0.238281 0.015625 -0.25 C -0.148438 -0.289062 -0.234375 -0.40625 -0.234375 -0.59375 C -0.234375 -1.195312 -0.171875 -1.796875 -0.046875 -2.390625 C 0.078125 -2.992188 0.222656 -3.582031 0.390625 -4.15625 C 0.429688 -4.3125 0.515625 -4.59375 0.640625 -5 C 0.773438 -5.414062 0.925781 -5.863281 1.09375 -6.34375 C 1.269531 -6.832031 1.445312 -7.257812 1.625 -7.625 C 1.800781 -8 1.945312 -8.21875 2.0625 -8.28125 C 2.15625 -8.3125 2.203125 -8.328125 2.203125 -8.328125 C 2.234375 -8.328125 2.269531 -8.300781 2.3125 -8.25 C 2.363281 -8.207031 2.394531 -8.171875 2.40625 -8.140625 C 2.4375 -8.003906 2.429688 -7.898438 2.390625 -7.828125 C 2.328125 -7.722656 2.273438 -7.613281 2.234375 -7.5 C 1.835938 -6.664062 1.5 -5.800781 1.21875 -4.90625 C 0.945312 -4.019531 0.710938 -3.117188 0.515625 -2.203125 C 0.503906 -2.140625 0.503906 -2.085938 0.515625 -2.046875 C 0.515625 -1.984375 0.507812 -1.9375 0.5 -1.90625 C 0.507812 -1.894531 0.546875 -1.890625 0.609375 -1.890625 C 0.671875 -1.890625 0.710938 -1.910156 0.734375 -1.953125 C 0.765625 -2.015625 0.785156 -2.050781 0.796875 -2.0625 C 0.890625 -2.238281 0.976562 -2.40625 1.0625 -2.5625 C 1.15625 -2.71875 1.25 -2.878906 1.34375 -3.046875 C 1.4375 -3.210938 1.523438 -3.375 1.609375 -3.53125 C 1.703125 -3.695312 1.800781 -3.851562 1.90625 -4 C 2.101562 -4.300781 2.328125 -4.613281 2.578125 -4.9375 C 2.828125 -5.257812 3.101562 -5.523438 3.40625 -5.734375 C 3.5 -5.773438 3.582031 -5.796875 3.65625 -5.796875 C 3.851562 -5.796875 3.992188 -5.691406 4.078125 -5.484375 C 4.128906 -5.359375 4.160156 -5.226562 4.171875 -5.09375 C 4.179688 -4.957031 4.175781 -4.820312 4.15625 -4.6875 C 4.15625 -4.582031 4.15625 -4.484375 4.15625 -4.390625 C 4.15625 -4.296875 4.148438 -4.207031 4.140625 -4.125 C 4.128906 -4.03125 4.125 -3.9375 4.125 -3.84375 C 4.125 -3.75 4.113281 -3.660156 4.09375 -3.578125 C 4.09375 -3.523438 4.09375 -3.472656 4.09375 -3.421875 C 4.09375 -3.378906 4.101562 -3.335938 4.125 -3.296875 C 4.125 -3.253906 4.125 -3.207031 4.125 -3.15625 C 4.125 -3.113281 4.125 -3.078125 4.125 -3.046875 C 4.125 -2.953125 4.179688 -2.90625 4.296875 -2.90625 C 4.316406 -2.925781 4.332031 -2.9375 4.34375 -2.9375 L 4.78125 -3.34375 C 4.84375 -3.40625 4.90625 -3.46875 4.96875 -3.53125 C 5.039062 -3.59375 5.109375 -3.648438 5.171875 -3.703125 C 5.222656 -3.765625 5.28125 -3.828125 5.34375 -3.890625 C 5.40625 -3.953125 5.46875 -4.015625 5.53125 -4.078125 C 5.707031 -4.191406 5.847656 -4.28125 5.953125 -4.34375 C 6.015625 -4.363281 6.066406 -4.375 6.109375 -4.375 C 6.148438 -4.382812 6.175781 -4.390625 6.1875 -4.390625 C 6.394531 -4.390625 6.546875 -4.289062 6.640625 -4.09375 C 6.703125 -4 6.738281 -3.929688 6.75 -3.890625 C 6.769531 -3.859375 6.78125 -3.820312 6.78125 -3.78125 C 6.789062 -3.75 6.804688 -3.71875 6.828125 -3.6875 C 6.890625 -3.53125 6.960938 -3.398438 7.046875 -3.296875 C 7.171875 -3.160156 7.300781 -3.09375 7.4375 -3.09375 C 7.59375 -3.09375 7.769531 -3.148438 7.96875 -3.265625 C 8.164062 -3.390625 8.316406 -3.492188 8.421875 -3.578125 C 8.671875 -3.785156 8.925781 -4.003906 9.1875 -4.234375 C 9.445312 -4.460938 9.695312 -4.679688 9.9375 -4.890625 C 9.957031 -4.898438 9.972656 -4.910156 9.984375 -4.921875 C 10.003906 -4.941406 10.019531 -4.96875 10.03125 -5 C 10.15625 -5.082031 10.238281 -5.125 10.28125 -5.125 C 10.375 -5.125 10.441406 -5.082031 10.484375 -5 C 10.617188 -4.863281 10.613281 -4.722656 10.46875 -4.578125 C 10.375 -4.453125 10.265625 -4.34375 10.140625 -4.25 L 8.78125 -3.09375 C 8.582031 -2.925781 8.3125 -2.757812 7.96875 -2.59375 C 7.820312 -2.53125 7.644531 -2.5 7.4375 -2.5 C 7.039062 -2.5 6.722656 -2.691406 6.484375 -3.078125 C 6.453125 -3.128906 6.421875 -3.179688 6.390625 -3.234375 C 6.359375 -3.296875 6.335938 -3.351562 6.328125 -3.40625 C 6.273438 -3.53125 6.191406 -3.628906 6.078125 -3.703125 C 5.972656 -3.648438 5.875 -3.582031 5.78125 -3.5 C 5.6875 -3.425781 5.601562 -3.351562 5.53125 -3.28125 C 5.457031 -3.195312 5.375 -3.109375 5.28125 -3.015625 C 5.1875 -2.929688 5.101562 -2.851562 5.03125 -2.78125 C 4.96875 -2.71875 4.90625 -2.65625 4.84375 -2.59375 C 4.78125 -2.53125 4.71875 -2.46875 4.65625 -2.40625 C 4.539062 -2.289062 4.398438 -2.191406 4.234375 -2.109375 C 4.109375 -2.078125 4.046875 -2.0625 4.046875 -2.0625 C 3.898438 -2.0625 3.769531 -2.140625 3.65625 -2.296875 C 3.582031 -2.460938 3.535156 -2.628906 3.515625 -2.796875 C 3.503906 -2.960938 3.5 -3.140625 3.5 -3.328125 C 3.519531 -3.492188 3.53125 -3.660156 3.53125 -3.828125 C 3.539062 -4.003906 3.546875 -4.175781 3.546875 -4.34375 C 3.546875 -4.382812 3.550781 -4.429688 3.5625 -4.484375 C 3.570312 -4.546875 3.582031 -4.601562 3.59375 -4.65625 C 3.625 -4.78125 3.570312 -4.859375 3.4375 -4.890625 C 3.34375 -4.898438 3.265625 -4.867188 3.203125 -4.796875 C 3.171875 -4.734375 3.140625 -4.679688 3.109375 -4.640625 C 3.085938 -4.597656 3.0625 -4.5625 3.03125 -4.53125 C 2.832031 -4.300781 2.648438 -4.0625 2.484375 -3.8125 C 2.328125 -3.5625 2.175781 -3.304688 2.03125 -3.046875 C 1.84375 -2.710938 1.65625 -2.378906 1.46875 -2.046875 C 1.289062 -1.722656 1.113281 -1.40625 0.9375 -1.09375 C 0.851562 -0.957031 0.773438 -0.828125 0.703125 -0.703125 C 0.640625 -0.578125 0.550781 -0.460938 0.4375 -0.359375 C 0.34375 -0.273438 0.242188 -0.234375 0.140625 -0.234375 Z M 0.140625 -0.234375 "/></g></g></g><g fill="#2b2d42" fill-opacity="1"><g transform="translate(161.272569, 41.98803)"><g><path d="M 1.0625 -0.953125 C 0.445312 -0.953125 0.0625 -1.234375 -0.09375 -1.796875 C -0.132812 -1.921875 -0.171875 -2.050781 -0.203125 -2.1875 C -0.234375 -2.320312 -0.242188 -2.453125 -0.234375 -2.578125 C -0.242188 -2.765625 -0.226562 -2.941406 -0.1875 -3.109375 C -0.15625 -3.273438 -0.113281 -3.445312 -0.0625 -3.625 C 0.0703125 -3.976562 0.253906 -4.363281 0.484375 -4.78125 C 0.722656 -5.207031 1.003906 -5.578125 1.328125 -5.890625 C 1.648438 -6.210938 2.007812 -6.40625 2.40625 -6.46875 C 2.457031 -6.46875 2.488281 -6.472656 2.5 -6.484375 C 2.519531 -6.484375 2.535156 -6.484375 2.546875 -6.484375 C 2.566406 -6.484375 2.582031 -6.484375 2.59375 -6.484375 C 2.820312 -6.484375 3 -6.40625 3.125 -6.25 C 3.257812 -6.101562 3.3125 -5.898438 3.28125 -5.640625 C 3.21875 -5.273438 3.035156 -4.898438 2.734375 -4.515625 C 2.441406 -4.128906 2.097656 -3.800781 1.703125 -3.53125 C 1.304688 -3.269531 0.925781 -3.117188 0.5625 -3.078125 C 0.457031 -3.046875 0.398438 -2.972656 0.390625 -2.859375 C 0.328125 -2.617188 0.347656 -2.351562 0.453125 -2.0625 C 0.492188 -1.8125 0.578125 -1.660156 0.703125 -1.609375 C 0.835938 -1.566406 1.015625 -1.546875 1.234375 -1.546875 C 1.679688 -1.640625 2.144531 -1.835938 2.625 -2.140625 C 3.101562 -2.453125 3.507812 -2.765625 3.84375 -3.078125 C 3.976562 -3.191406 4.113281 -3.316406 4.25 -3.453125 C 4.382812 -3.585938 4.519531 -3.71875 4.65625 -3.84375 C 4.78125 -3.96875 4.910156 -4.09375 5.046875 -4.21875 C 5.179688 -4.34375 5.316406 -4.46875 5.453125 -4.59375 C 5.484375 -4.625 5.519531 -4.65625 5.5625 -4.6875 C 5.613281 -4.726562 5.65625 -4.765625 5.6875 -4.796875 C 5.71875 -4.828125 5.75 -4.859375 5.78125 -4.890625 C 5.820312 -4.929688 5.859375 -4.96875 5.890625 -5 C 5.960938 -5.050781 6.023438 -5.078125 6.078125 -5.078125 C 6.140625 -5.078125 6.191406 -5.050781 6.234375 -5 C 6.359375 -4.894531 6.378906 -4.78125 6.296875 -4.65625 C 6.285156 -4.613281 6.226562 -4.539062 6.125 -4.4375 C 5.84375 -4.144531 5.5 -3.800781 5.09375 -3.40625 C 4.6875 -3.019531 4.25 -2.640625 3.78125 -2.265625 C 3.3125 -1.890625 2.835938 -1.578125 2.359375 -1.328125 C 1.890625 -1.078125 1.457031 -0.953125 1.0625 -0.953125 Z M 0.859375 -3.75 C 1.054688 -3.851562 1.296875 -4.007812 1.578125 -4.21875 C 1.859375 -4.4375 2.109375 -4.671875 2.328125 -4.921875 C 2.546875 -5.171875 2.65625 -5.421875 2.65625 -5.671875 C 2.644531 -5.816406 2.578125 -5.875 2.453125 -5.84375 C 2.210938 -5.8125 1.96875 -5.679688 1.71875 -5.453125 C 1.476562 -5.234375 1.265625 -4.976562 1.078125 -4.6875 C 0.898438 -4.394531 0.769531 -4.128906 0.6875 -3.890625 C 0.6875 -3.816406 0.703125 -3.78125 0.734375 -3.78125 C 0.804688 -3.75 0.847656 -3.738281 0.859375 -3.75 Z M 0.859375 -3.75 "/></g></g></g><g fill="#2b2d42" fill-opacity="1"><g transform="translate(166.458204, 41.98803)"><g><path d="M -0.109375 -0.234375 C -0.296875 -0.234375 -0.40625 -0.335938 -0.4375 -0.546875 C -0.445312 -0.585938 -0.453125 -0.6875 -0.453125 -0.84375 C -0.410156 -1.238281 -0.332031 -1.625 -0.21875 -2 C -0.113281 -2.382812 -0.00390625 -2.765625 0.109375 -3.140625 C 0.210938 -3.429688 0.316406 -3.710938 0.421875 -3.984375 C 0.535156 -4.265625 0.644531 -4.550781 0.75 -4.84375 C 0.851562 -5.132812 0.957031 -5.421875 1.0625 -5.703125 C 1.175781 -5.984375 1.285156 -6.265625 1.390625 -6.546875 C 1.460938 -6.660156 1.546875 -6.828125 1.640625 -7.046875 C 1.742188 -7.265625 1.859375 -7.375 1.984375 -7.375 C 1.984375 -7.375 2.023438 -7.359375 2.109375 -7.328125 C 2.265625 -7.234375 2.304688 -7.101562 2.234375 -6.9375 L 2.09375 -6.671875 C 1.988281 -6.378906 1.878906 -6.085938 1.765625 -5.796875 C 1.648438 -5.515625 1.539062 -5.226562 1.4375 -4.9375 C 1.332031 -4.644531 1.222656 -4.351562 1.109375 -4.0625 C 0.992188 -3.769531 0.875 -3.476562 0.75 -3.1875 C 0.738281 -3.125 0.71875 -3.054688 0.6875 -2.984375 C 0.664062 -2.921875 0.640625 -2.851562 0.609375 -2.78125 C 0.546875 -2.65625 0.554688 -2.507812 0.640625 -2.34375 C 0.734375 -2.539062 0.898438 -2.820312 1.140625 -3.1875 C 1.378906 -3.550781 1.648438 -3.925781 1.953125 -4.3125 C 2.253906 -4.707031 2.554688 -5.039062 2.859375 -5.3125 C 3.171875 -5.59375 3.4375 -5.734375 3.65625 -5.734375 C 3.914062 -5.734375 4.082031 -5.625 4.15625 -5.40625 C 4.238281 -5.195312 4.296875 -4.992188 4.328125 -4.796875 C 4.335938 -4.691406 4.347656 -4.59375 4.359375 -4.5 C 4.367188 -4.414062 4.378906 -4.328125 4.390625 -4.234375 C 4.390625 -4.140625 4.390625 -4.046875 4.390625 -3.953125 C 4.398438 -3.867188 4.414062 -3.78125 4.4375 -3.6875 C 4.445312 -3.425781 4.515625 -3.191406 4.640625 -2.984375 C 4.679688 -2.859375 4.769531 -2.796875 4.90625 -2.796875 C 4.9375 -2.796875 4.960938 -2.804688 4.984375 -2.828125 C 4.992188 -2.828125 5.007812 -2.828125 5.03125 -2.828125 C 5.164062 -2.867188 5.289062 -2.929688 5.40625 -3.015625 C 5.53125 -3.097656 5.65625 -3.191406 5.78125 -3.296875 C 5.882812 -3.390625 5.976562 -3.476562 6.0625 -3.5625 C 6.15625 -3.65625 6.257812 -3.757812 6.375 -3.875 C 6.457031 -3.957031 6.546875 -4.046875 6.640625 -4.140625 C 6.742188 -4.234375 6.851562 -4.320312 6.96875 -4.40625 C 7.082031 -4.519531 7.179688 -4.613281 7.265625 -4.6875 C 7.347656 -4.757812 7.40625 -4.8125 7.4375 -4.84375 C 7.46875 -4.875 7.5 -4.90625 7.53125 -4.9375 C 7.5625 -4.96875 7.582031 -4.988281 7.59375 -5 C 7.644531 -5.050781 7.695312 -5.078125 7.75 -5.078125 C 7.8125 -5.078125 7.867188 -5.050781 7.921875 -5 C 8.023438 -4.914062 8.054688 -4.8125 8.015625 -4.6875 C 7.960938 -4.5625 7.890625 -4.457031 7.796875 -4.375 C 7.742188 -4.3125 7.628906 -4.195312 7.453125 -4.03125 C 7.273438 -3.875 7.082031 -3.703125 6.875 -3.515625 C 6.675781 -3.328125 6.488281 -3.15625 6.3125 -3 C 6.132812 -2.851562 6.015625 -2.75 5.953125 -2.6875 C 5.679688 -2.425781 5.378906 -2.265625 5.046875 -2.203125 C 5.035156 -2.203125 5.019531 -2.203125 5 -2.203125 C 4.988281 -2.203125 4.972656 -2.203125 4.953125 -2.203125 C 4.921875 -2.191406 4.882812 -2.1875 4.84375 -2.1875 C 4.539062 -2.1875 4.300781 -2.34375 4.125 -2.65625 C 3.976562 -2.914062 3.894531 -3.195312 3.875 -3.5 C 3.851562 -3.625 3.835938 -3.742188 3.828125 -3.859375 C 3.828125 -3.972656 3.816406 -4.082031 3.796875 -4.1875 C 3.785156 -4.289062 3.769531 -4.398438 3.75 -4.515625 C 3.738281 -4.628906 3.722656 -4.738281 3.703125 -4.84375 C 3.671875 -4.96875 3.617188 -5.03125 3.546875 -5.03125 C 3.484375 -5.03125 3.429688 -5.003906 3.390625 -4.953125 C 2.796875 -4.421875 2.273438 -3.820312 1.828125 -3.15625 C 1.378906 -2.488281 0.984375 -1.800781 0.640625 -1.09375 C 0.609375 -1.03125 0.570312 -0.960938 0.53125 -0.890625 C 0.5 -0.828125 0.46875 -0.757812 0.4375 -0.6875 C 0.40625 -0.601562 0.363281 -0.53125 0.3125 -0.46875 C 0.257812 -0.414062 0.191406 -0.359375 0.109375 -0.296875 C 0.046875 -0.253906 -0.0234375 -0.234375 -0.109375 -0.234375 Z M -0.109375 -0.234375 "/></g></g></g><g fill="#2b2d42" fill-opacity="1"><g transform="translate(173.349643, 41.98803)"><g><path d="M 0.40625 1.609375 C 0.125 1.609375 -0.0625 1.445312 -0.15625 1.125 C -0.257812 0.8125 -0.3125 0.523438 -0.3125 0.265625 C -0.3125 -0.453125 -0.21875 -1.253906 -0.03125 -2.140625 C 0.144531 -3.035156 0.363281 -3.914062 0.625 -4.78125 C 0.894531 -5.644531 1.148438 -6.414062 1.390625 -7.09375 C 1.460938 -7.3125 1.53125 -7.515625 1.59375 -7.703125 C 1.664062 -7.890625 1.738281 -8.082031 1.8125 -8.28125 C 1.875 -8.445312 1.894531 -8.5625 1.875 -8.625 C 1.851562 -8.695312 1.773438 -8.734375 1.640625 -8.734375 L 1.453125 -8.734375 C 1.304688 -8.722656 1.15625 -8.707031 1 -8.6875 C 0.851562 -8.675781 0.703125 -8.65625 0.546875 -8.625 C 0.390625 -8.601562 0.234375 -8.582031 0.078125 -8.5625 C -0.078125 -8.539062 -0.234375 -8.523438 -0.390625 -8.515625 C -0.472656 -8.492188 -0.5625 -8.472656 -0.65625 -8.453125 C -0.757812 -8.441406 -0.859375 -8.4375 -0.953125 -8.4375 C -1.078125 -8.4375 -1.160156 -8.445312 -1.203125 -8.46875 C -1.273438 -8.476562 -1.328125 -8.519531 -1.359375 -8.59375 C -1.390625 -8.75 -1.351562 -8.832031 -1.25 -8.84375 C -1.1875 -8.863281 -1.132812 -8.878906 -1.09375 -8.890625 C -1.050781 -8.910156 -1.003906 -8.925781 -0.953125 -8.9375 C -0.890625 -8.957031 -0.832031 -8.96875 -0.78125 -8.96875 C -0.726562 -8.976562 -0.671875 -8.992188 -0.609375 -9.015625 C -0.398438 -9.035156 -0.195312 -9.0625 0 -9.09375 C 0.207031 -9.125 0.410156 -9.148438 0.609375 -9.171875 C 0.828125 -9.203125 1.035156 -9.226562 1.234375 -9.25 C 1.429688 -9.269531 1.625 -9.289062 1.8125 -9.3125 C 2.09375 -9.320312 2.285156 -9.445312 2.390625 -9.6875 L 3 -11.0625 C 3.0625 -11.144531 3.113281 -11.234375 3.15625 -11.328125 C 3.207031 -11.421875 3.265625 -11.515625 3.328125 -11.609375 C 3.367188 -11.691406 3.414062 -11.78125 3.46875 -11.875 C 3.519531 -11.96875 3.578125 -12.0625 3.640625 -12.15625 C 3.804688 -12.425781 3.96875 -12.5625 4.125 -12.5625 C 4.207031 -12.5625 4.273438 -12.507812 4.328125 -12.40625 C 4.359375 -12.25 4.316406 -12.078125 4.203125 -11.890625 C 4.085938 -11.585938 3.957031 -11.285156 3.8125 -10.984375 C 3.664062 -10.679688 3.515625 -10.378906 3.359375 -10.078125 C 3.347656 -10.046875 3.332031 -10.003906 3.3125 -9.953125 C 3.300781 -9.910156 3.289062 -9.875 3.28125 -9.84375 C 3.226562 -9.757812 3.203125 -9.65625 3.203125 -9.53125 C 3.265625 -9.519531 3.316406 -9.507812 3.359375 -9.5 C 3.410156 -9.488281 3.457031 -9.484375 3.5 -9.484375 C 3.5625 -9.484375 3.609375 -9.492188 3.640625 -9.515625 C 3.671875 -9.515625 3.691406 -9.515625 3.703125 -9.515625 C 3.722656 -9.515625 3.738281 -9.515625 3.75 -9.515625 C 4.070312 -9.546875 4.398438 -9.578125 4.734375 -9.609375 C 5.078125 -9.648438 5.441406 -9.6875 5.828125 -9.71875 C 6.203125 -9.75 6.5625 -9.773438 6.90625 -9.796875 C 7.25 -9.828125 7.578125 -9.859375 7.890625 -9.890625 L 8.71875 -9.890625 C 8.820312 -9.890625 8.878906 -9.816406 8.890625 -9.671875 C 8.890625 -9.546875 8.847656 -9.46875 8.765625 -9.4375 C 8.703125 -9.425781 8.644531 -9.414062 8.59375 -9.40625 C 8.550781 -9.394531 8.507812 -9.390625 8.46875 -9.390625 C 8.414062 -9.378906 8.367188 -9.375 8.328125 -9.375 C 8.285156 -9.375 8.234375 -9.363281 8.171875 -9.34375 L 3.28125 -8.921875 C 2.945312 -8.890625 2.722656 -8.738281 2.609375 -8.46875 C 2.472656 -8.175781 2.3125 -7.757812 2.125 -7.21875 C 1.9375 -6.6875 1.738281 -6.109375 1.53125 -5.484375 C 1.332031 -4.859375 1.148438 -4.265625 0.984375 -3.703125 C 0.816406 -3.140625 0.691406 -2.691406 0.609375 -2.359375 C 0.523438 -1.984375 0.453125 -1.609375 0.390625 -1.234375 C 0.335938 -0.867188 0.296875 -0.488281 0.265625 -0.09375 C 0.253906 0.0703125 0.242188 0.25 0.234375 0.4375 C 0.234375 0.632812 0.316406 0.800781 0.484375 0.9375 C 0.648438 0.914062 0.800781 0.835938 0.9375 0.703125 C 1 0.628906 1.054688 0.554688 1.109375 0.484375 C 1.160156 0.421875 1.21875 0.359375 1.28125 0.296875 C 1.519531 -0.00390625 1.804688 -0.394531 2.140625 -0.875 C 2.484375 -1.351562 2.832031 -1.84375 3.1875 -2.34375 C 3.550781 -2.84375 3.882812 -3.296875 4.1875 -3.703125 C 4.488281 -4.117188 4.722656 -4.410156 4.890625 -4.578125 C 4.921875 -4.617188 4.957031 -4.660156 5 -4.703125 C 5.050781 -4.753906 5.09375 -4.800781 5.125 -4.84375 C 5.195312 -4.914062 5.285156 -4.976562 5.390625 -5.03125 C 5.410156 -5.03125 5.425781 -5.035156 5.4375 -5.046875 C 5.445312 -5.046875 5.453125 -5.046875 5.453125 -5.046875 C 5.453125 -5.046875 5.460938 -5.046875 5.484375 -5.046875 C 5.492188 -5.046875 5.546875 -5.03125 5.640625 -5 C 5.765625 -4.914062 5.785156 -4.800781 5.703125 -4.65625 C 5.703125 -4.613281 5.679688 -4.570312 5.640625 -4.53125 C 5.410156 -4.257812 5.109375 -3.867188 4.734375 -3.359375 C 4.367188 -2.859375 4.023438 -2.390625 3.703125 -1.953125 C 3.328125 -1.441406 2.941406 -0.921875 2.546875 -0.390625 C 2.148438 0.128906 1.769531 0.601562 1.40625 1.03125 C 1.300781 1.164062 1.15625 1.296875 0.96875 1.421875 C 0.78125 1.546875 0.59375 1.609375 0.40625 1.609375 Z M 0.40625 1.609375 "/></g></g></g></svg>